<?xml version="1.0" encoding="UTF-8" standalone="no"?>
<!-- Created with Inkscape (http://www.inkscape.org/) -->

<svg
   xmlns:dc="http://purl.org/dc/elements/1.1/"
   xmlns:cc="http://creativecommons.org/ns#"
   xmlns:rdf="http://www.w3.org/1999/02/22-rdf-syntax-ns#"
   xmlns:svg="http://www.w3.org/2000/svg"
   xmlns="http://www.w3.org/2000/svg"
   xmlns:sodipodi="http://sodipodi.sourceforge.net/DTD/sodipodi-0.dtd"
   xmlns:inkscape="http://www.inkscape.org/namespaces/inkscape"
   width="744.09448819"
   height="1052.3622047"
   id="svg2"
   version="1.1"
   inkscape:version="0.48.1 r9760"
   sodipodi:docname="collision.svg">
  <sodipodi:namedview
     id="base"
     pagecolor="#ffffff"
     bordercolor="#666666"
     borderopacity="1.0"
     inkscape:pageopacity="0.0"
     inkscape:pageshadow="2"
     inkscape:zoom="4.5594994"
     inkscape:cx="292.3531"
     inkscape:cy="709.66923"
     inkscape:document-units="px"
     inkscape:current-layer="layer2"
     showgrid="true"
     inkscape:window-width="2560"
     inkscape:window-height="1285"
     inkscape:window-x="0"
     inkscape:window-y="0"
     inkscape:window-maximized="0"
     showguides="true"
     inkscape:guide-bbox="true"
     inkscape:snap-grids="false">
    <inkscape:grid
       id="grid2985"
       type="xygrid" />
  </sodipodi:namedview>
  <defs
     id="defs4">
    <marker
       inkscape:stockid="Arrow1Lend"
       orient="auto"
       refY="0.0"
       refX="0.0"
       id="Arrow1Lend"
       style="overflow:visible;">
      <path
         id="path3956"
         d="M 0.0,0.0 L 5.0,-5.0 L -12.5,0.0 L 5.0,5.0 L 0.0,0.0 z "
         style="fill-rule:evenodd;stroke:#000000;stroke-width:1.0pt;marker-start:none;"
         transform="scale(0.8) rotate(180) translate(12.5,0)" />
    </marker>
    <marker
       style="overflow:visible"
       id="Arrow1Lstart"
       refX="0.0"
       refY="0.0"
       orient="auto"
       inkscape:stockid="Arrow1Lstart">
      <path
         transform="scale(0.8) translate(12.5,0)"
         style="fill-rule:evenodd;stroke:#000000;stroke-width:1.0pt;marker-start:none"
         d="M 0.0,0.0 L 5.0,-5.0 L -12.5,0.0 L 5.0,5.0 L 0.0,0.0 z "
         id="path3841" />
    </marker>
    <marker
       style="overflow:visible"
       id="Arrow1Lstart-0"
       refX="0"
       refY="0"
       orient="auto"
       inkscape:stockid="Arrow1Lstart">
      <path
         inkscape:connector-curvature="0"
         transform="matrix(0.8,0,0,0.8,10,0)"
         style="fill-rule:evenodd;stroke:#000000;stroke-width:1pt;marker-start:none"
         d="M 0,0 5,-5 -12.5,0 5,5 0,0 z"
         id="path3841-8" />
    </marker>
    <marker
       style="overflow:visible"
       id="marker3109"
       refX="0"
       refY="0"
       orient="auto"
       inkscape:stockid="Arrow1Lstart">
      <path
         inkscape:connector-curvature="0"
         transform="matrix(0.8,0,0,0.8,10,0)"
         style="fill-rule:evenodd;stroke:#000000;stroke-width:1pt;marker-start:none"
         d="M 0,0 5,-5 -12.5,0 5,5 0,0 z"
         id="path3111" />
    </marker>
    <marker
       style="overflow:visible"
       id="marker3113"
       refX="0"
       refY="0"
       orient="auto"
       inkscape:stockid="Arrow1Lstart">
      <path
         inkscape:connector-curvature="0"
         transform="matrix(0.8,0,0,0.8,10,0)"
         style="fill-rule:evenodd;stroke:#000000;stroke-width:1pt;marker-start:none"
         d="M 0,0 5,-5 -12.5,0 5,5 0,0 z"
         id="path3115" />
    </marker>
    <marker
       style="overflow:visible"
       id="marker3117"
       refX="0"
       refY="0"
       orient="auto"
       inkscape:stockid="Arrow1Lstart">
      <path
         inkscape:connector-curvature="0"
         transform="matrix(0.8,0,0,0.8,10,0)"
         style="fill-rule:evenodd;stroke:#000000;stroke-width:1pt;marker-start:none"
         d="M 0,0 5,-5 -12.5,0 5,5 0,0 z"
         id="path3119" />
    </marker>
    <marker
       style="overflow:visible"
       id="marker3121"
       refX="0"
       refY="0"
       orient="auto"
       inkscape:stockid="Arrow1Lstart">
      <path
         inkscape:connector-curvature="0"
         transform="matrix(0.8,0,0,0.8,10,0)"
         style="fill-rule:evenodd;stroke:#000000;stroke-width:1pt;marker-start:none"
         d="M 0,0 5,-5 -12.5,0 5,5 0,0 z"
         id="path3123" />
    </marker>
    <marker
       style="overflow:visible"
       id="marker3125"
       refX="0"
       refY="0"
       orient="auto"
       inkscape:stockid="Arrow1Lstart">
      <path
         inkscape:connector-curvature="0"
         transform="matrix(0.8,0,0,0.8,10,0)"
         style="fill-rule:evenodd;stroke:#000000;stroke-width:1pt;marker-start:none"
         d="M 0,0 5,-5 -12.5,0 5,5 0,0 z"
         id="path3127" />
    </marker>
    <marker
       style="overflow:visible"
       id="marker3129"
       refX="0"
       refY="0"
       orient="auto"
       inkscape:stockid="Arrow1Lstart">
      <path
         inkscape:connector-curvature="0"
         transform="matrix(0.8,0,0,0.8,10,0)"
         style="fill-rule:evenodd;stroke:#000000;stroke-width:1pt;marker-start:none"
         d="M 0,0 5,-5 -12.5,0 5,5 0,0 z"
         id="path3131" />
    </marker>
    <marker
       style="overflow:visible"
       id="marker3133"
       refX="0"
       refY="0"
       orient="auto"
       inkscape:stockid="Arrow1Lstart">
      <path
         inkscape:connector-curvature="0"
         transform="matrix(0.8,0,0,0.8,10,0)"
         style="fill-rule:evenodd;stroke:#000000;stroke-width:1pt;marker-start:none"
         d="M 0,0 5,-5 -12.5,0 5,5 0,0 z"
         id="path3135" />
    </marker>
    <marker
       style="overflow:visible"
       id="Arrow1Lstart-8"
       refX="0"
       refY="0"
       orient="auto"
       inkscape:stockid="Arrow1Lstart">
      <path
         transform="matrix(0.8,0,0,0.8,10,0)"
         style="fill-rule:evenodd;stroke:#000000;stroke-width:1pt;marker-start:none"
         d="M 0,0 5,-5 -12.5,0 5,5 0,0 z"
         id="path3841-1"
         inkscape:connector-curvature="0" />
    </marker>
    <marker
       style="overflow:visible"
       id="marker3065"
       refX="0"
       refY="0"
       orient="auto"
       inkscape:stockid="Arrow1Lstart">
      <path
         transform="matrix(0.8,0,0,0.8,10,0)"
         style="fill-rule:evenodd;stroke:#000000;stroke-width:1pt;marker-start:none"
         d="M 0,0 5,-5 -12.5,0 5,5 0,0 z"
         id="path3067"
         inkscape:connector-curvature="0" />
    </marker>
    <marker
       style="overflow:visible"
       id="marker3069"
       refX="0"
       refY="0"
       orient="auto"
       inkscape:stockid="Arrow1Lstart">
      <path
         transform="matrix(0.8,0,0,0.8,10,0)"
         style="fill-rule:evenodd;stroke:#000000;stroke-width:1pt;marker-start:none"
         d="M 0,0 5,-5 -12.5,0 5,5 0,0 z"
         id="path3071"
         inkscape:connector-curvature="0" />
    </marker>
    <marker
       style="overflow:visible"
       id="marker3073"
       refX="0"
       refY="0"
       orient="auto"
       inkscape:stockid="Arrow1Lstart">
      <path
         transform="matrix(0.8,0,0,0.8,10,0)"
         style="fill-rule:evenodd;stroke:#000000;stroke-width:1pt;marker-start:none"
         d="M 0,0 5,-5 -12.5,0 5,5 0,0 z"
         id="path3075"
         inkscape:connector-curvature="0" />
    </marker>
    <marker
       style="overflow:visible"
       id="marker3077"
       refX="0"
       refY="0"
       orient="auto"
       inkscape:stockid="Arrow1Lstart">
      <path
         transform="matrix(0.8,0,0,0.8,10,0)"
         style="fill-rule:evenodd;stroke:#000000;stroke-width:1pt;marker-start:none"
         d="M 0,0 5,-5 -12.5,0 5,5 0,0 z"
         id="path3079"
         inkscape:connector-curvature="0" />
    </marker>
    <marker
       style="overflow:visible"
       id="marker3081"
       refX="0"
       refY="0"
       orient="auto"
       inkscape:stockid="Arrow1Lstart">
      <path
         transform="matrix(0.8,0,0,0.8,10,0)"
         style="fill-rule:evenodd;stroke:#000000;stroke-width:1pt;marker-start:none"
         d="M 0,0 5,-5 -12.5,0 5,5 0,0 z"
         id="path3083-2"
         inkscape:connector-curvature="0" />
    </marker>
    <marker
       style="overflow:visible"
       id="marker3085"
       refX="0"
       refY="0"
       orient="auto"
       inkscape:stockid="Arrow1Lstart">
      <path
         transform="matrix(0.8,0,0,0.8,10,0)"
         style="fill-rule:evenodd;stroke:#000000;stroke-width:1pt;marker-start:none"
         d="M 0,0 5,-5 -12.5,0 5,5 0,0 z"
         id="path3087-9"
         inkscape:connector-curvature="0" />
    </marker>
    <marker
       style="overflow:visible"
       id="marker3089"
       refX="0"
       refY="0"
       orient="auto"
       inkscape:stockid="Arrow1Lstart">
      <path
         transform="matrix(0.8,0,0,0.8,10,0)"
         style="fill-rule:evenodd;stroke:#000000;stroke-width:1pt;marker-start:none"
         d="M 0,0 5,-5 -12.5,0 5,5 0,0 z"
         id="path3091"
         inkscape:connector-curvature="0" />
    </marker>
    <marker
       inkscape:stockid="Arrow1Lendq"
       orient="auto"
       refY="0.0"
       refX="0.0"
       id="Arrow1Lendq"
       style="overflow:visible;">
      <path
         id="path4321"
         d="M 0.0,0.0 L 5.0,-5.0 L -12.5,0.0 L 5.0,5.0 L 0.0,0.0 z "
         style="marker-start:none;stroke:#ff0000;stroke-width:1.0pt;fill:#ff0000;fill-rule:evenodd"
         transform="scale(0.8) rotate(180) translate(12.5,0)" />
    </marker>
    <marker
       style="overflow:visible"
       id="Arrow1Lstartv"
       refX="0.0"
       refY="0.0"
       orient="auto"
       inkscape:stockid="Arrow1Lstartv">
      <path
         transform="scale(0.8) translate(12.5,0)"
         style="marker-start:none;stroke:#ff0000;stroke-width:1.0pt;fill:#ff0000;fill-rule:evenodd"
         d="M 0.0,0.0 L 5.0,-5.0 L -12.5,0.0 L 5.0,5.0 L 0.0,0.0 z "
         id="path4486" />
    </marker>
    <marker
       style="overflow:visible"
       id="Arrow1Lstart8"
       refX="0.0"
       refY="0.0"
       orient="auto"
       inkscape:stockid="Arrow1Lstart8">
      <path
         transform="scale(0.8) translate(12.5,0)"
         style="marker-start:none;stroke:#ff0000;stroke-width:1.0pt;fill:#ff0000;fill-rule:evenodd"
         d="M 0.0,0.0 L 5.0,-5.0 L -12.5,0.0 L 5.0,5.0 L 0.0,0.0 z "
         id="path4655" />
    </marker>
    <marker
       style="overflow:visible"
       id="Arrow1Lstartb"
       refX="0.0"
       refY="0.0"
       orient="auto"
       inkscape:stockid="Arrow1Lstartb">
      <path
         transform="scale(0.8) translate(12.5,0)"
         style="marker-start:none;stroke:#ff0000;stroke-width:1.0pt;fill:#ff0000;fill-rule:evenodd"
         d="M 0.0,0.0 L 5.0,-5.0 L -12.5,0.0 L 5.0,5.0 L 0.0,0.0 z "
         id="path4658" />
    </marker>
    <marker
       style="overflow:visible"
       id="Arrow1LstartD"
       refX="0.0"
       refY="0.0"
       orient="auto"
       inkscape:stockid="Arrow1LstartD">
      <path
         transform="scale(0.8) translate(12.5,0)"
         style="marker-start:none;stroke:#ff0000;stroke-width:1.0pt;fill:#ff0000;fill-rule:evenodd"
         d="M 0.0,0.0 L 5.0,-5.0 L -12.5,0.0 L 5.0,5.0 L 0.0,0.0 z "
         id="path4661" />
    </marker>
    <marker
       inkscape:stockid="Arrow1LendqC"
       orient="auto"
       refY="0.0"
       refX="0.0"
       id="Arrow1LendqC"
       style="overflow:visible;">
      <path
         id="path4664"
         d="M 0.0,0.0 L 5.0,-5.0 L -12.5,0.0 L 5.0,5.0 L 0.0,0.0 z "
         style="fill-rule:evenodd;marker-start:none;stroke:#ff0000;stroke-width:1.0pt;fill:#ff0000"
         transform="scale(0.8) rotate(180) translate(12.5,0)" />
    </marker>
    <marker
       style="overflow:visible"
       id="Arrow1LstartR"
       refX="0.0"
       refY="0.0"
       orient="auto"
       inkscape:stockid="Arrow1LstartR">
      <path
         transform="scale(0.8) translate(12.5,0)"
         style="marker-start:none;stroke:#ff0000;stroke-width:1.0pt;fill:#ff0000;fill-rule:evenodd"
         d="M 0.0,0.0 L 5.0,-5.0 L -12.5,0.0 L 5.0,5.0 L 0.0,0.0 z "
         id="path4667" />
    </marker>
    <marker
       style="overflow:visible"
       id="Arrow1LstartJ"
       refX="0.0"
       refY="0.0"
       orient="auto"
       inkscape:stockid="Arrow1LstartJ">
      <path
         transform="scale(0.8) translate(12.5,0)"
         style="marker-start:none;stroke:#ff0000;stroke-width:1.0pt;fill:#ff0000;fill-rule:evenodd"
         d="M 0.0,0.0 L 5.0,-5.0 L -12.5,0.0 L 5.0,5.0 L 0.0,0.0 z "
         id="path4670" />
    </marker>
    <marker
       style="overflow:visible"
       id="Arrow1Lstarty"
       refX="0.0"
       refY="0.0"
       orient="auto"
       inkscape:stockid="Arrow1Lstarty">
      <path
         transform="scale(0.8) translate(12.5,0)"
         style="marker-start:none;stroke:#ff0000;stroke-width:1.0pt;fill:#ff0000;fill-rule:evenodd"
         d="M 0.0,0.0 L 5.0,-5.0 L -12.5,0.0 L 5.0,5.0 L 0.0,0.0 z "
         id="path4673" />
    </marker>
    <marker
       style="overflow:visible"
       id="Arrow1LstartP"
       refX="0.0"
       refY="0.0"
       orient="auto"
       inkscape:stockid="Arrow1LstartP">
      <path
         transform="scale(0.8) translate(12.5,0)"
         style="marker-start:none;stroke:#ff0000;stroke-width:1.0pt;fill:#ff0000;fill-rule:evenodd"
         d="M 0.0,0.0 L 5.0,-5.0 L -12.5,0.0 L 5.0,5.0 L 0.0,0.0 z "
         id="path4870" />
    </marker>
  </defs>
  <metadata
     id="metadata7">
    <rdf:RDF>
      <cc:Work
         rdf:about="">
        <dc:format>image/svg+xml</dc:format>
        <dc:type
           rdf:resource="http://purl.org/dc/dcmitype/StillImage" />
        <dc:title />
      </cc:Work>
    </rdf:RDF>
  </metadata>
  <g
     id="layer1"
     inkscape:groupmode="layer"
     inkscape:label="Layer 1">
    <path
       inkscape:connector-curvature="0"
       id="path3822"
       d="m 145,342.61218 c 0,19.75 0,19.75 0,19.75"
       style="fill:none;stroke:#000000;stroke-width:0.5625;stroke-linecap:butt;stroke-linejoin:miter;stroke-miterlimit:4;stroke-opacity:1;stroke-dasharray:none;marker-start:url(#Arrow1Lstart)" />
    <path
       inkscape:connector-curvature="0"
       id="path3824"
       d="m 175,362.36218 c -30,0 -30,0 -30,0"
       style="fill:none;stroke:#000000;stroke-width:0.5625;stroke-linecap:butt;stroke-linejoin:miter;stroke-miterlimit:4;stroke-opacity:1;stroke-dasharray:none;marker-start:url(#Arrow1Lstart)" />
    <path
       inkscape:connector-curvature="0"
       id="path3826"
       d="m 145,382.11218 c 0,-19.75 0,-19.75 0,-19.75"
       style="fill:none;stroke:#000000;stroke-width:0.5625;stroke-linecap:butt;stroke-linejoin:miter;stroke-miterlimit:4;stroke-opacity:1;stroke-dasharray:none;marker-start:url(#Arrow1Lstart)" />
    <path
       inkscape:connector-curvature="0"
       id="path3828"
       d="m 130,362.36218 c 15,0 15,0 15,0"
       style="fill:none;stroke:#000000;stroke-width:0.5625;stroke-linecap:butt;stroke-linejoin:miter;stroke-miterlimit:4;stroke-opacity:1;stroke-dasharray:none;marker-start:url(#Arrow1Lstart)" />
    <path
       inkscape:connector-curvature="0"
       id="path3830"
       d="m 130,347.36218 c 15,15 15,15 15,15"
       style="fill:none;stroke:#000000;stroke-width:0.5625;stroke-linecap:butt;stroke-linejoin:miter;stroke-miterlimit:4;stroke-opacity:1;stroke-dasharray:none;marker-start:url(#Arrow1Lstart)" />
    <path
       inkscape:connector-curvature="0"
       id="path3832"
       d="M 164.84375,342.61218 C 145,362.36218 145,362.36218 145,362.36218"
       style="fill:none;stroke:#000000;stroke-width:0.5625;stroke-linecap:butt;stroke-linejoin:miter;stroke-miterlimit:4;stroke-opacity:1;stroke-dasharray:none;marker-start:url(#Arrow1Lstart)" />
    <path
       inkscape:connector-curvature="0"
       id="path3834"
       d="m 130,377.36218 c 15,-15 15,-15 15,-15"
       style="fill:none;stroke:#000000;stroke-width:0.5625;stroke-linecap:butt;stroke-linejoin:miter;stroke-miterlimit:4;stroke-opacity:1;stroke-dasharray:none;marker-start:url(#Arrow1Lstart)" />
    <path
       inkscape:connector-curvature="0"
       id="path3836"
       d="m 160,377.36218 c -15,-15 -15,-15 -15,-15"
       style="fill:none;stroke:#000000;stroke-width:0.5625;stroke-linecap:butt;stroke-linejoin:miter;stroke-miterlimit:4;stroke-opacity:1;stroke-dasharray:none;marker-start:url(#Arrow1Lstart)" />
    <path
       style="fill:none;stroke:#000000;stroke-width:0.49195638;stroke-linecap:butt;stroke-linejoin:miter;stroke-miterlimit:4;stroke-opacity:1;stroke-dasharray:1.96782553,1.96782553;stroke-dashoffset:0"
       d="m 85,272.36218 0,175"
       id="path3081"
       inkscape:connector-curvature="0" />
    <path
       style="fill:none;stroke:#000000;stroke-width:0.49195638;stroke-linecap:butt;stroke-linejoin:miter;stroke-miterlimit:4;stroke-opacity:1;stroke-dasharray:1.96782553,1.96782553;stroke-dashoffset:0"
       d="m 115,272.36218 0,175"
       id="path3083"
       inkscape:connector-curvature="0" />
    <path
       style="fill:none;stroke:#000000;stroke-width:0.49195638;stroke-linecap:butt;stroke-linejoin:miter;stroke-miterlimit:4;stroke-opacity:1;stroke-dasharray:1.96782553,1.96782553;stroke-dashoffset:0"
       d="m 145,272.36218 0,175"
       id="path3085"
       inkscape:connector-curvature="0" />
    <path
       style="fill:none;stroke:#000000;stroke-width:0.49195638;stroke-linecap:butt;stroke-linejoin:miter;stroke-miterlimit:4;stroke-opacity:1;stroke-dasharray:1.96782553,1.96782553;stroke-dashoffset:0"
       d="m 175,272.36218 0,175"
       id="path3087"
       inkscape:connector-curvature="0" />
    <path
       style="fill:none;stroke:#000000;stroke-width:0.49195638;stroke-linecap:butt;stroke-linejoin:miter;stroke-miterlimit:4;stroke-opacity:1;stroke-dasharray:1.96782553,1.96782553;stroke-dashoffset:0"
       d="m 205,272.36218 0,175"
       id="path3089"
       inkscape:connector-curvature="0" />
    <path
       style="fill:none;stroke:#000000;stroke-width:0.3736937;stroke-linecap:butt;stroke-linejoin:miter;stroke-miterlimit:4;stroke-opacity:1;stroke-dasharray:1.49477482,1.49477482;stroke-dashoffset:0"
       d="m 55.000003,362.36218 179.999997,0"
       id="path3093"
       inkscape:connector-curvature="0" />
    <path
       style="fill:none;stroke:#000000;stroke-width:0.3736937;stroke-linecap:butt;stroke-linejoin:miter;stroke-opacity:1;stroke-miterlimit:4;stroke-dasharray:1.49477482,1.49477482;stroke-dashoffset:0"
       d="m 235,392.36218 -180,0"
       id="path3095"
       inkscape:connector-curvature="0" />
    <path
       style="fill:none;stroke:#000000;stroke-width:0.3736937;stroke-linecap:butt;stroke-linejoin:miter;stroke-opacity:1;stroke-miterlimit:4;stroke-dasharray:1.49477482,1.49477482;stroke-dashoffset:0"
       d="m 55,417.36218 180,0"
       id="path3097"
       inkscape:connector-curvature="0" />
    <path
       style="fill:none;stroke:#000000;stroke-width:0.3736937;stroke-linecap:butt;stroke-linejoin:miter;stroke-opacity:1;stroke-miterlimit:4;stroke-dasharray:1.49477482,1.49477482;stroke-dashoffset:0"
       d="m 55,332.36218 180,0"
       id="path3099"
       inkscape:connector-curvature="0" />
    <path
       style="fill:none;stroke:#000000;stroke-width:0.39880121;stroke-linecap:butt;stroke-linejoin:miter;stroke-opacity:1;stroke-miterlimit:4;stroke-dasharray:1.59520483,1.59520483;stroke-dashoffset:0"
       d="m 55,302.36218 180,0"
       id="path3877"
       inkscape:connector-curvature="0" />
    <path
       style="fill:none;stroke:#000000;stroke-width:0.98688924px;stroke-linecap:butt;stroke-linejoin:miter;stroke-opacity:1;marker-end:url(#Arrow1Lend)"
       d="m 255,362.36218 c 63.30678,0 63.30678,0 63.30678,0"
       id="path3948"
       inkscape:connector-curvature="0" />
    <path
       inkscape:connector-curvature="0"
       id="path3832-5"
       d="m 450,342.36218 c -20,20 -20,20 -20,20"
       style="stroke-linejoin:miter;stroke-opacity:1;marker-start:url(#Arrow1LstartP);stroke:#ff0000;stroke-linecap:butt;stroke-miterlimit:4;stroke-dasharray:none;stroke-width:0.56250000000000000;fill:#ff0000" />
    <path
       style="fill:none;stroke:#000000;stroke-width:0.49195638;stroke-linecap:butt;stroke-linejoin:miter;stroke-miterlimit:4;stroke-opacity:1;stroke-dasharray:1.96782553, 1.96782553;stroke-dashoffset:0"
       d="m 370,272.36218 0,175"
       id="path3081-6"
       inkscape:connector-curvature="0" />
    <path
       style="fill:none;stroke:#000000;stroke-width:0.49195638;stroke-linecap:butt;stroke-linejoin:miter;stroke-miterlimit:4;stroke-opacity:1;stroke-dasharray:1.96782553, 1.96782553;stroke-dashoffset:0"
       d="m 400,272.36218 0,175"
       id="path3102"
       inkscape:connector-curvature="0" />
    <path
       style="fill:none;stroke:#000000;stroke-width:0.49195638;stroke-linecap:butt;stroke-linejoin:miter;stroke-miterlimit:4;stroke-opacity:1;stroke-dasharray:1.96782553, 1.96782553;stroke-dashoffset:0"
       d="m 430,272.36218 0,175"
       id="path3085-3"
       inkscape:connector-curvature="0" />
    <path
       style="fill:none;stroke:#000000;stroke-width:0.49195638;stroke-linecap:butt;stroke-linejoin:miter;stroke-miterlimit:4;stroke-opacity:1;stroke-dasharray:1.96782553, 1.96782553;stroke-dashoffset:0"
       d="m 460,272.36218 0,175"
       id="path3105"
       inkscape:connector-curvature="0" />
    <path
       style="fill:none;stroke:#000000;stroke-width:0.49195638;stroke-linecap:butt;stroke-linejoin:miter;stroke-miterlimit:4;stroke-opacity:1;stroke-dasharray:1.96782553, 1.96782553;stroke-dashoffset:0"
       d="m 490,272.36218 0,175"
       id="path3089-8"
       inkscape:connector-curvature="0" />
    <path
       style="fill:none;stroke:#000000;stroke-width:0.3736937;stroke-linecap:butt;stroke-linejoin:miter;stroke-miterlimit:4;stroke-opacity:1;stroke-dasharray:1.49477482, 1.49477482;stroke-dashoffset:0"
       d="m 340,362.36218 180,0"
       id="path3093-5"
       inkscape:connector-curvature="0" />
    <path
       style="fill:none;stroke:#000000;stroke-width:0.3736937;stroke-linecap:butt;stroke-linejoin:miter;stroke-miterlimit:4;stroke-opacity:1;stroke-dasharray:1.49477482, 1.49477482;stroke-dashoffset:0"
       d="m 520,392.36218 -180,0"
       id="path3095-6"
       inkscape:connector-curvature="0" />
    <path
       style="fill:none;stroke:#000000;stroke-width:0.3736937;stroke-linecap:butt;stroke-linejoin:miter;stroke-miterlimit:4;stroke-opacity:1;stroke-dasharray:1.49477482, 1.49477482;stroke-dashoffset:0"
       d="m 340,417.36218 180,0"
       id="path3097-1"
       inkscape:connector-curvature="0" />
    <path
       style="fill:none;stroke:#000000;stroke-width:0.3736937;stroke-linecap:butt;stroke-linejoin:miter;stroke-miterlimit:4;stroke-opacity:1;stroke-dasharray:1.49477482, 1.49477482;stroke-dashoffset:0"
       d="m 340,332.36218 180,0"
       id="path3099-1"
       inkscape:connector-curvature="0" />
    <path
       style="fill:none;stroke:#000000;stroke-width:0.39880121;stroke-linecap:butt;stroke-linejoin:miter;stroke-miterlimit:4;stroke-opacity:1;stroke-dasharray:1.59520483, 1.59520483;stroke-dashoffset:0"
       d="m 340,302.36218 180,0"
       id="path3877-5"
       inkscape:connector-curvature="0" />
  </g>
  <g
     inkscape:label="Layer"
     id="layer2"
     inkscape:groupmode="layer">
    <path
       inkscape:connector-curvature="0"
       id="path3824-9"
       d="m 465,362.36218 c -35,0 -35,0 -35,0"
       style="stroke-linejoin:miter;opacity:1;stroke-opacity:1;fill-opacity:1;marker-start:url(#Arrow1Lstartv);stroke:#ff0000;stroke-linecap:butt;stroke-miterlimit:4;stroke-dasharray:none;stroke-width:0.56250000000000000;fill:#ff0000" />
    <path
       inkscape:connector-curvature="0"
       id="path3826-0"
       d="m 430,387.36218 c 0,-25 0,-25 0,-25"
       style="stroke-linejoin:miter;stroke-opacity:1;marker-start:url(#Arrow1LstartR);stroke:#ff0000;stroke-linecap:butt;stroke-miterlimit:4;stroke-dasharray:none;stroke-width:0.56250000000000000;fill:#ff0000" />
    <path
       inkscape:connector-curvature="0"
       id="path3828-8"
       d="m 415,362.36218 c 15,0 15,0 15,0"
       style="stroke-linejoin:miter;stroke-opacity:1;marker-start:url(#Arrow1Lstart8);stroke:#ff0000;stroke-linecap:butt;stroke-miterlimit:4;stroke-dasharray:none;stroke-width:0.56250000000000000;fill:#ff0000" />
    <path
       inkscape:connector-curvature="0"
       id="path3830-8"
       d="m 415,347.36218 c 15,15 15,15 15,15"
       style="stroke-linejoin:miter;stroke-opacity:1;marker-start:url(#Arrow1Lstarty);stroke:#ff0000;stroke-linecap:butt;stroke-miterlimit:4;stroke-dasharray:none;stroke-width:0.56250000000000000;fill:#ff0000" />
    <path
       inkscape:connector-curvature="0"
       id="path3834-0"
       d="m 410,382.36218 c 20,-20 20,-20 20,-20"
       style="stroke-linejoin:miter;stroke-opacity:1;marker-start:url(#Arrow1LstartD);stroke:#ff0000;stroke-linecap:butt;stroke-miterlimit:4;stroke-dasharray:none;stroke-width:0.56250000000000000;fill:#ff0000" />
    <path
       inkscape:connector-curvature="0"
       id="path3836-9"
       d="m 445,377.36218 c -15,-15 -15,-15 -15,-15"
       style="stroke-linejoin:miter;stroke-opacity:1;marker-start:url(#Arrow1Lstartb);stroke:#ff0000;stroke-linecap:butt;stroke-miterlimit:4;stroke-dasharray:none;stroke-width:0.56250000000000000;fill:#ff0000" />
    <path
       inkscape:connector-curvature="0"
       id="path4062"
       d="m 430,362.36218 20,-20"
       style="stroke-linejoin:miter;marker-end:url(#Arrow1LendqC);stroke-opacity:1;fill-opacity:1;stroke:#ff0000;stroke-linecap:butt;stroke-miterlimit:4;stroke-dasharray:none;stroke-width:0;fill:#ff0000" />
    <path
       inkscape:connector-curvature="0"
       id="path3822-3"
       d="m 430,337.36218 c 0,25 0,25 0,25"
       style="stroke-linejoin:miter;stroke-opacity:1;marker-start:url(#Arrow1LstartJ);stroke:#ff0000;stroke-linecap:butt;stroke-miterlimit:4;stroke-dasharray:none;stroke-width:0.56250000000000000;fill:#ff0000" />
    <g
       id="g5120"
       transform="matrix(0.31888892,0,0,0.31726876,157.50165,242.05228)">
      <g
         word-spacing="normal"
         letter-spacing="normal"
         font-size-adjust="none"
         font-stretch="normal"
         font-weight="normal"
         font-variant="normal"
         font-style="normal"
         stroke-miterlimit="10.433"
         xml:space="preserve"
         transform="matrix(1.0629921,0,0,-1.0629921,-186.02362,789.27165)"
         id="content"
         style="font-style:normal;font-variant:normal;font-weight:normal;font-stretch:normal;letter-spacing:normal;word-spacing:normal;text-anchor:start;fill:none;stroke:#000000;stroke-linecap:butt;stroke-linejoin:miter;stroke-miterlimit:10.43299961;stroke-opacity:1;stroke-dasharray:none;stroke-dashoffset:0"><path
           id="path5123"
           d="m 477.19,424.98 -0.11,-0.02 -0.11,-0.01 -0.11,-0.02 -0.11,-0.03 -0.1,-0.02 -0.09,-0.03 -0.1,-0.03 -0.09,-0.03 -0.09,-0.03 -0.08,-0.03 -0.08,-0.04 -0.08,-0.04 -0.08,-0.04 -0.07,-0.04 -0.07,-0.04 -0.07,-0.04 -0.06,-0.05 -0.06,-0.04 -0.06,-0.05 -0.06,-0.05 -0.05,-0.05 -0.05,-0.05 -0.1,-0.1 -0.08,-0.1 -0.08,-0.1 -0.07,-0.11 -0.06,-0.1 -0.06,-0.11 -0.04,-0.1 -0.05,-0.1 -0.03,-0.1 -0.03,-0.1 -0.03,-0.09 -0.02,-0.09 -0.01,-0.08 -0.02,-0.07 -0.01,-0.07 0,-0.06 -0.01,-0.06 0,-0.04 0,-0.04 0,-0.01 0,-0.01 0,-0.01 0,-0.01 c 0,-0.79 0.54,-1.59 1.68,-1.59 1.35,0 2.55,1.09 2.55,2.98 0,2.44 -2.14,4.28 -5.34,4.28 -6.17,0 -12.6,-7.06 -12.6,-14.34 0,-4.94 2.94,-8.22 7.32,-8.22 6.39,0 10.51,4.99 10.51,5.74 0,0.25 -0.39,0.79 -0.79,0.79 -0.21,0 -0.25,-0.06 -0.65,-0.54 -3.68,-4.69 -8.12,-4.89 -8.96,-4.89 -2.69,0 -3.94,2.25 -3.94,5.12 0,2.64 1.34,7.88 2.64,10.27 1.8,3.25 4.28,4.98 6.53,4.98 0.55,0 2.78,-0.09 3.53,-2.14 z"
           inkscape:connector-curvature="0"
           style="fill:#000000;stroke-width:0" /><path
           id="path5125"
           d="m 501.28,420.04 -0.01,0.44 -0.03,0.43 -0.04,0.43 -0.06,0.41 -0.07,0.41 -0.09,0.4 -0.11,0.38 -0.12,0.38 -0.14,0.36 -0.15,0.36 -0.16,0.34 -0.18,0.33 -0.19,0.32 -0.21,0.3 -0.22,0.3 -0.23,0.27 -0.25,0.27 -0.26,0.25 -0.27,0.24 -0.28,0.22 -0.3,0.2 -0.3,0.19 -0.32,0.18 -0.32,0.15 -0.34,0.14 -0.35,0.13 -0.36,0.1 -0.36,0.09 -0.38,0.07 -0.39,0.05 -0.39,0.02 -0.4,0.01 c -6.18,0 -12.6,-7.06 -12.6,-14.34 0,-5.12 3.14,-8.22 7.27,-8.22 v 1.1 c -1.94,0 -3.78,1.54 -3.78,5.12 0,2.5 1.29,8.03 2.89,10.72 1.84,3.05 4.23,4.53 6.17,4.53 2.45,0 3.84,-2.19 3.84,-5.12 0,-2.14 -1.09,-7.29 -2.68,-10.27 -1.46,-2.73 -3.99,-4.98 -6.44,-4.98 h 0 v -1.1 c 6.19,0 12.61,7.08 12.61,14.39 z"
           inkscape:connector-curvature="0"
           style="fill:#000000;stroke-width:0" /><path
           id="path5127"
           d="m 516.45,439.53 0,0.01 0.01,0.02 0,0.02 0.01,0.02 0,0.02 0.01,0.02 0.01,0.02 0,0.02 0.01,0.02 0.01,0.03 0.01,0.04 0.01,0.05 0.01,0.05 0.02,0.05 0,0.03 0.01,0.02 0,0.02 0.01,0.02 0,0.03 0.01,0.02 0,0.02 0,0.02 0.01,0.01 0,0.02 0,0.02 0,0.01 0,0.01 0,0.01 c 0,0.44 -0.29,0.6 -0.7,0.6 -0.15,0 -0.64,-0.05 -0.8,-0.11 l -4.93,-0.39 c -0.6,-0.05 -1.14,-0.1 -1.14,-1.05 0,-0.55 0.5,-0.55 1.2,-0.55 2.39,0 2.49,-0.34 2.49,-0.84 0,-0.16 -0.16,-0.8 -0.16,-0.84 l -6.22,-24.93 c -0.05,-0.2 -0.3,-1.18 -0.3,-1.93 0,-2.64 1.8,-4.49 4.19,-4.49 1.89,0 2.89,1.35 3.53,2.6 0.84,1.73 1.55,4.92 1.55,5.07 0,0.5 -0.41,0.5 -0.75,0.5 -0.25,0 -0.55,0 -0.71,-0.25 l -0.34,-1.25 c -0.84,-3.48 -1.8,-5.57 -3.19,-5.57 -1.29,0 -1.29,1.34 -1.29,2.04 0,0.35 0,1.1 0.29,2.28 z"
           inkscape:connector-curvature="0"
           style="fill:#000000;stroke-width:0" /><path
           id="path5129"
           d="m 531.69,439.53 0,0.01 0.01,0.02 0,0.02 0.01,0.02 0,0.02 0.01,0.02 0.01,0.02 0,0.02 0.01,0.02 0,0.03 0.02,0.04 0.01,0.05 0.01,0.05 0.02,0.05 0,0.03 0.01,0.02 0,0.02 0.01,0.02 0,0.03 0.01,0.02 0,0.02 0,0.02 0.01,0.01 0,0.02 0,0.02 0,0.01 0,0.01 0,0.01 c 0,0.44 -0.29,0.6 -0.7,0.6 -0.16,0 -0.64,-0.05 -0.8,-0.11 l -4.93,-0.39 c -0.6,-0.05 -1.14,-0.1 -1.14,-1.05 0,-0.55 0.5,-0.55 1.2,-0.55 2.39,0 2.48,-0.34 2.48,-0.84 0,-0.16 -0.15,-0.8 -0.15,-0.84 l -6.22,-24.93 c -0.05,-0.2 -0.3,-1.18 -0.3,-1.93 0,-2.64 1.8,-4.49 4.19,-4.49 1.89,0 2.89,1.35 3.53,2.6 0.84,1.73 1.55,4.92 1.55,5.07 0,0.5 -0.41,0.5 -0.75,0.5 -0.25,0 -0.55,0 -0.71,-0.25 l -0.34,-1.25 c -0.84,-3.48 -1.8,-5.57 -3.19,-5.57 -1.29,0 -1.29,1.34 -1.29,2.04 0,0.35 0,1.1 0.29,2.28 z"
           inkscape:connector-curvature="0"
           style="fill:#000000;stroke-width:0" /><path
           id="path5131"
           d="m 545.8,413.32 0,0.03 0,0.02 -0.01,0.02 0,0.02 0,0.02 0,0.02 -0.01,0.02 0,0.02 0,0.02 -0.01,0.01 -0.01,0.02 0,0.02 -0.01,0.01 0,0.02 -0.01,0.01 -0.01,0.01 -0.01,0.02 -0.01,0.01 -0.01,0.02 -0.02,0.02 -0.02,0.02 -0.03,0.02 -0.02,0.02 -0.03,0.01 -0.02,0.01 -0.03,0.01 -0.03,0.01 -0.02,0.01 -0.03,0.01 -0.03,0 -0.04,0.01 -0.03,0 -0.03,0.01 -0.03,0 -0.03,0 -0.07,0 -0.06,0 -0.07,0 c -0.65,0 -0.65,-0.11 -0.86,-0.84 -0.39,-1.45 -1.73,-6.23 -4.62,-6.23 -0.41,0 -1.1,0.04 -1.1,1.39 0,1.29 0.64,2.93 1.3,4.78 l 3.19,8.53 c 0.5,1.44 0.59,1.84 0.59,2.78 0,2.75 -1.89,3.98 -3.73,3.98 -4.69,0 -6.38,-7.42 -6.38,-7.67 0,-0.5 0.5,-0.5 0.74,-0.5 0.65,0 0.7,0.11 0.9,0.8 0.46,1.66 1.74,6.28 4.63,6.28 0.55,0 1.11,-0.25 1.11,-1.39 0,-1.2 -0.56,-2.64 -0.91,-3.59 l -1.48,-4.13 c -0.66,-1.65 -1.25,-3.3 -1.85,-4.94 -0.7,-1.89 -0.9,-2.43 -0.9,-3.43 0,-1.94 1.2,-3.99 3.78,-3.99 4.69,0 6.33,7.47 6.33,7.67 z"
           inkscape:connector-curvature="0"
           style="fill:#000000;stroke-width:0" /><path
           id="path5133"
           d="m 545.55,437.23 0,0.06 -0.01,0.05 0,0.06 0,0.05 -0.01,0.06 -0.01,0.05 -0.02,0.1 -0.02,0.1 -0.03,0.09 -0.03,0.08 -0.04,0.09 -0.04,0.07 -0.04,0.08 -0.05,0.07 -0.05,0.06 -0.06,0.07 -0.05,0.05 -0.06,0.06 -0.06,0.05 -0.07,0.04 -0.06,0.05 -0.07,0.04 -0.07,0.03 -0.07,0.04 -0.07,0.02 -0.07,0.03 -0.07,0.02 -0.07,0.02 -0.07,0.02 -0.08,0.02 -0.07,0.01 -0.07,0.01 -0.07,0 -0.06,0.01 -0.07,0 c -1.05,0 -2.39,-1 -2.39,-2.39 0,-1.25 1,-1.66 1.69,-1.66 1,0 2.39,0.95 2.39,2.39 z"
           inkscape:connector-curvature="0"
           style="fill:#000000;stroke-width:0" /><path
           id="path5135"
           d="m 556.86,416.01 0.41,-0.09 0.41,-0.1 0.4,-0.1 0.2,-0.06 0.2,-0.06 0.19,-0.06 0.19,-0.06 0.18,-0.07 0.18,-0.08 0.18,-0.07 0.17,-0.09 0.17,-0.09 0.15,-0.09 0.16,-0.1 0.14,-0.11 0.14,-0.12 0.13,-0.12 0.13,-0.13 0.11,-0.14 0.11,-0.15 0.09,-0.16 0.09,-0.16 0.07,-0.18 0.07,-0.19 0.05,-0.2 0.05,-0.21 0.03,-0.22 0.01,-0.11 0.01,-0.12 0,-0.12 0,-0.13 c 0,-1.59 -1.34,-5.57 -6.46,-5.57 -1.1,0 -3.99,0.25 -4.79,2.79 2.54,0.25 2.54,2.33 2.54,2.44 0,0.94 -0.64,1.59 -1.69,1.59 -1.14,0 -2.55,-0.84 -2.55,-3.09 0,-3.03 2.89,-4.83 6.44,-4.83 7.47,0 9.36,6.08 9.36,8.38 0,4.33 -3.89,5.22 -5.92,5.67 -1.41,0.3 -3.19,0.7 -3.19,2.84 0,1.19 1.05,4.58 5.03,4.58 1.35,0 3.19,-0.5 3.73,-2.44 -1.59,-0.2 -2,-1.54 -2,-2.04 0,-0.55 0.3,-1.39 1.5,-1.39 0.85,0 2.15,0.59 2.15,2.73 0,2.3 -2.05,4.23 -5.33,4.23 -5.83,0 -7.88,-4.78 -7.88,-7.37 0,-3.83 3.24,-4.53 4.64,-4.83 z"
           inkscape:connector-curvature="0"
           style="fill:#000000;stroke-width:0" /><path
           id="path5137"
           d="m 581.43,413.32 0,0.03 0,0.02 0,0.02 0,0.02 0,0.02 -0.01,0.02 0,0.02 0,0.02 -0.01,0.02 0,0.01 -0.01,0.02 0,0.02 -0.01,0.01 -0.01,0.02 0,0.01 -0.01,0.01 -0.01,0.02 -0.01,0.01 -0.02,0.02 -0.02,0.02 -0.02,0.02 -0.02,0.02 -0.02,0.02 -0.03,0.01 -0.02,0.01 -0.03,0.01 -0.03,0.01 -0.03,0.01 -0.03,0.01 -0.03,0 -0.03,0.01 -0.03,0 -0.03,0.01 -0.03,0 -0.04,0 -0.06,0 -0.07,0 -0.06,0 c -0.66,0 -0.66,-0.11 -0.86,-0.84 -0.39,-1.45 -1.74,-6.23 -4.62,-6.23 -0.41,0 -1.1,0.04 -1.1,1.39 0,1.29 0.64,2.93 1.3,4.78 l 3.18,8.53 c 0.5,1.44 0.6,1.84 0.6,2.78 0,2.75 -1.89,3.98 -3.73,3.98 -4.69,0 -6.38,-7.42 -6.38,-7.67 0,-0.5 0.5,-0.5 0.73,-0.5 0.66,0 0.71,0.11 0.91,0.8 0.45,1.66 1.74,6.28 4.62,6.28 0.55,0 1.12,-0.25 1.12,-1.39 0,-1.2 -0.57,-2.64 -0.91,-3.59 l -1.49,-4.13 c -0.65,-1.65 -1.25,-3.3 -1.84,-4.94 -0.7,-1.89 -0.91,-2.43 -0.91,-3.43 0,-1.94 1.21,-3.99 3.78,-3.99 4.69,0 6.33,7.47 6.33,7.67 z"
           inkscape:connector-curvature="0"
           style="fill:#000000;stroke-width:0" /><path
           id="path5139"
           d="m 581.18,437.23 0,0.06 0,0.05 0,0.06 -0.01,0.05 0,0.06 -0.01,0.05 -0.02,0.1 -0.02,0.1 -0.03,0.09 -0.03,0.08 -0.04,0.09 -0.04,0.07 -0.05,0.08 -0.04,0.07 -0.05,0.06 -0.06,0.07 -0.06,0.05 -0.05,0.06 -0.07,0.05 -0.06,0.04 -0.07,0.05 -0.06,0.04 -0.07,0.03 -0.07,0.04 -0.07,0.02 -0.07,0.03 -0.07,0.02 -0.08,0.02 -0.07,0.02 -0.07,0.02 -0.07,0.01 -0.07,0.01 -0.07,0 -0.07,0.01 -0.06,0 c -1.05,0 -2.4,-1 -2.4,-2.39 0,-1.25 1,-1.66 1.69,-1.66 1,0 2.39,0.95 2.39,2.39 z"
           inkscape:connector-curvature="0"
           style="fill:#000000;stroke-width:0" /><path
           id="path5141"
           d="m 605.55,420.04 -0.01,0.44 -0.03,0.43 -0.04,0.43 -0.06,0.41 -0.07,0.41 -0.09,0.4 -0.11,0.38 -0.12,0.38 -0.14,0.36 -0.15,0.36 -0.16,0.34 -0.18,0.33 -0.19,0.32 -0.21,0.3 -0.22,0.3 -0.23,0.27 -0.25,0.27 -0.26,0.25 -0.27,0.24 -0.28,0.22 -0.3,0.2 -0.3,0.19 -0.32,0.18 -0.32,0.15 -0.34,0.14 -0.35,0.13 -0.36,0.1 -0.36,0.09 -0.38,0.07 -0.39,0.05 -0.39,0.02 -0.4,0.01 c -6.18,0 -12.6,-7.06 -12.6,-14.34 0,-5.12 3.14,-8.22 7.27,-8.22 v 1.1 c -1.94,0 -3.78,1.54 -3.78,5.12 0,2.5 1.29,8.03 2.89,10.72 1.84,3.05 4.23,4.53 6.17,4.53 2.45,0 3.84,-2.19 3.84,-5.12 0,-2.14 -1.09,-7.29 -2.68,-10.27 -1.46,-2.73 -3.99,-4.98 -6.44,-4.98 h 0 v -1.1 c 6.18,0 12.61,7.08 12.61,14.39 z"
           inkscape:connector-curvature="0"
           style="fill:#000000;stroke-width:0" /><path
           id="path5143"
           d="m 617.08,414.92 0.09,0.41 0.1,0.4 0.1,0.4 0.11,0.41 0.1,0.4 0.1,0.4 0.1,0.4 0.1,0.41 c 0.65,2.55 0.65,2.6 1.5,4.05 0.7,1.19 2.93,4.92 6.73,4.92 2.19,0 2.28,-2.23 2.28,-3.28 0,-3.09 -2.19,-9.02 -2.89,-11.02 -0.64,-1.68 -0.8,-2.14 -0.8,-3.18 0,-2.19 1.41,-3.99 3.8,-3.99 4.62,0 6.33,7.42 6.33,7.67 0,0.5 -0.41,0.5 -0.75,0.5 -0.66,0 -0.66,-0.11 -0.86,-0.84 -0.39,-1.34 -1.74,-6.23 -4.63,-6.23 -1.04,0 -1.09,0.75 -1.09,1.45 0,1.23 0.5,2.53 0.89,3.73 1,2.64 3.05,8.22 3.05,11.11 0,4.08 -2.75,5.17 -5.19,5.17 -4.08,0 -6.47,-2.98 -7.13,-3.93 -0.34,2.45 -2.04,3.93 -4.18,3.93 -1.8,0 -2.78,-1.14 -3.58,-2.64 -0.95,-1.98 -1.59,-4.92 -1.59,-5.03 0,-0.5 0.5,-0.5 0.73,-0.5 0.66,0 0.7,0.07 0.95,1.16 0.89,3.48 1.85,5.92 3.39,5.92 1.3,0 1.3,-1.44 1.3,-1.98 0,-0.8 -0.16,-1.75 -0.36,-2.55 l -3.73,-14.95 c -0.1,-0.3 -0.14,-0.55 -0.14,-0.69 0,-0.55 0.39,-1.3 1.39,-1.3 0.59,0 1.45,0.35 1.79,1.3 z"
           inkscape:connector-curvature="0"
           style="fill:#000000;stroke-width:0" /></g>    </g>
    <g
       id="g5390"
       transform="matrix(0.30164053,0,0,0.34204712,340.07382,210.06128)">
      <g
         id="g5392"
         transform="matrix(1.0629921,0,0,-1.0629921,-186.02362,789.27165)"
         xml:space="preserve"
         stroke-miterlimit="10.433"
         font-style="normal"
         font-variant="normal"
         font-weight="normal"
         font-stretch="normal"
         font-size-adjust="none"
         letter-spacing="normal"
         word-spacing="normal"
         style="font-style:normal;font-variant:normal;font-weight:normal;font-stretch:normal;letter-spacing:normal;word-spacing:normal;text-anchor:start;fill:none;stroke:#000000;stroke-linecap:butt;stroke-linejoin:miter;stroke-miterlimit:10.43299961;stroke-opacity:1;stroke-dasharray:none;stroke-dashoffset:0"><path
           d="m 457.16,397.57 -0.01,-0.02 0,-0.03 -0.01,-0.03 0,-0.02 -0.01,-0.03 -0.01,-0.02 0,-0.02 -0.01,-0.03 0,-0.02 -0.01,-0.02 0,-0.02 0,-0.02 -0.01,-0.02 0,-0.02 -0.01,-0.04 -0.01,-0.03 0,-0.03 -0.01,-0.03 -0.01,-0.03 0,-0.03 -0.01,-0.02 0,-0.02 0,-0.03 -0.01,-0.02 0,-0.02 0,-0.01 0,-0.02 0,-0.01 -0.01,-0.02 0,-0.01 0,-0.02 0,-0.01 0,-0.01 0,-0.02 0,-0.02 0,-0.02 c 0,-0.74 0.55,-1.35 1.39,-1.35 1.05,0 1.64,0.91 1.75,1.05 0.23,0.45 1.84,7.13 3.19,12.52 0.98,-2 2.58,-3.35 4.92,-3.35 l -0.05,1.1 c -3.48,0 -4.28,3.98 -4.28,4.43 0,0.21 0.25,1.19 0.39,1.85 1.41,5.58 1.91,7.37 3,9.36 2.14,3.64 4.63,4.73 6.17,4.73 1.85,0 3.44,-1.44 3.44,-4.87 0,-2.75 -1.44,-8.33 -2.78,-10.77 -1.66,-3.14 -4.05,-4.73 -5.94,-4.73 h 0 l 0.05,-1.1 c 5.83,0 12.27,7.03 12.27,14.46 0,5.28 -3.3,8.1 -6.94,8.1 -4.83,0 -10.06,-4.98 -11.55,-11.06 z"
           id="path5394"
           inkscape:connector-curvature="0"
           style="fill:#000000;stroke-width:0" /><path
           d="m 491.43,406.25 -0.01,0.3 -0.01,0.3 -0.02,0.29 -0.02,0.28 -0.03,0.27 -0.04,0.26 -0.05,0.26 -0.05,0.24 -0.06,0.24 -0.06,0.23 -0.07,0.22 -0.08,0.21 -0.08,0.2 -0.09,0.19 -0.09,0.19 -0.11,0.17 -0.1,0.16 -0.11,0.16 -0.12,0.14 -0.13,0.13 -0.12,0.13 -0.14,0.11 -0.14,0.1 -0.14,0.1 -0.15,0.08 -0.15,0.07 -0.16,0.06 -0.16,0.05 -0.17,0.04 -0.17,0.03 -0.18,0.01 -0.18,0.01 c -1.64,0 -2.64,-1.25 -2.64,-2.64 0,-1.34 1,-2.64 2.64,-2.64 0.59,0 1.25,0.2 1.75,0.64 0.14,0.11 0.2,0.16 0.25,0.16 0.05,0 0.09,-0.05 0.09,-0.75 0,-3.69 -1.73,-6.68 -3.39,-8.32 -0.55,-0.54 -0.55,-0.65 -0.55,-0.79 0,-0.36 0.25,-0.55 0.5,-0.55 0.55,0 4.54,3.83 4.54,9.66 z"
           id="path5396"
           inkscape:connector-curvature="0"
           style="fill:#000000;stroke-width:0" /><path
           d="m 536.23,439.13 0.16,0 0.15,0 0.16,0.01 0.08,0 0.08,0.01 0.07,0.01 0.08,0 0.07,0.01 0.07,0.02 0.07,0.01 0.07,0.02 0.06,0.02 0.07,0.02 0.06,0.02 0.06,0.03 0.05,0.03 0.06,0.04 0.04,0.04 0.05,0.04 0.04,0.04 0.04,0.05 0.02,0.03 0.02,0.03 0.01,0.03 0.02,0.03 0.01,0.03 0.01,0.03 0.02,0.04 0.01,0.03 0.01,0.04 0,0.04 0.01,0.04 0.01,0.04 0,0.04 0,0.04 0.01,0.05 0,0.04 c 0,1 -0.91,1 -1.75,1 h -26.96 c -0.84,0 -1.73,0 -1.73,-1 0,-1 0.89,-1 1.73,-1 z"
           id="path5398"
           inkscape:connector-curvature="0"
           style="fill:#000000;stroke-width:0" /><path
           d="m 544.95,439.13 -0.26,-0.19 -0.24,-0.2 -0.24,-0.19 -0.23,-0.2 -0.22,-0.19 -0.21,-0.19 -0.2,-0.19 -0.2,-0.19 -0.19,-0.18 -0.18,-0.18 -0.18,-0.18 -0.17,-0.18 -0.16,-0.17 -0.15,-0.17 -0.15,-0.17 -0.14,-0.16 -0.13,-0.15 -0.13,-0.16 -0.12,-0.15 -0.11,-0.14 -0.11,-0.14 -0.1,-0.13 -0.09,-0.13 -0.09,-0.12 -0.08,-0.11 -0.08,-0.11 -0.07,-0.1 -0.06,-0.1 -0.06,-0.09 -0.05,-0.08 -0.05,-0.07 -0.04,-0.07 c -2.23,-3.44 -2.64,-6.58 -2.64,-6.62 0,-0.6 0.61,-0.6 1,-0.6 0.84,0 0.89,0.1 1.09,1 1.16,4.88 4.1,9.07 9.72,11.36 0.6,0.19 0.75,0.3 0.75,0.64 0,0.35 -0.29,0.5 -0.4,0.55 -2.19,0.84 -8.22,3.34 -10.11,11.72 -0.16,0.59 -0.21,0.73 -1.05,0.73 -0.39,0 -1,0 -1,-0.59 0,-0.09 0.45,-3.24 2.55,-6.58 1,-1.48 2.43,-3.23 4.58,-4.83 h -37.02 c -0.89,0 -1.8,0 -1.8,-1 0,-1 0.91,-1 1.8,-1 z"
           id="path5400"
           inkscape:connector-curvature="0"
           style="fill:#000000;stroke-width:0" /><path
           d="m 541.52,424.93 0,0.17 0,0.16 -0.01,0.16 -0.02,0.16 -0.01,0.15 -0.02,0.16 -0.02,0.15 -0.03,0.14 -0.03,0.15 -0.04,0.14 -0.04,0.14 -0.04,0.13 -0.05,0.13 -0.05,0.13 -0.06,0.12 -0.06,0.11 -0.06,0.11 -0.07,0.11 -0.07,0.09 -0.08,0.1 -0.08,0.09 -0.08,0.08 -0.1,0.07 -0.09,0.07 -0.1,0.06 -0.1,0.05 -0.11,0.05 -0.12,0.04 -0.12,0.03 -0.12,0.02 -0.13,0.01 -0.13,0 c -1.14,0 -2.39,-1.14 -2.39,-2.28 0,-0.65 0.36,-1 0.65,-1.34 1.19,-1.3 1.35,-2.89 1.35,-3.94 0,-1.4 -2.35,-13.9 -8.08,-13.9 -2.69,0 -3.24,2.5 -3.24,4.14 0,2.89 1.6,7.22 2.94,10.81 0.25,0.8 0.55,1.53 0.55,2.48 0,2.5 -1.64,4.03 -3.78,4.03 -4.64,0 -6.38,-7.37 -6.38,-7.67 0,-0.5 0.5,-0.5 0.74,-0.5 0.65,0 0.7,0.11 0.9,0.8 0.39,1.55 1.74,6.28 4.63,6.28 0.54,0 1.11,-0.14 1.11,-1.44 0,-1.2 -0.5,-2.54 -1.21,-4.48 -1.54,-4.24 -2.54,-7.24 -2.54,-9.56 0,-4.55 3.18,-5.99 6.14,-5.99 8.36,0 10.65,17.99 10.65,19.28 z"
           id="path5402"
           inkscape:connector-curvature="0"
           style="fill:#000000;stroke-width:0" /></g>    </g>
    <g
       id="g5644"
       transform="matrix(0.29501052,0,0,0.3313196,57.161699,213.7997)">
      <g
         word-spacing="normal"
         letter-spacing="normal"
         font-size-adjust="none"
         font-stretch="normal"
         font-weight="normal"
         font-variant="normal"
         font-style="normal"
         stroke-miterlimit="10.433"
         xml:space="preserve"
         transform="matrix(1.0629921,0,0,-1.0629921,-186.02362,789.27165)"
         id="g5646"
         style="font-style:normal;font-variant:normal;font-weight:normal;font-stretch:normal;letter-spacing:normal;word-spacing:normal;text-anchor:start;fill:none;stroke:#000000;stroke-linecap:butt;stroke-linejoin:miter;stroke-miterlimit:10.43299961;stroke-opacity:1;stroke-dasharray:none;stroke-dashoffset:0"><path
           id="path5648"
           d="m 457.16,397.57 -0.01,-0.02 0,-0.03 -0.01,-0.03 0,-0.02 -0.01,-0.03 -0.01,-0.02 0,-0.02 -0.01,-0.03 0,-0.02 -0.01,-0.02 0,-0.02 0,-0.02 -0.01,-0.02 0,-0.02 -0.01,-0.04 -0.01,-0.03 0,-0.03 -0.01,-0.03 -0.01,-0.03 0,-0.03 -0.01,-0.02 0,-0.02 0,-0.03 -0.01,-0.02 0,-0.02 0,-0.01 0,-0.02 0,-0.01 -0.01,-0.02 0,-0.01 0,-0.02 0,-0.01 0,-0.01 0,-0.02 0,-0.02 0,-0.02 c 0,-0.74 0.55,-1.35 1.39,-1.35 1.05,0 1.64,0.91 1.75,1.05 0.23,0.45 1.84,7.13 3.19,12.52 0.98,-2 2.58,-3.35 4.92,-3.35 l -0.05,1.1 c -3.48,0 -4.28,3.98 -4.28,4.43 0,0.21 0.25,1.19 0.39,1.85 1.41,5.58 1.91,7.37 3,9.36 2.14,3.64 4.63,4.73 6.17,4.73 1.85,0 3.44,-1.44 3.44,-4.87 0,-2.75 -1.44,-8.33 -2.78,-10.77 -1.66,-3.14 -4.05,-4.73 -5.94,-4.73 h 0 l 0.05,-1.1 c 5.83,0 12.27,7.03 12.27,14.46 0,5.28 -3.3,8.1 -6.94,8.1 -4.83,0 -10.06,-4.98 -11.55,-11.06 z"
           inkscape:connector-curvature="0"
           style="fill:#000000;stroke-width:0" /><path
           id="path5650"
           d="m 491.43,406.25 -0.01,0.3 -0.01,0.3 -0.02,0.29 -0.02,0.28 -0.03,0.27 -0.04,0.26 -0.05,0.26 -0.05,0.24 -0.06,0.24 -0.06,0.23 -0.07,0.22 -0.08,0.21 -0.08,0.2 -0.09,0.19 -0.09,0.19 -0.11,0.17 -0.1,0.16 -0.11,0.16 -0.12,0.14 -0.13,0.13 -0.12,0.13 -0.14,0.11 -0.14,0.1 -0.14,0.1 -0.15,0.08 -0.15,0.07 -0.16,0.06 -0.16,0.05 -0.17,0.04 -0.17,0.03 -0.18,0.01 -0.18,0.01 c -1.64,0 -2.64,-1.25 -2.64,-2.64 0,-1.34 1,-2.64 2.64,-2.64 0.59,0 1.25,0.2 1.75,0.64 0.14,0.11 0.2,0.16 0.25,0.16 0.05,0 0.09,-0.05 0.09,-0.75 0,-3.69 -1.73,-6.68 -3.39,-8.32 -0.55,-0.54 -0.55,-0.65 -0.55,-0.79 0,-0.36 0.25,-0.55 0.5,-0.55 0.55,0 4.54,3.83 4.54,9.66 z"
           inkscape:connector-curvature="0"
           style="fill:#000000;stroke-width:0" /><path
           id="path5652"
           d="m 536.23,439.13 0.16,0 0.15,0 0.16,0.01 0.08,0 0.08,0.01 0.07,0.01 0.08,0 0.07,0.01 0.07,0.02 0.07,0.01 0.07,0.02 0.06,0.02 0.07,0.02 0.06,0.02 0.06,0.03 0.05,0.03 0.06,0.04 0.04,0.04 0.05,0.04 0.04,0.04 0.04,0.05 0.02,0.03 0.02,0.03 0.01,0.03 0.02,0.03 0.01,0.03 0.01,0.03 0.02,0.04 0.01,0.03 0.01,0.04 0,0.04 0.01,0.04 0.01,0.04 0,0.04 0,0.04 0.01,0.05 0,0.04 c 0,1 -0.91,1 -1.75,1 h -26.96 c -0.84,0 -1.73,0 -1.73,-1 0,-1 0.89,-1 1.73,-1 z"
           inkscape:connector-curvature="0"
           style="fill:#000000;stroke-width:0" /><path
           id="path5654"
           d="m 544.95,439.13 -0.26,-0.19 -0.24,-0.2 -0.24,-0.19 -0.23,-0.2 -0.22,-0.19 -0.21,-0.19 -0.2,-0.19 -0.2,-0.19 -0.19,-0.18 -0.18,-0.18 -0.18,-0.18 -0.17,-0.18 -0.16,-0.17 -0.15,-0.17 -0.15,-0.17 -0.14,-0.16 -0.13,-0.15 -0.13,-0.16 -0.12,-0.15 -0.11,-0.14 -0.11,-0.14 -0.1,-0.13 -0.09,-0.13 -0.09,-0.12 -0.08,-0.11 -0.08,-0.11 -0.07,-0.1 -0.06,-0.1 -0.06,-0.09 -0.05,-0.08 -0.05,-0.07 -0.04,-0.07 c -2.23,-3.44 -2.64,-6.58 -2.64,-6.62 0,-0.6 0.61,-0.6 1,-0.6 0.84,0 0.89,0.1 1.09,1 1.16,4.88 4.1,9.07 9.72,11.36 0.6,0.19 0.75,0.3 0.75,0.64 0,0.35 -0.29,0.5 -0.4,0.55 -2.19,0.84 -8.22,3.34 -10.11,11.72 -0.16,0.59 -0.21,0.73 -1.05,0.73 -0.39,0 -1,0 -1,-0.59 0,-0.09 0.45,-3.24 2.55,-6.58 1,-1.48 2.43,-3.23 4.58,-4.83 h -37.02 c -0.89,0 -1.8,0 -1.8,-1 0,-1 0.91,-1 1.8,-1 z"
           inkscape:connector-curvature="0"
           style="fill:#000000;stroke-width:0" /><path
           id="path5656"
           d="m 541.52,424.93 0,0.17 0,0.16 -0.01,0.16 -0.02,0.16 -0.01,0.15 -0.02,0.16 -0.02,0.15 -0.03,0.14 -0.03,0.15 -0.04,0.14 -0.04,0.14 -0.04,0.13 -0.05,0.13 -0.05,0.13 -0.06,0.12 -0.06,0.11 -0.06,0.11 -0.07,0.11 -0.07,0.09 -0.08,0.1 -0.08,0.09 -0.08,0.08 -0.1,0.07 -0.09,0.07 -0.1,0.06 -0.1,0.05 -0.11,0.05 -0.12,0.04 -0.12,0.03 -0.12,0.02 -0.13,0.01 -0.13,0 c -1.14,0 -2.39,-1.14 -2.39,-2.28 0,-0.65 0.36,-1 0.65,-1.34 1.19,-1.3 1.35,-2.89 1.35,-3.94 0,-1.4 -2.35,-13.9 -8.08,-13.9 -2.69,0 -3.24,2.5 -3.24,4.14 0,2.89 1.6,7.22 2.94,10.81 0.25,0.8 0.55,1.53 0.55,2.48 0,2.5 -1.64,4.03 -3.78,4.03 -4.64,0 -6.38,-7.37 -6.38,-7.67 0,-0.5 0.5,-0.5 0.74,-0.5 0.65,0 0.7,0.11 0.9,0.8 0.39,1.55 1.74,6.28 4.63,6.28 0.54,0 1.11,-0.14 1.11,-1.44 0,-1.2 -0.5,-2.54 -1.21,-4.48 -1.54,-4.24 -2.54,-7.24 -2.54,-9.56 0,-4.55 3.18,-5.99 6.14,-5.99 8.36,0 10.65,17.99 10.65,19.28 z"
           inkscape:connector-curvature="0"
           style="fill:#000000;stroke-width:0" /></g>    </g>
  </g>
</svg>
