<?xml version="1.0" encoding="UTF-8" standalone="no"?>
<!-- Created with Inkscape (http://www.inkscape.org/) -->

<svg
   xmlns:dc="http://purl.org/dc/elements/1.1/"
   xmlns:cc="http://creativecommons.org/ns#"
   xmlns:rdf="http://www.w3.org/1999/02/22-rdf-syntax-ns#"
   xmlns:svg="http://www.w3.org/2000/svg"
   xmlns="http://www.w3.org/2000/svg"
   xmlns:sodipodi="http://sodipodi.sourceforge.net/DTD/sodipodi-0.dtd"
   xmlns:inkscape="http://www.inkscape.org/namespaces/inkscape"
   width="744.09448819"
   height="1052.3622047"
   id="svg2"
   version="1.1"
   inkscape:version="0.48.1 r9760"
   sodipodi:docname="MPMsteps.pdf">
  <defs
     id="defs4">
    <inkscape:path-effect
       effect="spiro"
       id="path-effect4519"
       is_visible="true" />
    <marker
       inkscape:stockid="Arrow1Lend"
       orient="auto"
       refY="0.0"
       refX="0.0"
       id="Arrow1Lend"
       style="overflow:visible;">
      <path
         id="path3824"
         d="M 0.0,0.0 L 5.0,-5.0 L -12.5,0.0 L 5.0,5.0 L 0.0,0.0 z "
         style="fill-rule:evenodd;stroke:#000000;stroke-width:1.0pt;marker-start:none;"
         transform="scale(0.8) rotate(180) translate(12.5,0)" />
    </marker>
    <marker
       inkscape:stockid="Arrow1Lend"
       orient="auto"
       refY="0"
       refX="0"
       id="Arrow1Lend-1"
       style="overflow:visible">
      <path
         inkscape:connector-curvature="0"
         id="path3824-5"
         d="M 0,0 5,-5 -12.5,0 5,5 0,0 z"
         style="fill-rule:evenodd;stroke:#000000;stroke-width:1pt;marker-start:none"
         transform="matrix(-0.8,0,0,-0.8,-10,0)" />
    </marker>
    <marker
       inkscape:stockid="Arrow1Lend"
       orient="auto"
       refY="0"
       refX="0"
       id="Arrow1Lend-6"
       style="overflow:visible">
      <path
         inkscape:connector-curvature="0"
         id="path3824-7"
         d="M 0,0 5,-5 -12.5,0 5,5 0,0 z"
         style="fill-rule:evenodd;stroke:#000000;stroke-width:1pt;marker-start:none"
         transform="matrix(-0.8,0,0,-0.8,-10,0)" />
    </marker>
    <marker
       inkscape:stockid="Arrow1Lend"
       orient="auto"
       refY="0"
       refX="0"
       id="Arrow1Lend-18"
       style="overflow:visible">
      <path
         inkscape:connector-curvature="0"
         id="path3824-0"
         d="M 0,0 5,-5 -12.5,0 5,5 0,0 z"
         style="fill-rule:evenodd;stroke:#000000;stroke-width:1pt;marker-start:none"
         transform="matrix(-0.8,0,0,-0.8,-10,0)" />
    </marker>
    <marker
       inkscape:stockid="Arrow1Lend"
       orient="auto"
       refY="0"
       refX="0"
       id="Arrow1Lend-3"
       style="overflow:visible">
      <path
         inkscape:connector-curvature="0"
         id="path3824-1"
         d="M 0,0 5,-5 -12.5,0 5,5 0,0 z"
         style="fill-rule:evenodd;stroke:#000000;stroke-width:1pt;marker-start:none"
         transform="matrix(-0.8,0,0,-0.8,-10,0)" />
    </marker>
    <marker
       inkscape:stockid="Arrow1Lend"
       orient="auto"
       refY="0"
       refX="0"
       id="marker4605"
       style="overflow:visible">
      <path
         inkscape:connector-curvature="0"
         id="path4607"
         d="M 0,0 5,-5 -12.5,0 5,5 0,0 z"
         style="fill-rule:evenodd;stroke:#000000;stroke-width:1pt;marker-start:none"
         transform="matrix(-0.8,0,0,-0.8,-10,0)" />
    </marker>
    <marker
       inkscape:stockid="Arrow1Lend"
       orient="auto"
       refY="0"
       refX="0"
       id="marker4609"
       style="overflow:visible">
      <path
         inkscape:connector-curvature="0"
         id="path4611"
         d="M 0,0 5,-5 -12.5,0 5,5 0,0 z"
         style="fill-rule:evenodd;stroke:#000000;stroke-width:1pt;marker-start:none"
         transform="matrix(-0.8,0,0,-0.8,-10,0)" />
    </marker>
    <marker
       inkscape:stockid="Arrow1Lend"
       orient="auto"
       refY="0"
       refX="0"
       id="marker4613"
       style="overflow:visible">
      <path
         inkscape:connector-curvature="0"
         id="path4615"
         d="M 0,0 5,-5 -12.5,0 5,5 0,0 z"
         style="fill-rule:evenodd;stroke:#000000;stroke-width:1pt;marker-start:none"
         transform="matrix(-0.8,0,0,-0.8,-10,0)" />
    </marker>
    <marker
       inkscape:stockid="Arrow1Lend"
       orient="auto"
       refY="0"
       refX="0"
       id="Arrow1Lend-0"
       style="overflow:visible">
      <path
         inkscape:connector-curvature="0"
         id="path3824-8"
         d="M 0,0 5,-5 -12.5,0 5,5 0,0 z"
         style="fill-rule:evenodd;stroke:#000000;stroke-width:1pt;marker-start:none"
         transform="matrix(-0.8,0,0,-0.8,-10,0)" />
    </marker>
    <marker
       inkscape:stockid="Arrow1Lend"
       orient="auto"
       refY="0"
       refX="0"
       id="marker4753"
       style="overflow:visible">
      <path
         inkscape:connector-curvature="0"
         id="path4755"
         d="M 0,0 5,-5 -12.5,0 5,5 0,0 z"
         style="fill-rule:evenodd;stroke:#000000;stroke-width:1pt;marker-start:none"
         transform="matrix(-0.8,0,0,-0.8,-10,0)" />
    </marker>
    <marker
       inkscape:stockid="Arrow1Lend"
       orient="auto"
       refY="0"
       refX="0"
       id="marker4757"
       style="overflow:visible">
      <path
         inkscape:connector-curvature="0"
         id="path4759"
         d="M 0,0 5,-5 -12.5,0 5,5 0,0 z"
         style="fill-rule:evenodd;stroke:#000000;stroke-width:1pt;marker-start:none"
         transform="matrix(-0.8,0,0,-0.8,-10,0)" />
    </marker>
    <marker
       inkscape:stockid="Arrow1Lend"
       orient="auto"
       refY="0"
       refX="0"
       id="marker4761"
       style="overflow:visible">
      <path
         inkscape:connector-curvature="0"
         id="path4763"
         d="M 0,0 5,-5 -12.5,0 5,5 0,0 z"
         style="fill-rule:evenodd;stroke:#000000;stroke-width:1pt;marker-start:none"
         transform="matrix(-0.8,0,0,-0.8,-10,0)" />
    </marker>
    <marker
       inkscape:stockid="Arrow1Lend"
       orient="auto"
       refY="0"
       refX="0"
       id="Arrow1Lend-5"
       style="overflow:visible">
      <path
         inkscape:connector-curvature="0"
         id="path3824-2"
         d="M 0,0 5,-5 -12.5,0 5,5 0,0 z"
         style="fill-rule:evenodd;stroke:#000000;stroke-width:1pt;marker-start:none"
         transform="matrix(-0.8,0,0,-0.8,-10,0)" />
    </marker>
    <marker
       inkscape:stockid="Arrow1Lend"
       orient="auto"
       refY="0"
       refX="0"
       id="marker4832"
       style="overflow:visible">
      <path
         inkscape:connector-curvature="0"
         id="path4834"
         d="M 0,0 5,-5 -12.5,0 5,5 0,0 z"
         style="fill-rule:evenodd;stroke:#000000;stroke-width:1pt;marker-start:none"
         transform="matrix(-0.8,0,0,-0.8,-10,0)" />
    </marker>
    <marker
       inkscape:stockid="Arrow1Lend"
       orient="auto"
       refY="0"
       refX="0"
       id="marker4836"
       style="overflow:visible">
      <path
         inkscape:connector-curvature="0"
         id="path4838"
         d="M 0,0 5,-5 -12.5,0 5,5 0,0 z"
         style="fill-rule:evenodd;stroke:#000000;stroke-width:1pt;marker-start:none"
         transform="matrix(-0.8,0,0,-0.8,-10,0)" />
    </marker>
    <marker
       inkscape:stockid="Arrow1Lend"
       orient="auto"
       refY="0"
       refX="0"
       id="marker4840"
       style="overflow:visible">
      <path
         inkscape:connector-curvature="0"
         id="path4842"
         d="M 0,0 5,-5 -12.5,0 5,5 0,0 z"
         style="fill-rule:evenodd;stroke:#000000;stroke-width:1pt;marker-start:none"
         transform="matrix(-0.8,0,0,-0.8,-10,0)" />
    </marker>
    <marker
       inkscape:stockid="Arrow1Lend"
       orient="auto"
       refY="0"
       refX="0"
       id="Arrow1Lend-4"
       style="overflow:visible">
      <path
         inkscape:connector-curvature="0"
         id="path3824-88"
         d="M 0,0 5,-5 -12.5,0 5,5 0,0 z"
         style="fill-rule:evenodd;stroke:#000000;stroke-width:1pt;marker-start:none"
         transform="matrix(-0.8,0,0,-0.8,-10,0)" />
    </marker>
    <marker
       inkscape:stockid="Arrow1Lend"
       orient="auto"
       refY="0"
       refX="0"
       id="marker4935"
       style="overflow:visible">
      <path
         inkscape:connector-curvature="0"
         id="path4937"
         d="M 0,0 5,-5 -12.5,0 5,5 0,0 z"
         style="fill-rule:evenodd;stroke:#000000;stroke-width:1pt;marker-start:none"
         transform="matrix(-0.8,0,0,-0.8,-10,0)" />
    </marker>
    <marker
       inkscape:stockid="Arrow1Lend"
       orient="auto"
       refY="0"
       refX="0"
       id="marker4939"
       style="overflow:visible">
      <path
         inkscape:connector-curvature="0"
         id="path4941"
         d="M 0,0 5,-5 -12.5,0 5,5 0,0 z"
         style="fill-rule:evenodd;stroke:#000000;stroke-width:1pt;marker-start:none"
         transform="matrix(-0.8,0,0,-0.8,-10,0)" />
    </marker>
    <marker
       inkscape:stockid="Arrow1Lend"
       orient="auto"
       refY="0"
       refX="0"
       id="marker4943"
       style="overflow:visible">
      <path
         inkscape:connector-curvature="0"
         id="path4945"
         d="M 0,0 5,-5 -12.5,0 5,5 0,0 z"
         style="fill-rule:evenodd;stroke:#000000;stroke-width:1pt;marker-start:none"
         transform="matrix(-0.8,0,0,-0.8,-10,0)" />
    </marker>
    <marker
       inkscape:stockid="Arrow1Lend"
       orient="auto"
       refY="0"
       refX="0"
       id="Arrow1Lend-43"
       style="overflow:visible">
      <path
         inkscape:connector-curvature="0"
         id="path3824-51"
         d="M 0,0 5,-5 -12.5,0 5,5 0,0 z"
         style="fill-rule:evenodd;stroke:#000000;stroke-width:1pt;marker-start:none"
         transform="matrix(-0.8,0,0,-0.8,-10,0)" />
    </marker>
    <marker
       inkscape:stockid="Arrow1Lend"
       orient="auto"
       refY="0"
       refX="0"
       id="marker5054"
       style="overflow:visible">
      <path
         inkscape:connector-curvature="0"
         id="path5056"
         d="M 0,0 5,-5 -12.5,0 5,5 0,0 z"
         style="fill-rule:evenodd;stroke:#000000;stroke-width:1pt;marker-start:none"
         transform="matrix(-0.8,0,0,-0.8,-10,0)" />
    </marker>
    <marker
       inkscape:stockid="Arrow1Lend"
       orient="auto"
       refY="0"
       refX="0"
       id="marker5058"
       style="overflow:visible">
      <path
         inkscape:connector-curvature="0"
         id="path5060"
         d="M 0,0 5,-5 -12.5,0 5,5 0,0 z"
         style="fill-rule:evenodd;stroke:#000000;stroke-width:1pt;marker-start:none"
         transform="matrix(-0.8,0,0,-0.8,-10,0)" />
    </marker>
    <marker
       inkscape:stockid="Arrow1Lend"
       orient="auto"
       refY="0"
       refX="0"
       id="marker5062"
       style="overflow:visible">
      <path
         inkscape:connector-curvature="0"
         id="path5064"
         d="M 0,0 5,-5 -12.5,0 5,5 0,0 z"
         style="fill-rule:evenodd;stroke:#000000;stroke-width:1pt;marker-start:none"
         transform="matrix(-0.8,0,0,-0.8,-10,0)" />
    </marker>
  </defs>
  <sodipodi:namedview
     id="base"
     pagecolor="#ffffff"
     bordercolor="#666666"
     borderopacity="1.0"
     inkscape:pageopacity="0.0"
     inkscape:pageshadow="2"
     inkscape:zoom="1.1245364"
     inkscape:cx="359.9361"
     inkscape:cy="537.63857"
     inkscape:document-units="px"
     inkscape:current-layer="layer1"
     showgrid="true"
     inkscape:window-width="2560"
     inkscape:window-height="1285"
     inkscape:window-x="0"
     inkscape:window-y="0"
     inkscape:window-maximized="1"
     inkscape:snap-grids="true"
     borderlayer="true">
    <inkscape:grid
       type="xygrid"
       id="grid4664"
       empspacing="2"
       visible="true"
       enabled="true"
       snapvisiblegridlinesonly="true"
       spacingx="0.1px"
       spacingy="0.1px"
       dotted="false" />
  </sodipodi:namedview>
  <metadata
     id="metadata7">
    <rdf:RDF>
      <cc:Work
         rdf:about="">
        <dc:format>image/svg+xml</dc:format>
        <dc:type
           rdf:resource="http://purl.org/dc/dcmitype/StillImage" />
        <dc:title></dc:title>
      </cc:Work>
    </rdf:RDF>
  </metadata>
  <g
     inkscape:groupmode="layer"
     id="layer2"
     inkscape:label="Layer">
    <path
       style="fill:none;stroke:#0000ff;stroke-width:4;stroke-linecap:butt;stroke-linejoin:miter;stroke-miterlimit:4;stroke-opacity:1;stroke-dasharray:none;display:inline"
       d="m 75.797113,703.90507 c 52.448087,9.83402 52.448087,9.83402 52.448087,9.83402 l 168.81728,11.47302 59.0041,-3.27801"
       id="path4915-3"
       inkscape:connector-curvature="0" />
    <path
       style="fill:none;stroke:#0000ff;stroke-width:4;stroke-linecap:butt;stroke-linejoin:miter;stroke-miterlimit:4;stroke-opacity:1;stroke-dasharray:none;display:inline"
       d="m 324.92553,676.04203 c -31.14106,49.17008 -31.14106,50.80908 -31.14106,50.80908 l 0,170.45629 -22.94603,37.69709"
       id="path4913-9"
       inkscape:connector-curvature="0" />
    <text
       xml:space="preserve"
       style="font-size:27.04952431px;font-style:normal;font-weight:normal;line-height:125%;letter-spacing:0px;word-spacing:0px;fill:#000000;fill-opacity:1;stroke:none;font-family:Sans"
       x="189.02702"
       y="964.90302"
       id="text5038"
       sodipodi:linespacing="125%"
       transform="scale(1.0157278,0.98451574)"><tspan
         sodipodi:role="line"
         id="tspan5040"
         x="189.02702"
         y="964.90302">(5)</tspan></text>
    <path
       transform="matrix(0.74193548,0,0,0.75,508.26857,694.35235)"
       sodipodi:type="arc"
       style="fill:#000000;fill-opacity:1;stroke-width:4.19999981;stroke-linecap:butt;stroke-miterlimit:4;stroke-dasharray:none;display:inline"
       id="path2985-1-8-9"
       sodipodi:cx="85.129456"
       sodipodi:cy="131.34259"
       sodipodi:rx="25.133457"
       sodipodi:ry="25.944214"
       d="m 110.26291,131.34259 a 25.133457,25.944214 0 1 1 -50.266912,0 25.133457,25.944214 0 1 1 50.266912,0 z" />
    <path
       transform="matrix(0.80645161,0,0,0.75,575.99969,636.93507)"
       sodipodi:type="arc"
       style="fill:#000000;fill-opacity:1;stroke-width:4.19999981;stroke-linecap:butt;stroke-miterlimit:4;stroke-dasharray:none;display:inline"
       id="path2985-7-3-5"
       sodipodi:cx="85.129456"
       sodipodi:cy="131.34259"
       sodipodi:rx="25.133457"
       sodipodi:ry="25.944214"
       d="m 110.26291,131.34259 a 25.133457,25.944214 0 1 1 -50.266912,0 25.133457,25.944214 0 1 1 50.266912,0 z" />
    <path
       transform="matrix(0.69318151,0,0,0.68709383,587.88848,687.86718)"
       sodipodi:type="arc"
       style="fill:#000000;fill-opacity:1;stroke-width:4.19999981;stroke-linecap:butt;stroke-miterlimit:4;stroke-dasharray:none;display:inline"
       id="path2985-4-5-9"
       sodipodi:cx="85.129456"
       sodipodi:cy="131.34259"
       sodipodi:rx="25.133457"
       sodipodi:ry="25.944214"
       d="m 110.26291,131.34259 a 25.133457,25.944214 0 1 1 -50.266912,0 25.133457,25.944214 0 1 1 50.266912,0 z" />
    <path
       style="fill:none;stroke:#000000;stroke-width:1.89300001;stroke-linecap:butt;stroke-linejoin:miter;stroke-miterlimit:4;stroke-opacity:1;stroke-dasharray:none;marker-end:url(#Arrow1Lend);display:inline"
       d="m 571.88628,790.77538 c 48.2523,-40.14472 48.2523,-40.14472 48.2523,-40.14472"
       id="path3048-7-7"
       inkscape:connector-curvature="0" />
    <path
       style="fill:#0000ff;stroke:#0000ff;stroke-width:4.24854851;stroke-linecap:butt;stroke-linejoin:miter;stroke-miterlimit:4;stroke-opacity:1;stroke-dasharray:none;display:inline"
       d="m 490.58851,674.28206 c 2.10881,237.73418 2.10881,237.73418 2.10881,237.73418 M 670.10019,672.01625 C 668.91863,911.56 668.91863,911.56 668.91863,911.56"
       id="path4662-5"
       inkscape:connector-curvature="0" />
    <path
       style="fill:#0000ff;stroke:#0000ff;stroke-width:4.34845781;stroke-linecap:butt;stroke-linejoin:miter;stroke-miterlimit:4;stroke-opacity:1;stroke-dasharray:none;display:inline"
       d="m 448.68616,712.01625 c 271.44594,0.0641 260.00001,0 260.00001,0 M 448.68616,872.01624 c 259.94795,0.59391 260.00001,0 260.00001,0"
       id="path4666-5"
       inkscape:connector-curvature="0" />
  </g>
  <g
     inkscape:label="Layer 1"
     inkscape:groupmode="layer"
     id="layer1"
     style="display:inline">
    <path
       sodipodi:type="arc"
       style="fill:#000000;fill-opacity:1;stroke-width:4.19999981;stroke-linecap:butt;stroke-miterlimit:4;stroke-dasharray:none"
       id="path2985"
       sodipodi:cx="85.129456"
       sodipodi:cy="131.34259"
       sodipodi:rx="25.133457"
       sodipodi:ry="25.944214"
       d="m 110.26291,131.34259 a 25.133457,25.944214 0 1 1 -50.266912,0 25.133457,25.944214 0 1 1 50.266912,0 z"
       transform="matrix(0.77419355,0,0,0.78125,92.189208,-0.71756948)" />
    <path
       transform="matrix(0.74193548,0,0,0.75,99.799857,86.894816)"
       sodipodi:type="arc"
       style="fill:#000000;fill-opacity:1;stroke-width:4.19999981;stroke-linecap:butt;stroke-miterlimit:4;stroke-dasharray:none"
       id="path2985-1"
       sodipodi:cx="85.129456"
       sodipodi:cy="131.34259"
       sodipodi:rx="25.133457"
       sodipodi:ry="25.944214"
       d="m 110.26291,131.34259 a 25.133457,25.944214 0 1 1 -50.266912,0 25.133457,25.944214 0 1 1 50.266912,0 z" />
    <path
       transform="matrix(0.80645161,0,0,0.75,185.11238,18.791257)"
       sodipodi:type="arc"
       style="fill:#000000;fill-opacity:1;stroke-width:4.19999981;stroke-linecap:butt;stroke-miterlimit:4;stroke-dasharray:none"
       id="path2985-7"
       sodipodi:cx="85.129456"
       sodipodi:cy="131.34259"
       sodipodi:rx="25.133457"
       sodipodi:ry="25.944214"
       d="m 110.26291,131.34259 a 25.133457,25.944214 0 1 1 -50.266912,0 25.133457,25.944214 0 1 1 50.266912,0 z" />
    <path
       transform="matrix(0.80645161,0,0,0.8125,185.11238,88.414996)"
       sodipodi:type="arc"
       style="fill:#000000;fill-opacity:1;stroke-width:4.19999981;stroke-linecap:butt;stroke-miterlimit:4;stroke-dasharray:none"
       id="path2985-4"
       sodipodi:cx="85.129456"
       sodipodi:cy="131.34259"
       sodipodi:rx="25.133457"
       sodipodi:ry="25.944214"
       d="m 110.26291,131.34259 a 25.133457,25.944214 0 1 1 -50.266912,0 25.133457,25.944214 0 1 1 50.266912,0 z" />
    <path
       style="fill:none;stroke:#000000;stroke-width:1.89300001;stroke-linecap:butt;stroke-linejoin:miter;stroke-miterlimit:4;stroke-opacity:1;stroke-dasharray:none;marker-end:url(#Arrow1Lend)"
       d="m 166.4,181.96218 c 48.25229,-40.14472 48.25229,-40.14472 48.25229,-40.14472"
       id="path3048"
       inkscape:connector-curvature="0" />
    <path
       style="fill:none;stroke:#000000;stroke-width:1.74872267;stroke-linecap:butt;stroke-linejoin:miter;stroke-miterlimit:4;stroke-opacity:1;stroke-dasharray:none;marker-end:url(#Arrow1Lend)"
       d="M 252.12805,115.73866 C 298.34791,72.827276 298.34791,72.827276 298.34791,72.827276"
       id="path3048-9"
       inkscape:connector-curvature="0"
       inkscape:transform-center-x="12.972107"
       inkscape:transform-center-y="-22.330057" />
    <path
       style="fill:none;stroke:#000000;stroke-width:1.21399999;stroke-linecap:butt;stroke-linejoin:miter;stroke-miterlimit:4;stroke-opacity:1;stroke-dasharray:none;marker-end:url(#Arrow1Lend)"
       d="m 234.61413,203.74203 c 65.8678,-36.68056 65.8678,-36.68056 65.8678,-36.68056"
       id="path3048-1"
       inkscape:connector-curvature="0" />
    <path
       style="fill:none;stroke:#000000;stroke-width:1.89300001;stroke-linecap:butt;stroke-linejoin:miter;stroke-miterlimit:4;stroke-opacity:1;stroke-dasharray:none;marker-end:url(#Arrow1Lend)"
       d="M 169.47871,95.878773 C 231.03173,83.586156 231.03173,83.586156 231.03173,83.586156"
       id="path3048-18"
       inkscape:connector-curvature="0" />
    <text
       xml:space="preserve"
       style="font-size:27.1699276px;font-style:normal;font-weight:normal;line-height:125%;letter-spacing:0px;word-spacing:0px;fill:#000000;fill-opacity:1;stroke:none;font-family:Sans"
       x="199.99886"
       y="285.27734"
       id="text4321"
       sodipodi:linespacing="125%"
       transform="scale(0.9600055,1.0416607)"><tspan
         sodipodi:role="line"
         id="tspan4323"
         x="199.99886"
         y="285.27734">(1)</tspan></text>
    <path
       sodipodi:type="arc"
       style="fill:#000000;fill-opacity:1;stroke-width:4.19999981;stroke-linecap:butt;stroke-miterlimit:4;stroke-dasharray:none;display:inline"
       id="path2985-79"
       sodipodi:cx="85.129456"
       sodipodi:cy="131.34259"
       sodipodi:rx="25.133457"
       sodipodi:ry="25.944214"
       d="m 110.26291,131.34259 a 25.133457,25.944214 0 1 1 -50.266912,0 25.133457,25.944214 0 1 1 50.266912,0 z"
       transform="matrix(0.77419355,0,0,0.78125,448.73401,3.4495659)" />
    <path
       transform="matrix(0.74193548,0,0,0.75,456.34466,91.061953)"
       sodipodi:type="arc"
       style="fill:#000000;fill-opacity:1;stroke-width:4.19999981;stroke-linecap:butt;stroke-miterlimit:4;stroke-dasharray:none;display:inline"
       id="path2985-1-8"
       sodipodi:cx="85.129456"
       sodipodi:cy="131.34259"
       sodipodi:rx="25.133457"
       sodipodi:ry="25.944214"
       d="m 110.26291,131.34259 a 25.133457,25.944214 0 1 1 -50.266912,0 25.133457,25.944214 0 1 1 50.266912,0 z" />
    <path
       transform="matrix(0.80645161,0,0,0.75,541.65718,22.958392)"
       sodipodi:type="arc"
       style="fill:#000000;fill-opacity:1;stroke-width:4.19999981;stroke-linecap:butt;stroke-miterlimit:4;stroke-dasharray:none;display:inline"
       id="path2985-7-3"
       sodipodi:cx="85.129456"
       sodipodi:cy="131.34259"
       sodipodi:rx="25.133457"
       sodipodi:ry="25.944214"
       d="m 110.26291,131.34259 a 25.133457,25.944214 0 1 1 -50.266912,0 25.133457,25.944214 0 1 1 50.266912,0 z" />
    <path
       transform="matrix(0.80645161,0,0,0.8125,541.65718,92.582133)"
       sodipodi:type="arc"
       style="fill:#000000;fill-opacity:1;stroke-width:4.19999981;stroke-linecap:butt;stroke-miterlimit:4;stroke-dasharray:none;display:inline"
       id="path2985-4-5"
       sodipodi:cx="85.129456"
       sodipodi:cy="131.34259"
       sodipodi:rx="25.133457"
       sodipodi:ry="25.944214"
       d="m 110.26291,131.34259 a 25.133457,25.944214 0 1 1 -50.266912,0 25.133457,25.944214 0 1 1 50.266912,0 z" />
    <path
       style="fill:none;stroke:#000000;stroke-width:1.89300001;stroke-linecap:butt;stroke-linejoin:miter;stroke-miterlimit:4;stroke-opacity:1;stroke-dasharray:none;marker-end:url(#Arrow1Lend);display:inline"
       d="M 522.9448,186.12932 C 571.19709,145.9846 571.19709,145.9846 571.19709,145.9846"
       id="path3048-7"
       inkscape:connector-curvature="0" />
    <path
       style="fill:none;stroke:#000000;stroke-width:1.74872267;stroke-linecap:butt;stroke-linejoin:miter;stroke-miterlimit:4;stroke-opacity:1;stroke-dasharray:none;marker-end:url(#Arrow1Lend);display:inline"
       d="M 608.67285,119.9058 C 654.89271,76.994413 654.89271,76.994413 654.89271,76.994413"
       id="path3048-9-5"
       inkscape:connector-curvature="0"
       inkscape:transform-center-x="12.972107"
       inkscape:transform-center-y="-22.330057" />
    <path
       style="fill:none;stroke:#000000;stroke-width:1.21399999;stroke-linecap:butt;stroke-linejoin:miter;stroke-miterlimit:4;stroke-opacity:1;stroke-dasharray:none;marker-end:url(#Arrow1Lend);display:inline"
       d="m 591.15893,207.90917 c 65.8678,-36.68056 65.8678,-36.68056 65.8678,-36.68056"
       id="path3048-1-8"
       inkscape:connector-curvature="0" />
    <path
       style="fill:none;stroke:#000000;stroke-width:1.89300001;stroke-linecap:butt;stroke-linejoin:miter;stroke-miterlimit:4;stroke-opacity:1;stroke-dasharray:none;marker-end:url(#Arrow1Lend);display:inline"
       d="M 526.02351,100.04591 C 587.57653,87.753293 587.57653,87.753293 587.57653,87.753293"
       id="path3048-18-5"
       inkscape:connector-curvature="0" />
    <path
       style="fill:#0000ff;stroke:#0000ff;stroke-width:4.24854851;stroke-linecap:butt;stroke-linejoin:miter;stroke-miterlimit:4;stroke-opacity:1;stroke-dasharray:none"
       d="m 486.99593,34.239463 c 2.10881,237.734177 2.10881,237.734177 2.10881,237.734177 M 666.5076,31.973646 C 665.32604,271.5174 665.32604,271.5174 665.32604,271.5174"
       id="path4662"
       inkscape:connector-curvature="0" />
    <path
       style="fill:#0000ff;stroke:#0000ff;stroke-width:4.34845781;stroke-linecap:butt;stroke-linejoin:miter;stroke-miterlimit:4;stroke-opacity:1;stroke-dasharray:none"
       d="m 445.09358,71.973646 c 271.44593,0.06408 260,0 260,0 m -260,159.999994 c 259.94794,0.59391 260,0 260,0"
       id="path4666"
       inkscape:connector-curvature="0" />
    <text
       xml:space="preserve"
       style="font-size:27.1699276px;font-style:normal;font-weight:normal;line-height:125%;letter-spacing:0px;word-spacing:0px;fill:#000000;fill-opacity:1;stroke:none;font-family:Sans"
       x="586.66333"
       y="285.27734"
       id="text4668"
       sodipodi:linespacing="125%"
       transform="scale(0.9600055,1.0416607)"><tspan
         sodipodi:role="line"
         id="tspan4670"
         x="586.66333"
         y="285.27734">(2)</tspan></text>
    <path
       style="fill:none;stroke:#000000;stroke-width:1.89300001;stroke-linecap:butt;stroke-linejoin:miter;stroke-miterlimit:4;stroke-opacity:1;stroke-dasharray:none;marker-end:url(#Arrow1Lend);display:inline"
       d="m 125.21728,560.0712 c 48.25229,-40.14472 48.25229,-40.14472 48.25229,-40.14472"
       id="path3048-7-3"
       inkscape:connector-curvature="0" />
    <path
       style="fill:none;stroke:#000000;stroke-width:1.74872267;stroke-linecap:butt;stroke-linejoin:miter;stroke-miterlimit:4;stroke-opacity:1;stroke-dasharray:none;marker-end:url(#Arrow1Lend);display:inline"
       d="m 300.27097,402.88303 c 46.21986,-42.91139 46.21986,-42.91139 46.21986,-42.91139"
       id="path3048-9-5-3"
       inkscape:connector-curvature="0"
       inkscape:transform-center-x="12.972107"
       inkscape:transform-center-y="-22.330057" />
    <path
       style="fill:none;stroke:#000000;stroke-width:1.42400002;stroke-linecap:butt;stroke-linejoin:miter;stroke-miterlimit:4;stroke-opacity:1;stroke-dasharray:none;marker-end:url(#Arrow1Lend);display:inline"
       d="m 300.59083,561.55877 c 42.08301,-26.41754 42.08301,-26.41754 42.08301,-26.41754"
       id="path3048-1-8-7"
       inkscape:connector-curvature="0" />
    <path
       style="fill:none;stroke:#000000;stroke-width:1.89300001;stroke-linecap:butt;stroke-linejoin:miter;stroke-miterlimit:4;stroke-opacity:1;stroke-dasharray:none;marker-end:url(#Arrow1Lend);display:inline"
       d="m 124.68383,397.71015 c 61.55302,-12.29262 61.55302,-12.29262 61.55302,-12.29262"
       id="path3048-18-5-7"
       inkscape:connector-curvature="0" />
    <path
       style="fill:#0000ff;stroke:#0000ff;stroke-width:4.24854851;stroke-linecap:butt;stroke-linejoin:miter;stroke-miterlimit:4;stroke-opacity:1;stroke-dasharray:none;display:inline"
       d="m 122.04847,364.74777 c 2.10881,237.73418 2.10881,237.73418 2.10881,237.73418 M 301.56013,362.48196 c -1.18156,239.54375 -1.18156,239.54375 -1.18156,239.54375"
       id="path4662-1"
       inkscape:connector-curvature="0" />
    <path
       style="fill:#0000ff;stroke:#0000ff;stroke-width:4.34845781;stroke-linecap:butt;stroke-linejoin:miter;stroke-miterlimit:4;stroke-opacity:1;stroke-dasharray:none;display:inline"
       d="m 80.146119,400.86045 c 271.445921,0.0641 259.999991,0 259.999991,0 M 80.146119,560.86044 c 259.947931,0.59391 259.999991,0 259.999991,0"
       id="path4666-4"
       inkscape:connector-curvature="0" />
    <text
       xml:space="preserve"
       style="font-size:27.88533401px;font-style:normal;font-weight:normal;line-height:125%;letter-spacing:0px;word-spacing:0px;fill:#000000;fill-opacity:1;stroke:none;font-family:Sans"
       x="194.86783"
       y="620.69116"
       id="text4816"
       sodipodi:linespacing="125%"
       transform="scale(0.98528322,1.0149366)"><tspan
         sodipodi:role="line"
         id="tspan4818"
         x="194.86783"
         y="620.69116">(3)</tspan></text>
    <path
       style="fill:none;stroke:#000000;stroke-width:1.89300001;stroke-linecap:butt;stroke-linejoin:miter;stroke-miterlimit:4;stroke-opacity:1;stroke-dasharray:none;marker-end:url(#Arrow1Lend);display:inline"
       d="m 494.90325,562.11294 c 48.25229,-40.14472 48.25229,-40.14472 48.25229,-40.14472"
       id="path3048-7-3-7"
       inkscape:connector-curvature="0" />
    <path
       style="fill:none;stroke:#000000;stroke-width:1.74872267;stroke-linecap:butt;stroke-linejoin:miter;stroke-miterlimit:4;stroke-opacity:1;stroke-dasharray:none;marker-end:url(#Arrow1Lend);display:inline"
       d="M 669.95694,404.92477 C 716.1768,362.01338 716.1768,362.01338 716.1768,362.01338"
       id="path3048-9-5-3-3"
       inkscape:connector-curvature="0"
       inkscape:transform-center-x="12.972107"
       inkscape:transform-center-y="-22.330057" />
    <path
       style="fill:none;stroke:#000000;stroke-width:2.17499995;stroke-linecap:butt;stroke-linejoin:miter;stroke-miterlimit:4;stroke-opacity:1;stroke-dasharray:none;marker-end:url(#Arrow1Lend);display:inline"
       d="m 660.62711,581.85604 c -41.2639,-49.00872 -41.2639,-49.00872 -41.2639,-49.00872"
       id="path3048-1-8-7-9"
       inkscape:connector-curvature="0" />
    <path
       style="fill:none;stroke:#000000;stroke-width:1.89300001;stroke-linecap:butt;stroke-linejoin:miter;stroke-miterlimit:4;stroke-opacity:1;stroke-dasharray:none;marker-end:url(#Arrow1Lend);display:inline"
       d="m 494.3698,399.75189 c 61.55302,-12.29262 61.55302,-12.29262 61.55302,-12.29262"
       id="path3048-18-5-7-7"
       inkscape:connector-curvature="0" />
    <path
       style="fill:none;stroke:#0000ff;stroke-width:4;stroke-linecap:butt;stroke-linejoin:miter;stroke-miterlimit:4;stroke-opacity:1;stroke-dasharray:none"
       d="m 521.71141,353.42651 c -26.22404,47.53108 -26.22404,47.53108 -26.22404,47.53108 l -3.27801,162.26127 -29.50205,45.89208"
       id="path4911"
       inkscape:connector-curvature="0" />
    <path
       style="fill:none;stroke:#0000ff;stroke-width:4;stroke-linecap:butt;stroke-linejoin:miter;stroke-miterlimit:4;stroke-opacity:1;stroke-dasharray:none"
       d="m 693.8067,363.26053 c -31.14106,49.17008 -31.14106,50.80908 -31.14106,50.80908 l 0,170.45629 -22.94603,37.69706"
       id="path4913"
       inkscape:connector-curvature="0" />
    <path
       style="fill:none;stroke:#0000ff;stroke-width:4;stroke-linecap:butt;stroke-linejoin:miter;stroke-miterlimit:4;stroke-opacity:1;stroke-dasharray:none"
       d="m 444.67828,391.12357 c 52.44809,9.83402 52.44809,9.83402 52.44809,9.83402 l 168.81728,11.47302 59.0041,-3.27801"
       id="path4915"
       inkscape:connector-curvature="0" />
    <path
       style="fill:none;stroke:#0000ff;stroke-width:4;stroke-linecap:butt;stroke-linejoin:miter;stroke-miterlimit:4;stroke-opacity:1;stroke-dasharray:none"
       d="m 444.67828,546.82883 c 45.89208,18.02903 47.53108,18.02903 47.53108,18.02903 l 172.09529,18.02903 50.80908,-3.278"
       id="path4917"
       inkscape:connector-curvature="0" />
    <text
       xml:space="preserve"
       style="font-size:27.96124649px;font-style:normal;font-weight:normal;line-height:125%;letter-spacing:0px;word-spacing:0px;fill:#000000;fill-opacity:1;stroke:none;font-family:Sans"
       x="556.5108"
       y="637.5343"
       id="text4919"
       sodipodi:linespacing="125%"
       transform="scale(1.0120199,0.98812284)"><tspan
         sodipodi:role="line"
         id="tspan4921"
         x="556.5108"
         y="637.5343">(4)</tspan></text>
    <path
       sodipodi:type="arc"
       style="fill:#000000;fill-opacity:1;stroke-width:4.19999981;stroke-linecap:butt;stroke-miterlimit:4;stroke-dasharray:none;display:inline"
       id="path2985-79-7"
       sodipodi:cx="85.129456"
       sodipodi:cy="131.34259"
       sodipodi:rx="25.133457"
       sodipodi:ry="25.944214"
       d="m 110.26291,131.34259 a 25.133457,25.944214 0 1 1 -50.266912,0 25.133457,25.944214 0 1 1 50.266912,0 z"
       transform="matrix(0.77419355,0,0,0.78125,96.815153,636.95695)" />
    <path
       transform="matrix(0.74193548,0,0,0.75,105.63187,721.35317)"
       sodipodi:type="arc"
       style="fill:#000000;fill-opacity:1;stroke-width:4.19999981;stroke-linecap:butt;stroke-miterlimit:4;stroke-dasharray:none;display:inline"
       id="path2985-1-8-4"
       sodipodi:cx="85.129456"
       sodipodi:cy="131.34259"
       sodipodi:rx="25.133457"
       sodipodi:ry="25.944214"
       d="m 110.26291,131.34259 a 25.133457,25.944214 0 1 1 -50.266912,0 25.133457,25.944214 0 1 1 50.266912,0 z" />
    <path
       transform="matrix(0.80645161,0,0,0.75,200.59288,649.63142)"
       sodipodi:type="arc"
       style="fill:#000000;fill-opacity:1;stroke-width:4.19999981;stroke-linecap:butt;stroke-miterlimit:4;stroke-dasharray:none;display:inline"
       id="path2985-7-3-2"
       sodipodi:cx="85.129456"
       sodipodi:cy="131.34259"
       sodipodi:rx="25.133457"
       sodipodi:ry="25.944214"
       d="m 110.26291,131.34259 a 25.133457,25.944214 0 1 1 -50.266912,0 25.133457,25.944214 0 1 1 50.266912,0 z" />
    <path
       transform="matrix(0.80645161,0,0,0.8125,188.93428,720.0592)"
       sodipodi:type="arc"
       style="fill:#000000;fill-opacity:1;stroke-width:4.19999981;stroke-linecap:butt;stroke-miterlimit:4;stroke-dasharray:none;display:inline"
       id="path2985-4-5-2"
       sodipodi:cx="85.129456"
       sodipodi:cy="131.34259"
       sodipodi:rx="25.133457"
       sodipodi:ry="25.944214"
       d="m 110.26291,131.34259 a 25.133457,25.944214 0 1 1 -50.266912,0 25.133457,25.944214 0 1 1 50.266912,0 z" />
    <path
       style="fill:none;stroke:#000000;stroke-width:1.89300001;stroke-linecap:butt;stroke-linejoin:miter;stroke-miterlimit:4;stroke-opacity:1;stroke-dasharray:none;marker-end:url(#Arrow1Lend);display:inline"
       d="m 172.232,816.42054 c 48.25229,-40.14472 48.25229,-40.14472 48.25229,-40.14472"
       id="path3048-7-6"
       inkscape:connector-curvature="0" />
    <path
       style="fill:none;stroke:#000000;stroke-width:1.74872267;stroke-linecap:butt;stroke-linejoin:miter;stroke-miterlimit:4;stroke-opacity:1;stroke-dasharray:none;marker-end:url(#Arrow1Lend);display:inline"
       d="m 270.32956,749.64731 c 6.53333,-62.72941 6.53333,-62.72941 6.53333,-62.72941"
       id="path3048-9-5-0"
       inkscape:connector-curvature="0"
       inkscape:transform-center-x="23.735526"
       inkscape:transform-center-y="-8.265497" />
    <path
       style="fill:none;stroke:#000000;stroke-width:1.21399999;stroke-linecap:butt;stroke-linejoin:miter;stroke-miterlimit:4;stroke-opacity:1;stroke-dasharray:none;marker-end:url(#Arrow1Lend);display:inline"
       d="m 243.6623,834.98422 c 65.8678,-36.68056 65.8678,-36.68056 65.8678,-36.68056"
       id="path3048-1-8-74"
       inkscape:connector-curvature="0" />
    <path
       style="fill:none;stroke:#000000;stroke-width:1.89300001;stroke-linecap:butt;stroke-linejoin:miter;stroke-miterlimit:4;stroke-opacity:1;stroke-dasharray:none;marker-end:url(#Arrow1Lend);display:inline"
       d="M 163.93034,731.37119 C 209.07551,687.7616 209.07551,687.7616 209.07551,687.7616"
       id="path3048-18-5-3"
       inkscape:connector-curvature="0" />
    <path
       style="fill:none;stroke:#0000ff;stroke-width:4;stroke-linecap:butt;stroke-linejoin:miter;stroke-miterlimit:4;stroke-opacity:1;stroke-dasharray:none;display:inline"
       d="m 152.83024,666.20801 c -26.22404,47.53108 -26.22404,47.53108 -26.22404,47.53108 l -3.278,162.26127 -29.502057,45.89208"
       id="path4911-3"
       inkscape:connector-curvature="0" />
    <path
       style="fill:none;stroke:#0000ff;stroke-width:4;stroke-linecap:butt;stroke-linejoin:miter;stroke-miterlimit:4;stroke-opacity:1;stroke-dasharray:none;display:inline"
       d="m 75.797113,859.61033 c 45.892087,18.02903 47.531087,18.02903 47.531087,18.02903 l 172.09528,18.02903 50.80908,-3.278"
       id="path4917-3"
       inkscape:connector-curvature="0" />
    <path
       style="fill:none;stroke:#000000;stroke-width:1.74872267;stroke-linecap:butt;stroke-linejoin:miter;stroke-miterlimit:4;stroke-opacity:1;stroke-dasharray:none;marker-end:url(#Arrow1Lend);display:inline"
       d="m 646.54006,732.52683 c 46.21986,-42.91139 46.21986,-42.91139 46.21986,-42.91139"
       id="path3048-9-5-2"
       inkscape:connector-curvature="0"
       inkscape:transform-center-x="12.972107"
       inkscape:transform-center-y="-22.330057" />
    <path
       style="fill:none;stroke:#000000;stroke-width:1.89300001;stroke-linecap:butt;stroke-linejoin:miter;stroke-miterlimit:4;stroke-opacity:1;stroke-dasharray:none;marker-end:url(#Arrow1Lend);display:inline"
       d="M 583.07497,730.69028 C 630.40001,689.4565 630.40001,689.4565 630.40001,689.4565"
       id="path3048-18-5-9"
       inkscape:connector-curvature="0" />
    <path
       sodipodi:type="arc"
       style="fill:#000000;fill-opacity:1;stroke-width:4.19999981;stroke-linecap:butt;stroke-miterlimit:4;stroke-dasharray:none;display:inline"
       id="path2985-79-3"
       sodipodi:cx="85.129456"
       sodipodi:cy="131.34259"
       sodipodi:rx="25.133457"
       sodipodi:ry="25.944214"
       d="m 110.26291,131.34259 a 25.133457,25.944214 0 1 1 -50.266912,0 25.133457,25.944214 0 1 1 50.266912,0 z"
       transform="matrix(0.77419355,0,0,0.78125,515.82019,630.59478)" />
    <path
       style="fill:none;stroke:#000000;stroke-width:1.49800003;stroke-linecap:butt;stroke-linejoin:miter;stroke-miterlimit:4;stroke-opacity:1;stroke-dasharray:none;marker-end:url(#Arrow1Lend);display:inline"
       d="m 654.41731,777.723 c 50.7854,-6.1664 50.7854,-6.1664 50.7854,-6.1664"
       id="path3048-1-8-4"
       inkscape:connector-curvature="0" />
    <text
       xml:space="preserve"
       style="font-size:24.82520103px;font-style:normal;font-weight:normal;line-height:125%;letter-spacing:0px;word-spacing:0px;fill:#000000;fill-opacity:1;stroke:none;font-family:Sans"
       x="566.24713"
       y="944.85016"
       id="text5121"
       sodipodi:linespacing="125%"
       transform="scale(0.99461871,1.0054104)"><tspan
         sodipodi:role="line"
         id="tspan5123"
         x="566.24713"
         y="944.85016">(6)</tspan></text>
  </g>
</svg>
