<?xml version="1.0" encoding="UTF-8" standalone="no"?>
<!-- Created with Inkscape (http://www.inkscape.org/) -->

<svg
   xmlns:dc="http://purl.org/dc/elements/1.1/"
   xmlns:cc="http://creativecommons.org/ns#"
   xmlns:rdf="http://www.w3.org/1999/02/22-rdf-syntax-ns#"
   xmlns:svg="http://www.w3.org/2000/svg"
   xmlns="http://www.w3.org/2000/svg"
   xmlns:sodipodi="http://sodipodi.sourceforge.net/DTD/sodipodi-0.dtd"
   xmlns:inkscape="http://www.inkscape.org/namespaces/inkscape"
   width="744.09448819"
   height="1052.3622047"
   id="svg2"
   version="1.1"
   inkscape:version="0.48.2 r9819"
   sodipodi:docname="MPMsteps.svg">
  <defs
     id="defs4" />
  <sodipodi:namedview
     id="base"
     pagecolor="#ffffff"
     bordercolor="#666666"
     borderopacity="1.0"
     inkscape:pageopacity="0.0"
     inkscape:pageshadow="2"
     inkscape:zoom="9.0901639"
     inkscape:cx="67.195672"
     inkscape:cy="864.40036"
     inkscape:document-units="px"
     inkscape:current-layer="layer1"
     showgrid="true"
     showguides="true"
     inkscape:guide-bbox="true"
     inkscape:window-width="2560"
     inkscape:window-height="1297"
     inkscape:window-x="0"
     inkscape:window-y="0"
     inkscape:window-maximized="1">
    <inkscape:grid
       type="xygrid"
       id="grid2985" />
    <sodipodi:guide
       orientation="0,1"
       position="54,921"
       id="guide3771" />
    <sodipodi:guide
       orientation="1,0"
       position="40,914"
       id="guide3773" />
    <sodipodi:guide
       orientation="1,0"
       position="200,910"
       id="guide3775" />
    <sodipodi:guide
       orientation="0,1"
       position="45,799"
       id="guide3777" />
  </sodipodi:namedview>
  <metadata
     id="metadata7">
    <rdf:RDF>
      <cc:Work
         rdf:about="">
        <dc:format>image/svg+xml</dc:format>
        <dc:type
           rdf:resource="http://purl.org/dc/dcmitype/StillImage" />
        <dc:title></dc:title>
      </cc:Work>
    </rdf:RDF>
  </metadata>
  <g
     inkscape:label="Layer 1"
     inkscape:groupmode="layer"
     id="layer1">
    <path
       style="fill:none;stroke:#000000;stroke-width:2;stroke-linecap:butt;stroke-linejoin:miter;stroke-opacity:1;stroke-miterlimit:4;stroke-dasharray:none"
       d="m 40,132.36218 160,0"
       id="path2987"
       inkscape:connector-curvature="0" />
    <path
       style="fill:none;stroke:#000000;stroke-width:2;stroke-linecap:butt;stroke-linejoin:miter;stroke-opacity:1;stroke-miterlimit:4;stroke-dasharray:none"
       d="m 40,172.36218 160,0"
       id="path2989"
       inkscape:connector-curvature="0" />
    <path
       style="fill:none;stroke:#000000;stroke-width:2;stroke-linecap:butt;stroke-linejoin:miter;stroke-opacity:1;stroke-miterlimit:4;stroke-dasharray:none"
       d="m 40,212.36218 160,0"
       id="path3759"
       inkscape:connector-curvature="0" />
    <path
       style="fill:none;stroke:#000000;stroke-width:2;stroke-linecap:butt;stroke-linejoin:miter;stroke-opacity:1;stroke-miterlimit:4;stroke-dasharray:none"
       d="m 40,252.36218 160,0"
       id="path3761"
       inkscape:connector-curvature="0" />
    <path
       style="fill:none;stroke:#000000;stroke-width:2;stroke-linecap:butt;stroke-linejoin:miter;stroke-opacity:1;stroke-miterlimit:4;stroke-dasharray:none"
       d="m 60,132.36218 0,120"
       id="path3763"
       inkscape:connector-curvature="0" />
    <path
       style="fill:none;stroke:#000000;stroke-width:2;stroke-linecap:butt;stroke-linejoin:miter;stroke-opacity:1;stroke-miterlimit:4;stroke-dasharray:none"
       d="m 100,132.36218 0,120"
       id="path3765"
       inkscape:connector-curvature="0" />
    <path
       style="fill:none;stroke:#000000;stroke-width:2;stroke-linecap:butt;stroke-linejoin:miter;stroke-opacity:1;stroke-miterlimit:4;stroke-dasharray:none"
       d="m 140,132.36218 0,120"
       id="path3767"
       inkscape:connector-curvature="0" />
    <path
       style="fill:none;stroke:#000000;stroke-width:2;stroke-linecap:butt;stroke-linejoin:miter;stroke-opacity:1;stroke-miterlimit:4;stroke-dasharray:none"
       d="m 180,132.36218 0,120"
       id="path3769"
       inkscape:connector-curvature="0" />
    <path
       style="opacity:0.65;fill:#ff8080;fill-opacity:1;stroke:#550000;stroke-width:2;stroke-linecap:round;stroke-linejoin:round;stroke-miterlimit:4;stroke-opacity:1;stroke-dashoffset:0"
       d="m 139.9511,230.31376 c 1.72556,-0.4351 3.41458,-1.01798 5.03018,-1.76518 1.07632,-0.4871 2.17173,-0.94209 3.1792,-1.56491 1.43299,-0.84935 2.89709,-1.71153 4.02172,-2.96355 1.13587,-1.15279 2.19655,-2.38081 3.13041,-3.70386 0.88577,-1.2459 1.65009,-2.5769 2.34802,-3.93552 0.76503,-1.71295 1.72611,-3.34067 2.31393,-5.12959 0.43652,-1.27426 0.84988,-2.5573 1.24586,-3.84443 0.32219,-1.16323 0.5696,-2.34649 0.83441,-3.52383 0.30597,-1.4556 0.61254,-2.9131 0.75819,-4.39543 0.19916,-1.61163 0.39963,-3.22313 0.50981,-4.84384 0.0692,-1.11713 0.17929,-2.2373 0.1653,-3.35622 -0.0503,-1.11254 -0.11944,-2.22545 -0.0933,-3.33966 -0.12343,-1.8483 -0.62238,-3.64117 -1.00196,-5.44701 -0.28532,-1.0424 -0.58691,-2.08023 -1.02878,-3.06901 -0.90465,-2.25655 -1.92221,-4.47338 -3.16997,-6.56256 -1.2614,-2.02358 -2.61267,-3.99066 -3.99982,-5.93015 -0.68009,-0.91081 -1.36929,-1.81399 -2.16724,-2.62628 -1.73779,-1.9233 -3.54471,-3.79447 -5.55799,-5.43286 -1.06953,-0.89757 -2.09065,-1.85184 -3.15944,-2.74937 -1.22412,-1.00414 -2.56422,-1.85267 -3.88579,-2.72034 -1.01336,-0.55006 -1.97272,-1.19966 -3.03858,-1.64856 -1.72906,-0.83583 -3.54266,-1.49123 -5.40321,-1.9661 -1.58563,-0.45484 -3.19204,-0.86012 -4.83357,-1.0492 -2.08894,-0.27499 -4.18741,-0.50741 -6.29283,-0.59481 -2.30249,0.0373 -4.59089,0.33174 -6.88368,0.52255 -1.24116,0.10355 -2.47575,0.27765 -3.69683,0.52178 -1.12733,0.16429 -2.24511,0.38834 -3.33262,0.72832 -3.40074,0.82233 -6.754852,1.82222 -10.102911,2.83463 -1.850381,0.62186 -3.629962,1.43131 -5.368364,2.31545 -1.678191,0.74458 -3.283589,1.66301 -4.732667,2.79338 -0.800559,0.61516 -1.668646,1.15643 -2.319817,1.94052 -1.10451,1.17589 -2.141316,2.42064 -3.040303,3.76206 -0.789562,1.22534 -1.457339,2.54537 -1.850883,3.95359 -0.386907,1.12054 -0.769213,2.24898 -0.947925,3.42512 -0.203497,1.08279 -0.245405,2.18886 -0.398622,3.27961 -0.128029,1.11868 2.8e-4,2.2498 -0.0142,3.374 0.01612,1.59974 0.135957,3.1961 0.201461,4.79423 0.196699,1.12144 0.34056,2.25753 0.693169,3.34433 0.195179,1.06937 0.353567,2.15499 0.711837,3.18452 0.457248,1.20323 0.852603,2.43437 1.411596,3.59607 0.48311,0.88319 1.06109,1.71954 1.71928,2.48155 0.735689,0.82315 1.560217,1.5652 2.379159,2.30497 0.740473,0.6425 1.564372,1.18014 2.448921,1.59983 0.961159,0.46544 1.989405,0.78059 2.997611,1.1265 1.084276,0.3371 2.217324,0.46731 3.306328,0.7845 1.590377,0.36905 3.191087,0.69316 4.784326,1.04735 1.43567,0.37119 2.858914,0.79493 4.257844,1.28613 1.06706,0.40495 2.12199,0.84602 3.10109,1.43801 1.14318,0.62422 2.26641,1.28342 3.38582,1.94847 1.34144,0.68922 2.60265,1.51842 3.88837,2.30371 1.13932,0.74815 2.31514,1.44328 3.39275,2.281 1.41356,1.04118 2.80395,2.11614 4.15361,3.23851 0.93429,0.85094 1.91251,1.65737 2.74942,2.60892 0.90316,0.96988 1.72865,2.01639 2.3816,3.1724 0.93706,1.53289 1.73815,3.14412 2.59656,4.72151 0.46802,0.88217 0.87928,1.79463 1.39009,2.65354 0.49204,0.75721 1.1987,1.33498 1.96955,1.78912 0.93645,0.37373 1.85149,0.89365 2.88652,0.91317 1.8156,0.10256 3.63486,0.34373 5.45473,0.19334 0.1742,-0.0335 0.34841,-0.0669 0.52261,-0.10039 z"
       id="path3779"
       inkscape:connector-curvature="0" />
    <path
       sodipodi:type="arc"
       style="fill:#ff0000;fill-opacity:1;stroke:#ff0000;stroke-width:2;stroke-linecap:round;stroke-linejoin:round;stroke-miterlimit:4;stroke-opacity:1;stroke-dasharray:none;stroke-dashoffset:0"
       id="path3795"
       sodipodi:cx="101.5"
       sodipodi:cy="174.86218"
       sodipodi:rx="2.5"
       sodipodi:ry="2.5"
       d="m 104,174.86218 a 2.5,2.5 0 1 1 -5,0 2.5,2.5 0 1 1 5,0 z"
       transform="matrix(0.7000001,0,0,0.7000001,21.19999,42.708638)" />
  </g>
</svg>
