<?xml version="1.0" encoding="UTF-8" standalone="no"?>
<!-- Created with Inkscape (http://www.inkscape.org/) -->

<svg
   xmlns:dc="http://purl.org/dc/elements/1.1/"
   xmlns:cc="http://creativecommons.org/ns#"
   xmlns:rdf="http://www.w3.org/1999/02/22-rdf-syntax-ns#"
   xmlns:svg="http://www.w3.org/2000/svg"
   xmlns="http://www.w3.org/2000/svg"
   xmlns:sodipodi="http://sodipodi.sourceforge.net/DTD/sodipodi-0.dtd"
   xmlns:inkscape="http://www.inkscape.org/namespaces/inkscape"
   width="744.09448819"
   height="1052.3622047"
   id="svg2"
   version="1.1"
   inkscape:version="0.48.1 r9760"
   sodipodi:docname="stream.svg">
  <sodipodi:namedview
     id="base"
     pagecolor="#ffffff"
     bordercolor="#666666"
     borderopacity="1.0"
     inkscape:pageopacity="0.0"
     inkscape:pageshadow="2"
     inkscape:zoom="4.5594994"
     inkscape:cx="207.69767"
     inkscape:cy="711.32785"
     inkscape:document-units="px"
     inkscape:current-layer="layer1"
     showgrid="true"
     inkscape:window-width="2560"
     inkscape:window-height="1285"
     inkscape:window-x="0"
     inkscape:window-y="0"
     inkscape:window-maximized="0"
     showguides="true"
     inkscape:guide-bbox="true"
     inkscape:snap-grids="true">
    <inkscape:grid
       type="xygrid"
       id="grid2985" />
  </sodipodi:namedview>
  <defs
     id="defs4">
    <marker
       style="overflow:visible;"
       id="Arrow1Lend"
       refX="0.0"
       refY="0.0"
       orient="auto"
       inkscape:stockid="Arrow1Lend">
      <path
         transform="scale(0.8) rotate(180) translate(12.5,0)"
         style="fill-rule:evenodd;stroke:#000000;stroke-width:1.0pt;marker-start:none;"
         d="M 0.0,0.0 L 5.0,-5.0 L -12.5,0.0 L 5.0,5.0 L 0.0,0.0 z "
         id="path3956" />
    </marker>
    <marker
       inkscape:stockid="Arrow1Lstart"
       orient="auto"
       refY="0.0"
       refX="0.0"
       id="Arrow1Lstart"
       style="overflow:visible">
      <path
         id="path3841"
         d="M 0.0,0.0 L 5.0,-5.0 L -12.5,0.0 L 5.0,5.0 L 0.0,0.0 z "
         style="fill-rule:evenodd;stroke:#000000;stroke-width:1.0pt;marker-start:none"
         transform="scale(0.8) translate(12.5,0)" />
    </marker>
    <marker
       inkscape:stockid="Arrow1Lstart"
       orient="auto"
       refY="0"
       refX="0"
       id="Arrow1Lstart-0"
       style="overflow:visible">
      <path
         id="path3841-8"
         d="M 0,0 5,-5 -12.5,0 5,5 0,0 z"
         style="fill-rule:evenodd;stroke:#000000;stroke-width:1pt;marker-start:none"
         transform="matrix(0.8,0,0,0.8,10,0)"
         inkscape:connector-curvature="0" />
    </marker>
    <marker
       inkscape:stockid="Arrow1Lstart"
       orient="auto"
       refY="0"
       refX="0"
       id="marker3109"
       style="overflow:visible">
      <path
         id="path3111"
         d="M 0,0 5,-5 -12.5,0 5,5 0,0 z"
         style="fill-rule:evenodd;stroke:#000000;stroke-width:1pt;marker-start:none"
         transform="matrix(0.8,0,0,0.8,10,0)"
         inkscape:connector-curvature="0" />
    </marker>
    <marker
       inkscape:stockid="Arrow1Lstart"
       orient="auto"
       refY="0"
       refX="0"
       id="marker3113"
       style="overflow:visible">
      <path
         id="path3115"
         d="M 0,0 5,-5 -12.5,0 5,5 0,0 z"
         style="fill-rule:evenodd;stroke:#000000;stroke-width:1pt;marker-start:none"
         transform="matrix(0.8,0,0,0.8,10,0)"
         inkscape:connector-curvature="0" />
    </marker>
    <marker
       inkscape:stockid="Arrow1Lstart"
       orient="auto"
       refY="0"
       refX="0"
       id="marker3117"
       style="overflow:visible">
      <path
         id="path3119"
         d="M 0,0 5,-5 -12.5,0 5,5 0,0 z"
         style="fill-rule:evenodd;stroke:#000000;stroke-width:1pt;marker-start:none"
         transform="matrix(0.8,0,0,0.8,10,0)"
         inkscape:connector-curvature="0" />
    </marker>
    <marker
       inkscape:stockid="Arrow1Lstart"
       orient="auto"
       refY="0"
       refX="0"
       id="marker3121"
       style="overflow:visible">
      <path
         id="path3123"
         d="M 0,0 5,-5 -12.5,0 5,5 0,0 z"
         style="fill-rule:evenodd;stroke:#000000;stroke-width:1pt;marker-start:none"
         transform="matrix(0.8,0,0,0.8,10,0)"
         inkscape:connector-curvature="0" />
    </marker>
    <marker
       inkscape:stockid="Arrow1Lstart"
       orient="auto"
       refY="0"
       refX="0"
       id="marker3125"
       style="overflow:visible">
      <path
         id="path3127"
         d="M 0,0 5,-5 -12.5,0 5,5 0,0 z"
         style="fill-rule:evenodd;stroke:#000000;stroke-width:1pt;marker-start:none"
         transform="matrix(0.8,0,0,0.8,10,0)"
         inkscape:connector-curvature="0" />
    </marker>
    <marker
       inkscape:stockid="Arrow1Lstart"
       orient="auto"
       refY="0"
       refX="0"
       id="marker3129"
       style="overflow:visible">
      <path
         id="path3131"
         d="M 0,0 5,-5 -12.5,0 5,5 0,0 z"
         style="fill-rule:evenodd;stroke:#000000;stroke-width:1pt;marker-start:none"
         transform="matrix(0.8,0,0,0.8,10,0)"
         inkscape:connector-curvature="0" />
    </marker>
    <marker
       inkscape:stockid="Arrow1Lstart"
       orient="auto"
       refY="0"
       refX="0"
       id="marker3133"
       style="overflow:visible">
      <path
         id="path3135"
         d="M 0,0 5,-5 -12.5,0 5,5 0,0 z"
         style="fill-rule:evenodd;stroke:#000000;stroke-width:1pt;marker-start:none"
         transform="matrix(0.8,0,0,0.8,10,0)"
         inkscape:connector-curvature="0" />
    </marker>
  </defs>
  <metadata
     id="metadata7">
    <rdf:RDF>
      <cc:Work
         rdf:about="">
        <dc:format>image/svg+xml</dc:format>
        <dc:type
           rdf:resource="http://purl.org/dc/dcmitype/StillImage" />
        <dc:title />
      </cc:Work>
    </rdf:RDF>
  </metadata>
  <g
     inkscape:label="Layer 1"
     inkscape:groupmode="layer"
     id="layer1">
    <path
       style="fill:none;stroke:#000000;stroke-width:0.5625;stroke-linecap:butt;stroke-linejoin:miter;stroke-miterlimit:4;stroke-opacity:1;stroke-dasharray:none;marker-start:url(#Arrow1Lstart)"
       d="m 145,342.61218 c 0,19.75 0,19.75 0,19.75"
       id="path3822"
       inkscape:connector-curvature="0" />
    <path
       style="fill:none;stroke:#000000;stroke-width:0.5625;stroke-linecap:butt;stroke-linejoin:miter;stroke-miterlimit:4;stroke-opacity:1;stroke-dasharray:none;marker-start:url(#Arrow1Lstart)"
       d="m 175,362.36218 c -30,0 -30,0 -30,0"
       id="path3824"
       inkscape:connector-curvature="0" />
    <path
       style="fill:none;stroke:#000000;stroke-width:0.5625;stroke-linecap:butt;stroke-linejoin:miter;stroke-miterlimit:4;stroke-opacity:1;stroke-dasharray:none;marker-start:url(#Arrow1Lstart)"
       d="m 145,382.11218 c 0,-19.75 0,-19.75 0,-19.75"
       id="path3826"
       inkscape:connector-curvature="0" />
    <path
       style="fill:none;stroke:#000000;stroke-width:0.5625;stroke-linecap:butt;stroke-linejoin:miter;stroke-miterlimit:4;stroke-opacity:1;stroke-dasharray:none;marker-start:url(#Arrow1Lstart)"
       d="m 130,362.36218 c 15,0 15,0 15,0"
       id="path3828"
       inkscape:connector-curvature="0" />
    <path
       style="fill:none;stroke:#000000;stroke-width:0.5625;stroke-linecap:butt;stroke-linejoin:miter;stroke-miterlimit:4;stroke-opacity:1;stroke-dasharray:none;marker-start:url(#Arrow1Lstart)"
       d="m 130,347.36218 c 15,15 15,15 15,15"
       id="path3830"
       inkscape:connector-curvature="0" />
    <path
       style="fill:none;stroke:#000000;stroke-width:0.5625;stroke-linecap:butt;stroke-linejoin:miter;stroke-miterlimit:4;stroke-opacity:1;stroke-dasharray:none;marker-start:url(#Arrow1Lstart)"
       d="M 164.84375,342.61218 C 145,362.36218 145,362.36218 145,362.36218"
       id="path3832"
       inkscape:connector-curvature="0" />
    <path
       style="fill:none;stroke:#000000;stroke-width:0.5625;stroke-linecap:butt;stroke-linejoin:miter;stroke-miterlimit:4;stroke-opacity:1;stroke-dasharray:none;marker-start:url(#Arrow1Lstart)"
       d="m 130,377.36218 c 15,-15 15,-15 15,-15"
       id="path3834"
       inkscape:connector-curvature="0" />
    <path
       style="fill:none;stroke:#000000;stroke-width:0.5625;stroke-linecap:butt;stroke-linejoin:miter;stroke-miterlimit:4;stroke-opacity:1;stroke-dasharray:none;marker-start:url(#Arrow1Lstart)"
       d="m 160,377.36218 c -15,-15 -15,-15 -15,-15"
       id="path3836"
       inkscape:connector-curvature="0" />
    <path
       inkscape:connector-curvature="0"
       id="path3081"
       d="m 85,272.36218 0,175"
       style="fill:none;stroke:#000000;stroke-width:0.49195638;stroke-linecap:butt;stroke-linejoin:miter;stroke-miterlimit:4;stroke-opacity:1;stroke-dasharray:1.96782553,1.96782553;stroke-dashoffset:0" />
    <path
       inkscape:connector-curvature="0"
       id="path3083"
       d="m 115,272.36218 0,175"
       style="fill:none;stroke:#000000;stroke-width:0.49195638;stroke-linecap:butt;stroke-linejoin:miter;stroke-miterlimit:4;stroke-opacity:1;stroke-dasharray:1.96782553,1.96782553;stroke-dashoffset:0" />
    <path
       inkscape:connector-curvature="0"
       id="path3085"
       d="m 145,272.36218 0,175"
       style="fill:none;stroke:#000000;stroke-width:0.49195638;stroke-linecap:butt;stroke-linejoin:miter;stroke-miterlimit:4;stroke-opacity:1;stroke-dasharray:1.96782553,1.96782553;stroke-dashoffset:0" />
    <path
       inkscape:connector-curvature="0"
       id="path3087"
       d="m 175,272.36218 0,175"
       style="fill:none;stroke:#000000;stroke-width:0.49195638;stroke-linecap:butt;stroke-linejoin:miter;stroke-miterlimit:4;stroke-opacity:1;stroke-dasharray:1.96782553,1.96782553;stroke-dashoffset:0" />
    <path
       inkscape:connector-curvature="0"
       id="path3089"
       d="m 205,272.36218 0,175"
       style="fill:none;stroke:#000000;stroke-width:0.49195638;stroke-linecap:butt;stroke-linejoin:miter;stroke-miterlimit:4;stroke-opacity:1;stroke-dasharray:1.96782553,1.96782553;stroke-dashoffset:0" />
    <path
       inkscape:connector-curvature="0"
       id="path3093"
       d="m 55.000003,362.36218 179.999997,0"
       style="fill:none;stroke:#000000;stroke-width:0.3736937;stroke-linecap:butt;stroke-linejoin:miter;stroke-miterlimit:4;stroke-opacity:1;stroke-dasharray:1.49477482,1.49477482;stroke-dashoffset:0" />
    <path
       inkscape:connector-curvature="0"
       id="path3095"
       d="m 235,392.36218 -180,0"
       style="fill:none;stroke:#000000;stroke-width:0.3736937;stroke-linecap:butt;stroke-linejoin:miter;stroke-opacity:1;stroke-miterlimit:4;stroke-dasharray:1.49477482,1.49477482;stroke-dashoffset:0" />
    <path
       inkscape:connector-curvature="0"
       id="path3097"
       d="m 55,417.36218 180,0"
       style="fill:none;stroke:#000000;stroke-width:0.3736937;stroke-linecap:butt;stroke-linejoin:miter;stroke-opacity:1;stroke-miterlimit:4;stroke-dasharray:1.49477482,1.49477482;stroke-dashoffset:0" />
    <path
       inkscape:connector-curvature="0"
       id="path3099"
       d="m 55,332.36218 180,0"
       style="fill:none;stroke:#000000;stroke-width:0.3736937;stroke-linecap:butt;stroke-linejoin:miter;stroke-opacity:1;stroke-miterlimit:4;stroke-dasharray:1.49477482,1.49477482;stroke-dashoffset:0" />
    <path
       inkscape:connector-curvature="0"
       id="path3877"
       d="m 55,302.36218 180,0"
       style="fill:none;stroke:#000000;stroke-width:0.39880121;stroke-linecap:butt;stroke-linejoin:miter;stroke-opacity:1;stroke-miterlimit:4;stroke-dasharray:1.59520483,1.59520483;stroke-dashoffset:0" />
    <path
       inkscape:connector-curvature="0"
       id="path3948"
       d="m 255,362.36218 c 63.30678,0 63.30678,0 63.30678,0"
       style="fill:none;stroke:#000000;stroke-width:0.98688924px;stroke-linecap:butt;stroke-linejoin:miter;stroke-opacity:1;marker-end:url(#Arrow1Lend)" />
    <path
       style="fill:none;stroke:#000000;stroke-width:0.5625;stroke-linecap:butt;stroke-linejoin:miter;stroke-miterlimit:4;stroke-opacity:1;stroke-dasharray:none;marker-start:url(#Arrow1Lstart)"
       d="m 430,312.36218 c 0,19.75 0,19.75 0,19.75"
       id="path3822-5"
       inkscape:connector-curvature="0" />
    <path
       style="fill:none;stroke:#000000;stroke-width:0.5625;stroke-linecap:butt;stroke-linejoin:miter;stroke-miterlimit:4;stroke-opacity:1;stroke-dasharray:none;marker-start:url(#Arrow1Lstart)"
       d="m 490,362.36218 c -30,0 -30,0 -30,0"
       id="path3824-0"
       inkscape:connector-curvature="0" />
    <path
       style="fill:none;stroke:#000000;stroke-width:0.5625;stroke-linecap:butt;stroke-linejoin:miter;stroke-miterlimit:4;stroke-opacity:1;stroke-dasharray:none;marker-start:url(#Arrow1Lstart)"
       d="m 430,412.36218 c 0,-19.75 0,-19.75 0,-19.75"
       id="path3826-6"
       inkscape:connector-curvature="0" />
    <path
       style="fill:none;stroke:#000000;stroke-width:0.5625;stroke-linecap:butt;stroke-linejoin:miter;stroke-miterlimit:4;stroke-opacity:1;stroke-dasharray:none;marker-start:url(#Arrow1Lstart)"
       d="m 385,362.36218 c 15,0 15,0 15,0"
       id="path3828-4"
       inkscape:connector-curvature="0" />
    <path
       style="fill:none;stroke:#000000;stroke-width:0.5625;stroke-linecap:butt;stroke-linejoin:miter;stroke-miterlimit:4;stroke-opacity:1;stroke-dasharray:none;marker-start:url(#Arrow1Lstart)"
       d="m 385,317.36218 c 15,15 15,15 15,15"
       id="path3830-6"
       inkscape:connector-curvature="0" />
    <path
       style="fill:none;stroke:#000000;stroke-width:0.5625;stroke-linecap:butt;stroke-linejoin:miter;stroke-miterlimit:4;stroke-opacity:1;stroke-dasharray:none;marker-start:url(#Arrow1Lstart)"
       d="M 479.84375,312.61218 C 460,332.36218 460,332.36218 460,332.36218"
       id="path3832-2"
       inkscape:connector-curvature="0" />
    <path
       style="fill:none;stroke:#000000;stroke-width:0.5625;stroke-linecap:butt;stroke-linejoin:miter;stroke-miterlimit:4;stroke-opacity:1;stroke-dasharray:none;marker-start:url(#Arrow1Lstart)"
       d="m 385,407.36218 c 15,-15 15,-15 15,-15"
       id="path3834-5"
       inkscape:connector-curvature="0" />
    <path
       style="fill:none;stroke:#000000;stroke-width:0.5625;stroke-linecap:butt;stroke-linejoin:miter;stroke-miterlimit:4;stroke-opacity:1;stroke-dasharray:none;marker-start:url(#Arrow1Lstart)"
       d="m 475,407.36218 c -15,-15 -15,-15 -15,-15"
       id="path3836-8"
       inkscape:connector-curvature="0" />
    <path
       inkscape:connector-curvature="0"
       id="path3081-6"
       d="m 370,272.36218 0,175"
       style="fill:none;stroke:#000000;stroke-width:0.49195638;stroke-linecap:butt;stroke-linejoin:miter;stroke-miterlimit:4;stroke-opacity:1;stroke-dasharray:1.96782553,1.96782553;stroke-dashoffset:0" />
    <path
       inkscape:connector-curvature="0"
       id="path3083-2"
       d="m 400,272.36218 0,175"
       style="fill:none;stroke:#000000;stroke-width:0.49195638;stroke-linecap:butt;stroke-linejoin:miter;stroke-miterlimit:4;stroke-opacity:1;stroke-dasharray:1.96782553,1.96782553;stroke-dashoffset:0" />
    <path
       inkscape:connector-curvature="0"
       id="path3085-8"
       d="m 430,272.36218 0,175"
       style="fill:none;stroke:#000000;stroke-width:0.49195638;stroke-linecap:butt;stroke-linejoin:miter;stroke-miterlimit:4;stroke-opacity:1;stroke-dasharray:1.96782553,1.96782553;stroke-dashoffset:0" />
    <path
       inkscape:connector-curvature="0"
       id="path3087-4"
       d="m 460,272.36218 0,175"
       style="fill:none;stroke:#000000;stroke-width:0.49195638;stroke-linecap:butt;stroke-linejoin:miter;stroke-miterlimit:4;stroke-opacity:1;stroke-dasharray:1.96782553,1.96782553;stroke-dashoffset:0" />
    <path
       inkscape:connector-curvature="0"
       id="path3089-7"
       d="m 490,272.36218 0,175"
       style="fill:none;stroke:#000000;stroke-width:0.49195638;stroke-linecap:butt;stroke-linejoin:miter;stroke-miterlimit:4;stroke-opacity:1;stroke-dasharray:1.96782553,1.96782553;stroke-dashoffset:0" />
    <path
       inkscape:connector-curvature="0"
       id="path3093-2"
       d="m 340,362.36218 180,0"
       style="fill:none;stroke:#000000;stroke-width:0.3736937;stroke-linecap:butt;stroke-linejoin:miter;stroke-miterlimit:4;stroke-opacity:1;stroke-dasharray:1.49477482,1.49477482;stroke-dashoffset:0" />
    <path
       inkscape:connector-curvature="0"
       id="path3095-4"
       d="m 520,392.36218 -180,0"
       style="fill:none;stroke:#000000;stroke-width:0.3736937;stroke-linecap:butt;stroke-linejoin:miter;stroke-miterlimit:4;stroke-opacity:1;stroke-dasharray:1.49477482,1.49477482;stroke-dashoffset:0" />
    <path
       inkscape:connector-curvature="0"
       id="path3097-0"
       d="m 340,417.36218 180,0"
       style="fill:none;stroke:#000000;stroke-width:0.3736937;stroke-linecap:butt;stroke-linejoin:miter;stroke-miterlimit:4;stroke-opacity:1;stroke-dasharray:1.49477482,1.49477482;stroke-dashoffset:0" />
    <path
       inkscape:connector-curvature="0"
       id="path3099-6"
       d="m 340,332.36218 180,0"
       style="fill:none;stroke:#000000;stroke-width:0.3736937;stroke-linecap:butt;stroke-linejoin:miter;stroke-miterlimit:4;stroke-opacity:1;stroke-dasharray:1.49477482,1.49477482;stroke-dashoffset:0" />
    <path
       inkscape:connector-curvature="0"
       id="path3877-2"
       d="m 340,302.36218 180,0"
       style="fill:none;stroke:#000000;stroke-width:0.39880121;stroke-linecap:butt;stroke-linejoin:miter;stroke-miterlimit:4;stroke-opacity:1;stroke-dasharray:1.59520483,1.59520483;stroke-dashoffset:0" />
    <path
       transform="translate(2.5029532,2.5151126)"
       d="m 430,359.86218 a 2.5,2.5 0 1 1 -5,0 2.5,2.5 0 1 1 5,0 z"
       sodipodi:ry="2.5"
       sodipodi:rx="2.5"
       sodipodi:cy="359.86218"
       sodipodi:cx="427.5"
       id="path3301"
       style="fill:#241c1c;fill-rule:evenodd;stroke:#241c1c;stroke-width:1px;stroke-linecap:butt;stroke-linejoin:miter;stroke-opacity:1"
       sodipodi:type="arc" />
    <g
       id="g3367"
       transform="matrix(0.2606981,0,0,0.21923571,179.23059,276.60714)">
      <g
         word-spacing="normal"
         letter-spacing="normal"
         font-size-adjust="none"
         font-stretch="normal"
         font-weight="normal"
         font-variant="normal"
         font-style="normal"
         stroke-miterlimit="10.433"
         xml:space="preserve"
         transform="matrix(1.0629921,0,0,-1.0629921,-186.02362,789.27165)"
         id="content"
         style="font-style:normal;font-variant:normal;font-weight:normal;font-stretch:normal;letter-spacing:normal;word-spacing:normal;text-anchor:start;fill:none;stroke:#000000;stroke-linecap:butt;stroke-linejoin:miter;stroke-miterlimit:10.43299961;stroke-opacity:1;stroke-dasharray:none;stroke-dashoffset:0"><path
           id="path3370"
           d="m 467.83,416.01 0.41,-0.09 0.41,-0.1 0.4,-0.1 0.2,-0.06 0.2,-0.06 0.19,-0.06 0.19,-0.06 0.18,-0.07 0.18,-0.08 0.18,-0.07 0.17,-0.09 0.16,-0.09 0.16,-0.09 0.16,-0.1 0.14,-0.11 0.14,-0.12 0.13,-0.12 0.12,-0.13 0.12,-0.14 0.1,-0.15 0.1,-0.16 0.09,-0.16 0.07,-0.18 0.07,-0.19 0.05,-0.2 0.05,-0.21 0.03,-0.22 0.01,-0.11 0.01,-0.12 0,-0.12 0,-0.13 c 0,-1.59 -1.34,-5.57 -6.46,-5.57 -1.1,0 -3.99,0.25 -4.79,2.79 2.54,0.25 2.54,2.33 2.54,2.44 0,0.94 -0.65,1.59 -1.69,1.59 -1.14,0 -2.55,-0.84 -2.55,-3.09 0,-3.03 2.89,-4.83 6.44,-4.83 7.47,0 9.36,6.08 9.36,8.38 0,4.33 -3.89,5.22 -5.92,5.67 -1.41,0.3 -3.19,0.7 -3.19,2.84 0,1.19 1.05,4.58 5.03,4.58 1.34,0 3.19,-0.5 3.73,-2.44 -1.59,-0.2 -2,-1.54 -2,-2.04 0,-0.55 0.3,-1.39 1.5,-1.39 0.85,0 2.14,0.59 2.14,2.73 0,2.3 -2.04,4.23 -5.32,4.23 -5.83,0 -7.88,-4.78 -7.88,-7.37 0,-3.83 3.24,-4.53 4.64,-4.83 z"
           inkscape:connector-curvature="0"
           style="fill:#000000;stroke-width:0" /><path
           id="path3372"
           d="m 488.87,426.12 h 4.24 c 0.84,0 1.39,0 1.39,0.95 0,0.6 -0.44,0.6 -1.24,0.6 h -3.98 l 1.84,7.37 c 0.19,0.71 0.19,0.8 0.19,1.05 0,1.05 -0.85,1.3 -1.35,1.3 -1.25,0 -1.73,-1.05 -1.93,-1.8 l -1.96,-7.92 h -4.23 c -0.84,0 -1.39,0 -1.39,-0.94 0,-0.61 0.45,-0.61 1.25,-0.61 h 3.98 l -3.59,-14.3 c -0.05,-0.18 -0.25,-0.98 -0.25,-1.68 0,-2.5 1.66,-4.49 4.23,-4.49 5.05,0 7.58,7.42 7.58,7.67 0,0.5 -0.39,0.5 -0.75,0.5 -0.59,0 -0.59,-0.04 -0.98,-0.95 -0.91,-2.39 -2.89,-6.12 -5.74,-6.12 -1.34,0 -1.34,1.25 -1.34,2.04 0,0.35 0,1.14 0.34,2.53 z"
           inkscape:connector-curvature="0"
           style="fill:#000000;stroke-width:0" /><path
           id="path3374"
           d="m 505.34,420.54 0,0.01 0.01,0.03 0.01,0.02 0.01,0.04 0.02,0.05 0.02,0.05 0.02,0.06 0.03,0.07 0.03,0.08 0.03,0.08 0.03,0.08 0.04,0.1 0.09,0.2 0.1,0.23 0.11,0.24 0.13,0.26 0.13,0.27 0.15,0.28 0.17,0.29 0.17,0.3 0.19,0.31 0.2,0.3 0.21,0.3 0.23,0.31 0.24,0.29 0.25,0.29 0.26,0.28 0.27,0.27 0.29,0.25 0.3,0.24 0.31,0.21 0.33,0.2 0.16,0.09 0.17,0.08 0.17,0.08 0.18,0.06 0.18,0.07 0.18,0.05 0.18,0.05 0.19,0.04 0.19,0.03 0.2,0.02 0.19,0.02 0.2,0 c 0.24,0 1.64,0 2.64,-0.69 -1.75,-0.56 -1.9,-2.15 -1.9,-2.39 0,-0.65 0.45,-1.61 1.75,-1.61 0.89,0 2.44,0.71 2.44,2.64 0,2.6 -3.24,3.14 -4.88,3.14 -3.44,0 -5.23,-2.48 -6.03,-3.57 -0.55,2.64 -2.5,3.57 -4.14,3.57 -1.8,0 -2.78,-1.14 -3.58,-2.64 -0.95,-1.98 -1.59,-4.92 -1.59,-5.03 0,-0.5 0.5,-0.5 0.73,-0.5 0.66,0 0.7,0.07 0.95,1.16 0.9,3.48 1.85,5.92 3.4,5.92 1.29,0 1.29,-1.44 1.29,-1.98 0,-0.8 -0.15,-1.75 -0.36,-2.55 l -3.73,-14.95 c -0.1,-0.3 -0.14,-0.55 -0.14,-0.69 0,-0.55 0.39,-1.3 1.39,-1.3 1.5,0 1.84,1.44 1.94,1.85 z"
           inkscape:connector-curvature="0"
           style="fill:#000000;stroke-width:0" /><path
           id="path3376"
           d="m 522.86,417.71 0.14,0.01 0.16,0 0.17,0 0.17,0 0.19,0.01 0.19,0 0.2,0.01 0.2,0.01 0.22,0.01 0.22,0.02 0.22,0.01 0.23,0.02 0.48,0.04 0.48,0.05 0.5,0.07 0.51,0.07 0.51,0.09 0.5,0.11 0.5,0.11 0.25,0.07 0.24,0.07 0.24,0.07 0.24,0.08 0.23,0.08 0.23,0.09 c 3.94,1.59 3.94,4.83 3.94,5.17 0,2.3 -1.85,4.23 -5.04,4.23 v -1.09 c 2,0 3.14,-1.34 3.14,-3.03 0,-5.28 -8.21,-5.28 -9.85,-5.28 h -1.05 c 2.14,8.17 7.26,8.31 7.76,8.31 v 1.09 c -5.23,0 -12.36,-5.03 -12.36,-13.84 0,-4.48 2.41,-8.72 7.13,-8.72 6.39,0 10.52,4.99 10.52,5.74 0,0.25 -0.39,0.79 -0.8,0.79 -0.2,0 -0.25,-0.06 -0.64,-0.54 -3.69,-4.69 -8.13,-4.89 -8.97,-4.89 -3.24,0 -3.78,3.53 -3.78,5.48 0,1.89 0.48,4.13 0.84,5.48 z"
           inkscape:connector-curvature="0"
           style="fill:#000000;stroke-width:0" /><path
           id="path3378"
           d="m 548.74,409.14 0.06,-0.23 0.06,-0.21 0.07,-0.21 0.08,-0.2 0.08,-0.2 0.09,-0.18 0.09,-0.18 0.1,-0.17 0.11,-0.16 0.11,-0.15 0.12,-0.15 0.12,-0.14 0.13,-0.13 0.13,-0.12 0.13,-0.12 0.14,-0.11 0.14,-0.1 0.15,-0.1 0.14,-0.09 0.15,-0.08 0.16,-0.07 0.15,-0.07 0.16,-0.06 0.16,-0.06 0.16,-0.04 0.16,-0.05 0.16,-0.03 0.16,-0.03 0.17,-0.02 0.16,-0.02 0.16,0 0.17,-0.01 c 1.84,0 2.89,1.25 3.64,2.78 0.9,1.91 1.5,4.8 1.5,4.89 0,0.5 -0.41,0.5 -0.75,0.5 -0.6,0 -0.64,-0.04 -0.96,-1.14 -0.68,-2.79 -1.64,-5.93 -3.32,-5.93 -1.3,0 -1.3,1.34 -1.3,2.04 0,0.35 0,1.14 0.34,2.53 l 3.39,13.57 c 0.21,0.68 0.21,0.79 0.21,1.04 0,1.05 -0.85,1.3 -1.35,1.3 -1.59,0 -1.95,-1.7 -2,-1.95 -0.93,2.14 -2.53,2.93 -4.12,2.93 v -1.09 c 2.19,0 3.44,-2.59 3.44,-4.69 0,-0.09 -0.07,-0.34 -0.16,-0.64 h 0 l -2.34,-9.42 c -0.39,-1.59 -3.49,-5.62 -6.22,-5.62 -2.35,0 -2.75,2.93 -2.75,4.43 0,2.49 1.54,8.32 2.43,10.41 1.25,3.05 3.55,5.53 5.6,5.53 v 1.09 c -5.53,0 -11.42,-7.56 -11.42,-14.84 0,-4.23 2.29,-7.72 6.03,-7.72 1.79,0 3.98,1.05 5.98,3.49 z"
           inkscape:connector-curvature="0"
           style="fill:#000000;stroke-width:0" /><path
           id="path3380"
           d="m 568.24,414.92 0.1,0.41 0.1,0.4 0.1,0.4 0.1,0.41 0.1,0.4 0.1,0.4 0.1,0.4 0.1,0.41 c 0.66,2.44 0.66,2.55 1.25,3.6 1.45,2.48 3.59,5.37 7.03,5.37 2.28,0 2.28,-2.53 2.28,-3.28 0,-1.34 -0.34,-2.8 -0.44,-3.25 l -3.25,-12.95 c -0.09,-0.3 -0.14,-0.55 -0.14,-0.69 0,-0.55 0.39,-1.3 1.39,-1.3 0.6,0 1.46,0.35 1.8,1.3 l 1.99,7.97 c 0.25,1.09 0.56,2.14 0.79,3.23 0.66,2.44 0.66,2.55 1.25,3.6 1.46,2.48 3.6,5.37 7.03,5.37 2.28,0 2.28,-2.53 2.28,-3.28 0,-3.09 -2.18,-9.02 -2.87,-11.02 -0.66,-1.68 -0.81,-2.14 -0.81,-3.18 0,-2.19 1.4,-3.99 3.79,-3.99 4.63,0 6.33,7.42 6.33,7.67 0,0.5 -0.4,0.5 -0.75,0.5 -0.65,0 -0.65,-0.11 -0.84,-0.84 -0.41,-1.34 -1.75,-6.23 -4.64,-6.23 -1.05,0 -1.1,0.75 -1.1,1.45 0,1.23 0.5,2.53 0.89,3.73 1,2.64 3.05,8.22 3.05,11.11 0,4.19 -2.89,5.17 -5.23,5.17 -3.49,0 -5.97,-2.18 -7.47,-4.37 -0.41,3.44 -2.99,4.37 -5.24,4.37 -2.98,0 -5.42,-1.64 -7.12,-3.93 -0.34,2.45 -2.05,3.93 -4.19,3.93 -1.8,0 -2.78,-1.14 -3.58,-2.64 -0.95,-1.98 -1.59,-4.92 -1.59,-5.03 0,-0.5 0.5,-0.5 0.73,-0.5 0.66,0 0.71,0.07 0.96,1.16 0.89,3.48 1.84,5.92 3.39,5.92 1.29,0 1.29,-1.44 1.29,-1.98 0,-0.8 -0.15,-1.75 -0.35,-2.55 l -3.74,-14.95 c -0.09,-0.3 -0.14,-0.55 -0.14,-0.69 0,-0.55 0.39,-1.3 1.39,-1.3 0.59,0 1.45,0.35 1.8,1.3 z"
           inkscape:connector-curvature="0"
           style="fill:#000000;stroke-width:0" /><path
           id="path3382"
           d="m 613.95,413.32 0,0.03 0,0.02 0,0.02 0,0.02 0,0.02 -0.01,0.02 0,0.02 0,0.02 -0.01,0.02 0,0.01 -0.01,0.02 -0.01,0.02 0,0.01 -0.01,0.02 -0.01,0.01 0,0.01 -0.01,0.02 -0.01,0.01 -0.02,0.02 -0.02,0.02 -0.02,0.02 -0.02,0.02 -0.02,0.02 -0.03,0.01 -0.03,0.01 -0.02,0.01 -0.03,0.01 -0.03,0.01 -0.03,0.01 -0.03,0 -0.03,0.01 -0.03,0 -0.03,0.01 -0.03,0 -0.04,0 -0.06,0 -0.07,0 -0.06,0 c -0.66,0 -0.66,-0.11 -0.86,-0.84 -0.39,-1.45 -1.74,-6.23 -4.63,-6.23 -0.4,0 -1.09,0.04 -1.09,1.39 0,1.29 0.64,2.93 1.3,4.78 l 3.18,8.53 c 0.5,1.44 0.6,1.84 0.6,2.78 0,2.75 -1.89,3.98 -3.74,3.98 -4.68,0 -6.37,-7.42 -6.37,-7.67 0,-0.5 0.5,-0.5 0.73,-0.5 0.66,0 0.71,0.11 0.91,0.8 0.45,1.66 1.73,6.28 4.63,6.28 0.54,0 1.1,-0.25 1.1,-1.39 0,-1.2 -0.56,-2.64 -0.9,-3.59 l -1.49,-4.13 c -0.65,-1.65 -1.25,-3.3 -1.84,-4.94 -0.7,-1.89 -0.91,-2.43 -0.91,-3.43 0,-1.94 1.21,-3.99 3.78,-3.99 4.69,0 6.33,7.47 6.33,7.67 z"
           inkscape:connector-curvature="0"
           style="fill:#000000;stroke-width:0" /><path
           id="path3384"
           d="m 613.7,437.23 0,0.06 0,0.05 0,0.06 -0.01,0.05 0,0.06 -0.01,0.05 -0.02,0.1 -0.02,0.1 -0.03,0.09 -0.04,0.08 -0.03,0.09 -0.04,0.07 -0.05,0.08 -0.04,0.07 -0.06,0.06 -0.05,0.07 -0.06,0.05 -0.06,0.06 -0.06,0.05 -0.06,0.04 -0.07,0.05 -0.06,0.04 -0.07,0.03 -0.07,0.04 -0.07,0.02 -0.07,0.03 -0.07,0.02 -0.08,0.02 -0.07,0.02 -0.07,0.02 -0.07,0.01 -0.07,0.01 -0.07,0 -0.07,0.01 -0.06,0 c -1.05,0 -2.4,-1 -2.4,-2.39 0,-1.25 1,-1.66 1.69,-1.66 1,0 2.39,0.95 2.39,2.39 z"
           inkscape:connector-curvature="0"
           style="fill:#000000;stroke-width:0" /><path
           id="path3386"
           d="m 624.16,414.92 0.1,0.41 0.09,0.4 0.11,0.4 0.1,0.41 0.1,0.4 0.1,0.4 0.1,0.4 0.1,0.41 c 0.65,2.55 0.65,2.6 1.5,4.05 0.7,1.19 2.94,4.92 6.73,4.92 2.19,0 2.28,-2.23 2.28,-3.28 0,-3.09 -2.19,-9.02 -2.89,-11.02 -0.64,-1.68 -0.8,-2.14 -0.8,-3.18 0,-2.19 1.41,-3.99 3.8,-3.99 4.63,0 6.33,7.42 6.33,7.67 0,0.5 -0.41,0.5 -0.75,0.5 -0.66,0 -0.66,-0.11 -0.86,-0.84 -0.39,-1.34 -1.73,-6.23 -4.62,-6.23 -1.05,0 -1.1,0.75 -1.1,1.45 0,1.23 0.5,2.53 0.89,3.73 1,2.64 3.05,8.22 3.05,11.11 0,4.08 -2.75,5.17 -5.19,5.17 -4.08,0 -6.47,-2.98 -7.12,-3.93 -0.35,2.45 -2.05,3.93 -4.19,3.93 -1.8,0 -2.78,-1.14 -3.58,-2.64 -0.95,-1.98 -1.59,-4.92 -1.59,-5.03 0,-0.5 0.5,-0.5 0.73,-0.5 0.66,0 0.7,0.07 0.95,1.16 0.9,3.48 1.85,5.92 3.4,5.92 1.29,0 1.29,-1.44 1.29,-1.98 0,-0.8 -0.15,-1.75 -0.36,-2.55 l -3.73,-14.95 c -0.1,-0.3 -0.14,-0.55 -0.14,-0.69 0,-0.55 0.39,-1.3 1.39,-1.3 0.59,0 1.45,0.35 1.8,1.3 z"
           inkscape:connector-curvature="0"
           style="fill:#000000;stroke-width:0" /><path
           id="path3388"
           d="m 657.51,408.84 -1.05,-4.19 c -0.59,-2.48 -0.91,-3.53 -2.3,-5.23 -1.98,-2.35 -3.98,-2.35 -4.73,-2.35 -0.64,0 -2.19,0 -3.53,0.57 1,0.39 1.59,1.43 1.59,2.28 0,0.65 -0.45,1.59 -1.75,1.59 -0.89,0 -2.44,-0.69 -2.44,-2.64 0,-1.98 1.85,-2.89 6.04,-2.89 5.23,0 9.01,3.3 9.96,7.08 l 5.43,21.83 c 0.2,0.75 0.2,0.84 0.2,1.04 0,1.05 -0.84,1.3 -1.34,1.3 -0.61,0 -1.75,-0.41 -1.96,-1.84 -0.68,1.43 -2.03,2.82 -4.17,2.82 v -1.09 c 2.99,0 3.44,-4.19 3.44,-4.58 l -0.16,-0.7 -2.23,-9.06 c -0.41,-1.6 -3.46,-5.49 -6.19,-5.49 -2.69,0 -2.78,3.78 -2.78,4.35 0,2.39 1.48,8.22 2.53,10.56 1.25,2.69 3.44,4.92 5.39,4.92 v 1.09 c -5.59,0 -11.31,-7.37 -11.31,-14.39 0,-4.23 2.34,-7.62 6.08,-7.62 2.53,0 4.67,2.05 5.28,2.64 z"
           inkscape:connector-curvature="0"
           style="fill:#000000;stroke-width:0" /></g>    </g>
  </g>
</svg>
