<?xml version="1.0" encoding="UTF-8" standalone="no"?>
<!-- Created with Inkscape (http://www.inkscape.org/) -->

<svg
   xmlns:dc="http://purl.org/dc/elements/1.1/"
   xmlns:cc="http://creativecommons.org/ns#"
   xmlns:rdf="http://www.w3.org/1999/02/22-rdf-syntax-ns#"
   xmlns:svg="http://www.w3.org/2000/svg"
   xmlns="http://www.w3.org/2000/svg"
   xmlns:sodipodi="http://sodipodi.sourceforge.net/DTD/sodipodi-0.dtd"
   xmlns:inkscape="http://www.inkscape.org/namespaces/inkscape"
   width="496.15405"
   height="392.38141"
   id="svg2"
   version="1.1"
   inkscape:version="0.48.2 r9819"
   sodipodi:docname="mu.svg">
  <sodipodi:namedview
     id="base"
     pagecolor="#ffffff"
     bordercolor="#666666"
     borderopacity="1.0"
     inkscape:pageopacity="0.0"
     inkscape:pageshadow="2"
     inkscape:zoom="2.8170546"
     inkscape:cx="248.07703"
     inkscape:cy="223.94306"
     inkscape:document-units="px"
     inkscape:current-layer="layer1"
     showgrid="true"
     inkscape:window-width="2560"
     inkscape:window-height="1297"
     inkscape:window-x="0"
     inkscape:window-y="0"
     inkscape:window-maximized="1"
     inkscape:snap-grids="false"
     fit-margin-top="0"
     fit-margin-left="0"
     fit-margin-right="0"
     fit-margin-bottom="0">
    <inkscape:grid
       id="grid2985"
       type="xygrid"
       empspacing="5"
       visible="true"
       enabled="true"
       snapvisiblegridlinesonly="true" />
  </sodipodi:namedview>
  <defs
     id="defs4">
    <marker
       style="overflow:visible"
       id="Arrow1Lend"
       refX="0"
       refY="0"
       orient="auto"
       inkscape:stockid="Arrow1Lend">
      <path
         transform="matrix(-0.8,0,0,-0.8,-10,0)"
         style="fill-rule:evenodd;stroke:#000000;stroke-width:1pt;marker-start:none"
         d="M 0,0 5,-5 -12.5,0 5,5 0,0 z"
         id="path3763"
         inkscape:connector-curvature="0" />
    </marker>
    <marker
       style="overflow:visible"
       id="Arrow1Lend-6"
       refX="0"
       refY="0"
       orient="auto"
       inkscape:stockid="Arrow1Lend">
      <path
         transform="matrix(-0.8,0,0,-0.8,-10,0)"
         style="fill-rule:evenodd;stroke:#000000;stroke-width:1pt;marker-start:none"
         d="M 0,0 5,-5 -12.5,0 5,5 0,0 z"
         id="path3763-8"
         inkscape:connector-curvature="0" />
    </marker>
  </defs>
  <metadata
     id="metadata7">
    <rdf:RDF>
      <cc:Work
         rdf:about="">
        <dc:format>image/svg+xml</dc:format>
        <dc:type
           rdf:resource="http://purl.org/dc/dcmitype/StillImage" />
        <dc:title />
      </cc:Work>
    </rdf:RDF>
  </metadata>
  <g
     id="layer1"
     inkscape:groupmode="layer"
     inkscape:label="Layer 1"
     transform="translate(-75.050763,-83.157178)">
    <path
       inkscape:connector-curvature="0"
       id="path2987"
       d="m 120,442.36218 c 450,0 450,0 450,0"
       style="fill:none;stroke:#000000;stroke-width:2.40965796;stroke-linecap:butt;stroke-linejoin:miter;stroke-miterlimit:4;stroke-opacity:1;stroke-dasharray:none;marker-end:url(#Arrow1Lend)" />
    <path
       inkscape:connector-curvature="0"
       id="path2987-3"
       d="m 120,442.36218 c 1.45422,-320 1.45422,-320 1.45422,-320"
       style="fill:none;stroke:#000000;stroke-width:2.03200936;stroke-linecap:butt;stroke-linejoin:miter;stroke-miterlimit:4;stroke-opacity:1;stroke-dasharray:none;marker-end:url(#Arrow1Lend)" />
    <path
       inkscape:connector-curvature="0"
       id="path4225"
       d="m 540,192.36218 -420,0"
       style="fill:none;stroke:#000000;stroke-width:1.5;stroke-linecap:butt;stroke-linejoin:miter;stroke-miterlimit:4;stroke-opacity:1;stroke-dasharray:18, 18;stroke-dashoffset:0" />
    <path
       inkscape:connector-curvature="0"
       id="path4225-0"
       d="m 540,372.36218 -420,0"
       style="fill:none;stroke:#000000;stroke-width:1.5;stroke-linecap:butt;stroke-linejoin:miter;stroke-miterlimit:4;stroke-opacity:1;stroke-dasharray:18, 18;stroke-dashoffset:0" />
    <path
       sodipodi:nodetypes="cc"
       inkscape:connector-curvature="0"
       id="path4245"
       d="M 120.45499,372.36287 C 132.33152,196.50844 403.31359,208.13165 530.00069,212.36151"
       style="fill:none;stroke:#000000;stroke-width:2.49862504;stroke-linecap:butt;stroke-linejoin:miter;stroke-miterlimit:4;stroke-opacity:1;stroke-dasharray:none" />
    <g
       transform="matrix(0.60365656,0,0,0.65659003,-102.40249,-125.48801)"
       id="g4262">
      <g
         style="font-style:normal;font-variant:normal;font-weight:normal;font-stretch:normal;letter-spacing:normal;word-spacing:normal;text-anchor:start;fill:none;stroke:#000000;stroke-linecap:butt;stroke-linejoin:miter;stroke-miterlimit:10.43299961;stroke-opacity:1;stroke-dasharray:none;stroke-dashoffset:0"
         word-spacing="normal"
         letter-spacing="normal"
         font-size-adjust="none"
         font-stretch="normal"
         font-weight="normal"
         font-variant="normal"
         font-style="normal"
         stroke-miterlimit="10.433"
         xml:space="preserve"
         transform="matrix(1.0629921,0,0,-1.0629921,-186.02362,789.27165)"
         id="content"><path
           style="fill:#000000;stroke-width:0"
           inkscape:connector-curvature="0"
           id="path4265"
           d="m 467.04,423.68 0.02,0.1 0.02,0.11 0.03,0.11 0.03,0.11 0.03,0.12 0.03,0.12 0.06,0.24 0.06,0.25 0.06,0.25 0.06,0.24 0.06,0.25 0.02,0.11 0.03,0.12 0.03,0.11 0.02,0.11 0.03,0.1 0.02,0.1 0.02,0.1 0.02,0.08 0.02,0.09 0.01,0.07 0.02,0.07 0.01,0.07 0.01,0.05 0,0.05 0.01,0.03 0,0.02 0,0.01 c 0,0.84 -0.59,1.34 -1.44,1.34 -0.15,0 -1.54,-0.04 -2,-1.78 l -7.17,-28.86 c -0.14,-0.59 -0.14,-0.68 -0.14,-0.79 0,-0.74 0.55,-1.35 1.39,-1.35 1.05,0 1.64,0.91 1.75,1.05 0.19,0.45 0.84,3.05 2.73,10.72 1.6,-1.34 3.83,-1.55 4.83,-1.55 3.49,0 5.44,2.24 6.63,3.64 0.45,-2.25 2.29,-3.64 4.48,-3.64 1.75,0 2.89,1.14 3.69,2.74 0.84,1.79 1.5,4.84 1.5,4.93 0,0.5 -0.45,0.5 -0.59,0.5 -0.5,0 -0.55,-0.2 -0.71,-0.9 -0.84,-3.24 -1.75,-6.17 -3.78,-6.17 -1.34,0 -1.5,1.29 -1.5,2.29 0,1.1 0.6,3.44 1,5.17 l 1.39,5.4 c 0.16,0.75 0.64,2.64 0.85,3.39 0.25,1.14 0.75,3.03 0.75,3.32 0,0.91 -0.71,1.35 -1.44,1.35 -0.25,0 -1.55,-0.05 -1.95,-1.74 l -2.35,-9.32 c -0.59,-2.49 -1.14,-4.58 -1.3,-5.08 -0.04,-0.25 -2.43,-4.78 -6.46,-4.78 -2.49,0 -3.69,1.64 -3.69,4.32 0,1.46 0.34,2.85 0.7,4.25 z" /><path
           style="fill:#000000;stroke-width:0"
           inkscape:connector-curvature="0"
           id="path4267"
           d="m 502,394.25 0,0.02 0,0.03 0,0.01 -0.01,0.02 0,0.01 0,0.02 -0.01,0.01 -0.01,0.02 0,0.02 -0.01,0.02 -0.02,0.02 -0.01,0.03 -0.02,0.02 -0.02,0.03 -0.02,0.03 -0.02,0.03 -0.03,0.03 -0.03,0.04 -0.01,0.02 -0.02,0.02 -0.02,0.02 -0.01,0.02 -0.02,0.02 -0.02,0.03 -0.02,0.02 -0.03,0.02 -0.02,0.03 -0.02,0.02 -0.03,0.03 -0.02,0.03 -0.03,0.03 -0.03,0.03 -0.03,0.03 -0.03,0.03 -0.03,0.03 -0.03,0.03 -0.03,0.04 -0.04,0.03 -0.03,0.04 -0.04,0.03 -0.04,0.04 -0.03,0.04 c -6.22,6.28 -7.82,15.69 -7.82,23.31 0,8.67 1.89,17.35 8.02,23.56 0.64,0.61 0.64,0.71 0.64,0.86 0,0.35 -0.19,0.49 -0.48,0.49 -0.5,0 -4.99,-3.38 -7.93,-9.7 -2.54,-5.49 -3.14,-11.02 -3.14,-15.21 0,-3.89 0.55,-9.9 3.28,-15.54 2.99,-6.13 7.29,-9.36 7.79,-9.36 0.29,0 0.48,0.14 0.48,0.5 z" /><path
           style="fill:#000000;stroke-width:0"
           inkscape:connector-curvature="0"
           id="path4269"
           d="m 524.11,436.64 0.04,0.14 0.04,0.14 0.03,0.14 0.04,0.12 0.04,0.12 0.05,0.12 0.04,0.11 0.05,0.1 0.06,0.1 0.05,0.09 0.07,0.08 0.07,0.08 0.08,0.08 0.08,0.07 0.09,0.07 0.1,0.06 0.11,0.05 0.12,0.06 0.13,0.04 0.14,0.05 0.15,0.04 0.16,0.03 0.17,0.03 0.1,0.02 0.09,0.01 0.1,0.01 0.1,0.01 0.11,0.01 0.11,0.01 0.11,0.01 0.12,0.01 0.12,0.01 0.13,0 0.12,0.01 0.14,0 0.13,0.01 0.15,0 0.14,0 0.15,0 0.16,0 0.15,0 c 1.05,0 1.53,0 1.53,0.96 0,0.59 -0.48,0.59 -0.68,0.59 -2,0 -4.1,-0.16 -6.13,-0.16 -2.04,0 -4.19,0.16 -6.23,0.16 -0.34,0 -0.96,0 -0.96,-0.91 0,-0.64 0.37,-0.64 1.37,-0.64 1.68,0 3.12,0 3.12,-0.84 0,-0.16 -0.09,-0.8 -0.14,-0.95 l -6.78,-27.1 c -0.39,-1.65 -0.85,-2.04 -4.19,-2.04 -1.05,0 -1.48,0 -1.48,-0.91 0,-0.55 0.34,-0.64 0.68,-0.64 2,0 4.1,0.16 6.14,0.16 2.03,0 4.18,-0.16 6.18,-0.16 0.34,0 1,0 1,0.95 0,0.6 -0.41,0.6 -1.41,0.6 -3.08,0 -3.08,0.34 -3.08,0.89 0,0.04 0,0.36 0.21,1.09 z" /><path
           style="fill:#000000;stroke-width:0"
           inkscape:connector-curvature="0"
           id="path4271"
           d="m 538.54,418.65 0,0.37 0,0.39 -0.01,0.39 -0.02,0.41 -0.04,0.84 -0.06,0.88 -0.08,0.92 -0.1,0.95 -0.14,0.97 -0.16,1.01 -0.2,1.02 -0.23,1.03 -0.27,1.05 -0.3,1.06 -0.35,1.07 -0.39,1.07 -0.22,0.53 -0.22,0.53 -0.24,0.53 -0.25,0.53 c -2.98,6.12 -7.26,9.36 -7.76,9.36 -0.3,0 -0.5,-0.19 -0.5,-0.49 0,-0.15 0,-0.25 0.93,-1.15 4.89,-4.92 7.74,-12.85 7.74,-23.27 0,-8.51 -1.85,-17.28 -8.03,-23.56 -0.64,-0.59 -0.64,-0.7 -0.64,-0.84 0,-0.3 0.2,-0.5 0.5,-0.5 0.5,0 4.97,3.39 7.92,9.71 2.53,5.47 3.12,11 3.12,15.19 z" /></g>    </g>
    <g
       transform="matrix(0.70448504,0,0,0.79707011,-134.87769,95.65886)"
       id="g4365">
      <g
         style="font-style:normal;font-variant:normal;font-weight:normal;font-stretch:normal;letter-spacing:normal;word-spacing:normal;text-anchor:start;fill:none;stroke:#000000;stroke-linecap:butt;stroke-linejoin:miter;stroke-miterlimit:10.43299961;stroke-opacity:1;stroke-dasharray:none;stroke-dashoffset:0"
         word-spacing="normal"
         letter-spacing="normal"
         font-size-adjust="none"
         font-stretch="normal"
         font-weight="normal"
         font-variant="normal"
         font-style="normal"
         stroke-miterlimit="10.433"
         xml:space="preserve"
         transform="matrix(1.0629921,0,0,-1.0629921,-186.02362,789.27165)"
         id="g4367"><path
           style="fill:#000000;stroke-width:0"
           inkscape:connector-curvature="0"
           id="path4369"
           d="m 467.04,423.68 0.02,0.1 0.02,0.11 0.03,0.11 0.03,0.11 0.03,0.12 0.03,0.12 0.06,0.24 0.06,0.25 0.06,0.25 0.06,0.24 0.06,0.25 0.02,0.11 0.03,0.12 0.03,0.11 0.02,0.11 0.03,0.1 0.02,0.1 0.02,0.1 0.02,0.08 0.02,0.09 0.01,0.07 0.02,0.07 0.01,0.07 0.01,0.05 0,0.05 0.01,0.03 0,0.02 0,0.01 c 0,0.84 -0.59,1.34 -1.44,1.34 -0.15,0 -1.54,-0.04 -2,-1.78 l -7.17,-28.86 c -0.14,-0.59 -0.14,-0.68 -0.14,-0.79 0,-0.74 0.55,-1.35 1.39,-1.35 1.05,0 1.64,0.91 1.75,1.05 0.19,0.45 0.84,3.05 2.73,10.72 1.6,-1.34 3.83,-1.55 4.83,-1.55 3.49,0 5.44,2.24 6.63,3.64 0.45,-2.25 2.29,-3.64 4.48,-3.64 1.75,0 2.89,1.14 3.69,2.74 0.84,1.79 1.5,4.84 1.5,4.93 0,0.5 -0.45,0.5 -0.59,0.5 -0.5,0 -0.55,-0.2 -0.71,-0.9 -0.84,-3.24 -1.75,-6.17 -3.78,-6.17 -1.34,0 -1.5,1.29 -1.5,2.29 0,1.1 0.6,3.44 1,5.17 l 1.39,5.4 c 0.16,0.75 0.64,2.64 0.85,3.39 0.25,1.14 0.75,3.03 0.75,3.32 0,0.91 -0.71,1.35 -1.44,1.35 -0.25,0 -1.55,-0.05 -1.95,-1.74 l -2.35,-9.32 c -0.59,-2.49 -1.14,-4.58 -1.3,-5.08 -0.04,-0.25 -2.43,-4.78 -6.46,-4.78 -2.49,0 -3.69,1.64 -3.69,4.32 0,1.46 0.34,2.85 0.7,4.25 z" /><path
           style="fill:#000000;stroke-width:0"
           inkscape:connector-curvature="0"
           id="path4371"
           d="m 500.47,411.73 -0.02,-0.01 -0.02,-0.01 -0.02,-0.01 -0.03,-0.02 -0.04,-0.02 -0.03,-0.02 -0.04,-0.02 -0.04,-0.02 -0.04,-0.03 -0.04,-0.03 -0.05,-0.04 -0.04,-0.03 -0.05,-0.04 -0.05,-0.04 -0.04,-0.04 -0.05,-0.04 -0.05,-0.05 -0.04,-0.05 -0.05,-0.05 -0.04,-0.06 -0.04,-0.05 -0.04,-0.06 -0.04,-0.06 -0.03,-0.07 -0.03,-0.06 -0.03,-0.07 -0.02,-0.07 -0.03,-0.08 -0.01,-0.07 -0.01,-0.08 -0.01,-0.04 0,-0.04 0,-0.05 -0.01,-0.04 c 0,-0.45 0.24,-1.05 1.11,-1.05 0.43,0 1.54,0.21 1.54,1.88 0,2.23 -2.38,3.03 -4.4,3.03 -4.98,0 -6.12,-3.75 -6.12,-5.11 0,-2.83 2.75,-3.34 4.03,-3.59 1.64,-0.31 3.59,-0.66 3.59,-2.44 0,-0.94 -0.87,-3.59 -5.04,-3.59 -1.1,0 -3.11,0.22 -3.85,1.7 1.22,0.31 1.44,1.33 1.44,1.72 0,0.65 -0.5,1.14 -1.22,1.14 -0.95,0 -1.81,-0.69 -1.81,-2.16 0,-2.09 2.16,-3.37 5.36,-3.37 5.95,0 7.31,4.22 7.31,5.78 0,1.05 -0.45,2.01 -1.28,2.75 -1.01,0.84 -1.87,1.01 -3.76,1.36 -1.05,0.2 -2.58,0.48 -2.58,1.92 0,0.63 0.59,2.92 3.9,2.92 0.8,0 2.3,-0.17 2.86,-1.42 z" /></g>    </g>
    <g
       transform="matrix(0.66694769,0,0,0.7582572,-124.89017,-76.461957)"
       id="g4427">
      <g
         style="font-style:normal;font-variant:normal;font-weight:normal;font-stretch:normal;letter-spacing:normal;word-spacing:normal;text-anchor:start;fill:none;stroke:#000000;stroke-linecap:butt;stroke-linejoin:miter;stroke-miterlimit:10.43299961;stroke-opacity:1;stroke-dasharray:none;stroke-dashoffset:0"
         id="g4429"
         transform="matrix(1.0629921,0,0,-1.0629921,-186.02362,789.27165)"
         xml:space="preserve"
         stroke-miterlimit="10.433"
         font-style="normal"
         font-variant="normal"
         font-weight="normal"
         font-stretch="normal"
         font-size-adjust="none"
         letter-spacing="normal"
         word-spacing="normal"><path
           style="fill:#000000;stroke-width:0"
           inkscape:connector-curvature="0"
           d="m 467.04,423.68 0.02,0.1 0.02,0.11 0.03,0.11 0.03,0.11 0.03,0.12 0.03,0.12 0.06,0.24 0.06,0.25 0.06,0.25 0.06,0.24 0.06,0.25 0.02,0.11 0.03,0.12 0.03,0.11 0.02,0.11 0.03,0.1 0.02,0.1 0.02,0.1 0.02,0.08 0.02,0.09 0.01,0.07 0.02,0.07 0.01,0.07 0.01,0.05 0,0.05 0.01,0.03 0,0.02 0,0.01 c 0,0.84 -0.59,1.34 -1.44,1.34 -0.15,0 -1.54,-0.04 -2,-1.78 l -7.17,-28.86 c -0.14,-0.59 -0.14,-0.68 -0.14,-0.79 0,-0.74 0.55,-1.35 1.39,-1.35 1.05,0 1.64,0.91 1.75,1.05 0.19,0.45 0.84,3.05 2.73,10.72 1.6,-1.34 3.83,-1.55 4.83,-1.55 3.49,0 5.44,2.24 6.63,3.64 0.45,-2.25 2.29,-3.64 4.48,-3.64 1.75,0 2.89,1.14 3.69,2.74 0.84,1.79 1.5,4.84 1.5,4.93 0,0.5 -0.45,0.5 -0.59,0.5 -0.5,0 -0.55,-0.2 -0.71,-0.9 -0.84,-3.24 -1.75,-6.17 -3.78,-6.17 -1.34,0 -1.5,1.29 -1.5,2.29 0,1.1 0.6,3.44 1,5.17 l 1.39,5.4 c 0.16,0.75 0.64,2.64 0.85,3.39 0.25,1.14 0.75,3.03 0.75,3.32 0,0.91 -0.71,1.35 -1.44,1.35 -0.25,0 -1.55,-0.05 -1.95,-1.74 l -2.35,-9.32 c -0.59,-2.49 -1.14,-4.58 -1.3,-5.08 -0.04,-0.25 -2.43,-4.78 -6.46,-4.78 -2.49,0 -3.69,1.64 -3.69,4.32 0,1.46 0.34,2.85 0.7,4.25 z"
           id="path4431" /><path
           style="fill:#000000;stroke-width:0"
           inkscape:connector-curvature="0"
           d="m 492.07,401.62 0.17,0.25 0.18,0.24 0.19,0.24 0.19,0.23 0.19,0.22 0.19,0.21 0.2,0.2 0.2,0.2 0.2,0.19 0.2,0.18 0.2,0.18 0.2,0.16 0.2,0.16 0.2,0.16 0.19,0.14 0.19,0.14 0.19,0.13 0.19,0.13 0.18,0.12 0.17,0.11 0.17,0.1 0.17,0.1 0.15,0.09 0.15,0.09 0.14,0.08 0.14,0.07 0.12,0.07 0.11,0.06 0.11,0.05 0.09,0.05 0.08,0.04 0.07,0.03 c 7.3,3.42 9.77,5.96 9.77,9.69 0,3.55 -2.66,6.17 -6.48,6.17 -5.36,0 -8.89,-6.2 -8.89,-8.95 0,-1.67 0.98,-2.49 2.2,-2.49 2.89,0 4.7,3.91 4.7,5.44 0,0.77 -0.48,2.03 -0.97,2.03 -0.25,0 -0.53,-0.25 -0.53,-0.5 0,-0.14 0.11,-0.31 0.17,-0.4 0.22,-0.36 0.36,-0.78 0.36,-1.16 0,-1.08 -1.5,-4.42 -3.7,-4.42 -0.73,0 -0.83,0.69 -0.83,1.22 0,2.33 2.92,8.25 7.42,8.25 1.6,0 3.75,-0.91 3.75,-4.08 0,-3.75 -1.7,-6.75 -7.51,-9.55 -6.77,-3.26 -7.78,-8.67 -7.78,-8.81 0,-0.42 0.42,-0.42 0.73,-0.42 0.56,0 0.63,0.05 0.77,0.53 0.28,0.87 0.95,2.09 1.98,2.09 1.19,0 2.27,-0.53 3.49,-1.22 0.95,-0.56 2.34,-1.4 3.9,-1.4 4.25,0 6.38,5.51 6.38,6.42 0,0.41 -0.49,0.41 -0.72,0.41 -0.56,0 -0.64,-0.07 -0.78,-0.49 -0.69,-2.12 -2.39,-3.69 -4.57,-3.69 -1.11,0 -2.64,0.29 -3.86,0.49 -0.59,0.14 -2.43,0.48 -3.79,0.48 z"
           id="path4433" /></g>    </g>
    <path
       inkscape:connector-curvature="0"
       id="path4758"
       d="m 480,122.36218 c 50,80 50,80 50,80"
       style="fill:none;stroke:#000000;stroke-width:2.44948959;stroke-linecap:butt;stroke-linejoin:miter;stroke-miterlimit:4;stroke-opacity:1;stroke-dasharray:none;marker-end:url(#Arrow1Lend-6)" />
    <text
       xml:space="preserve"
       style="font-size:32px;font-style:normal;font-variant:normal;font-weight:normal;font-stretch:normal;text-align:start;line-height:125%;letter-spacing:0px;word-spacing:0px;text-anchor:start;fill:#000000;fill-opacity:1;stroke:none;font-family:Times New Roman;-inkscape-font-specification:Sans"
       x="130.27792"
       y="407.36227"
       id="text3054"
       sodipodi:linespacing="125%"><tspan
         sodipodi:role="line"
         id="tspan3056"
         x="130.27792"
         y="407.36227">quasi-static regime</tspan></text>
    <text
       xml:space="preserve"
       style="font-size:32px;font-style:normal;font-variant:normal;font-weight:normal;font-stretch:normal;text-align:start;line-height:125%;letter-spacing:0px;word-spacing:0px;text-anchor:start;fill:#000000;fill-opacity:1;stroke:none;font-family:Times New Roman;-inkscape-font-specification:Sans"
       x="513.30212"
       y="473.74365"
       id="text3058"
       sodipodi:linespacing="125%"><tspan
         sodipodi:role="line"
         id="tspan3060"
         x="513.30212"
         y="473.74365"
         style="font-style:italic;-inkscape-font-specification:'Times New Roman, Italic'">I</tspan></text>
    <text
       xml:space="preserve"
       style="font-size:32px;font-style:normal;font-variant:normal;font-weight:normal;font-stretch:normal;text-align:start;line-height:125%;letter-spacing:0px;word-spacing:0px;text-anchor:start;fill:#000000;fill-opacity:1;stroke:none;font-family:Times New Roman;-inkscape-font-specification:Sans"
       x="118.56355"
       y="475.16357"
       id="text3062"
       sodipodi:linespacing="125%"><tspan
         sodipodi:role="line"
         id="tspan3064"
         x="118.56355"
         y="475.16357">0</tspan></text>
    <text
       xml:space="preserve"
       style="font-size:32px;font-style:normal;font-variant:normal;font-weight:normal;font-stretch:normal;text-align:start;line-height:125%;letter-spacing:0px;word-spacing:0px;text-anchor:start;fill:#000000;fill-opacity:1;stroke:none;font-family:Times New Roman;-inkscape-font-specification:Sans"
       x="294.98895"
       y="117.69801"
       id="text3066"
       sodipodi:linespacing="125%"><tspan
         sodipodi:role="line"
         id="tspan3068"
         x="294.98895"
         y="117.69801">kinetic regime</tspan></text>
  </g>
</svg>
