<?xml version="1.0" encoding="UTF-8" standalone="no"?>
<!-- Created with Inkscape (http://www.inkscape.org/) -->

<svg
   xmlns:dc="http://purl.org/dc/elements/1.1/"
   xmlns:cc="http://creativecommons.org/ns#"
   xmlns:rdf="http://www.w3.org/1999/02/22-rdf-syntax-ns#"
   xmlns:svg="http://www.w3.org/2000/svg"
   xmlns="http://www.w3.org/2000/svg"
   xmlns:sodipodi="http://sodipodi.sourceforge.net/DTD/sodipodi-0.dtd"
   xmlns:inkscape="http://www.inkscape.org/namespaces/inkscape"
   width="1052.3622"
   height="744.09448"
   id="svg2"
   version="1.1"
   inkscape:version="0.48.2 r9819"
   sodipodi:docname="multiscale.pdf">
  <sodipodi:namedview
     id="base"
     pagecolor="#ffffff"
     bordercolor="#666666"
     borderopacity="1.0"
     inkscape:pageopacity="0.0"
     inkscape:pageshadow="2"
     inkscape:zoom="1.5024974"
     inkscape:cx="324.17456"
     inkscape:cy="451.91427"
     inkscape:document-units="px"
     inkscape:current-layer="layer1"
     showgrid="true"
     inkscape:snap-global="false"
     inkscape:window-width="2560"
     inkscape:window-height="1297"
     inkscape:window-x="0"
     inkscape:window-y="0"
     inkscape:window-maximized="1"
     inkscape:snap-grids="false"
     showguides="true"
     inkscape:guide-bbox="true">
    <inkscape:grid
       snapvisiblegridlinesonly="true"
       enabled="true"
       visible="true"
       empspacing="5"
       id="grid2816"
       type="xygrid" />
    <sodipodi:guide
       orientation="1,0"
       position="465.89099,612.97943"
       id="guide3406" />
    <sodipodi:guide
       orientation="0,1"
       position="493.17889,368.71944"
       id="guide3424" />
    <sodipodi:guide
       orientation="0,1"
       position="337.43819,479.86772"
       id="guide3478" />
  </sodipodi:namedview>
  <defs
     id="defs4">
    <marker
       style="overflow:visible;"
       id="Arrow1Lend"
       refX="0.0"
       refY="0.0"
       orient="auto"
       inkscape:stockid="Arrow1Lend">
      <path
         transform="scale(0.8) rotate(180) translate(12.5,0)"
         style="fill-rule:evenodd;stroke:#000000;stroke-width:1.0pt;marker-start:none;"
         d="M 0.0,0.0 L 5.0,-5.0 L -12.5,0.0 L 5.0,5.0 L 0.0,0.0 z "
         id="path13198" />
    </marker>
    <inkscape:perspective
       id="perspective10"
       inkscape:persp3d-origin="372.04724 : 350.78739 : 1"
       inkscape:vp_z="744.09448 : 526.18109 : 1"
       inkscape:vp_y="0 : 1000 : 0"
       inkscape:vp_x="0 : 526.18109 : 1"
       sodipodi:type="inkscape:persp3d" />
    <inkscape:perspective
       sodipodi:type="inkscape:persp3d"
       inkscape:vp_x="0 : 0.5 : 1"
       inkscape:vp_y="0 : 1000 : 0"
       inkscape:vp_z="1 : 0.5 : 1"
       inkscape:persp3d-origin="0.5 : 0.33333333 : 1"
       id="perspective4139" />
    <inkscape:perspective
       sodipodi:type="inkscape:persp3d"
       inkscape:vp_x="0 : 0.5 : 1"
       inkscape:vp_y="0 : 1000 : 0"
       inkscape:vp_z="1 : 0.5 : 1"
       inkscape:persp3d-origin="0.5 : 0.33333333 : 1"
       id="perspective4176" />
    <inkscape:perspective
       sodipodi:type="inkscape:persp3d"
       inkscape:vp_x="0 : 0.5 : 1"
       inkscape:vp_y="0 : 1000 : 0"
       inkscape:vp_z="1 : 0.5 : 1"
       inkscape:persp3d-origin="0.5 : 0.33333333 : 1"
       id="perspective4176-0" />
    <inkscape:perspective
       sodipodi:type="inkscape:persp3d"
       inkscape:vp_x="0 : 0.5 : 1"
       inkscape:vp_y="0 : 1000 : 0"
       inkscape:vp_z="1 : 0.5 : 1"
       inkscape:persp3d-origin="0.5 : 0.33333333 : 1"
       id="perspective4176-2" />
    <inkscape:perspective
       sodipodi:type="inkscape:persp3d"
       inkscape:vp_x="0 : 0.5 : 1"
       inkscape:vp_y="0 : 1000 : 0"
       inkscape:vp_z="1 : 0.5 : 1"
       inkscape:persp3d-origin="0.5 : 0.33333333 : 1"
       id="perspective4176-7" />
    <inkscape:perspective
       sodipodi:type="inkscape:persp3d"
       inkscape:vp_x="0 : 0.5 : 1"
       inkscape:vp_y="0 : 1000 : 0"
       inkscape:vp_z="1 : 0.5 : 1"
       inkscape:persp3d-origin="0.5 : 0.33333333 : 1"
       id="perspective4176-8" />
    <inkscape:perspective
       sodipodi:type="inkscape:persp3d"
       inkscape:vp_x="0 : 0.5 : 1"
       inkscape:vp_y="0 : 1000 : 0"
       inkscape:vp_z="1 : 0.5 : 1"
       inkscape:persp3d-origin="0.5 : 0.33333333 : 1"
       id="perspective4176-9" />
    <inkscape:perspective
       sodipodi:type="inkscape:persp3d"
       inkscape:vp_x="0 : 0.5 : 1"
       inkscape:vp_y="0 : 1000 : 0"
       inkscape:vp_z="1 : 0.5 : 1"
       inkscape:persp3d-origin="0.5 : 0.33333333 : 1"
       id="perspective4176-1" />
    <inkscape:perspective
       sodipodi:type="inkscape:persp3d"
       inkscape:vp_x="0 : 0.5 : 1"
       inkscape:vp_y="0 : 1000 : 0"
       inkscape:vp_z="1 : 0.5 : 1"
       inkscape:persp3d-origin="0.5 : 0.33333333 : 1"
       id="perspective4176-3" />
    <inkscape:perspective
       sodipodi:type="inkscape:persp3d"
       inkscape:vp_x="0 : 0.5 : 1"
       inkscape:vp_y="0 : 1000 : 0"
       inkscape:vp_z="1 : 0.5 : 1"
       inkscape:persp3d-origin="0.5 : 0.33333333 : 1"
       id="perspective4176-5" />
    <inkscape:perspective
       sodipodi:type="inkscape:persp3d"
       inkscape:vp_x="0 : 0.5 : 1"
       inkscape:vp_y="0 : 1000 : 0"
       inkscape:vp_z="1 : 0.5 : 1"
       inkscape:persp3d-origin="0.5 : 0.33333333 : 1"
       id="perspective4272" />
    <inkscape:perspective
       sodipodi:type="inkscape:persp3d"
       inkscape:vp_x="0 : 0.5 : 1"
       inkscape:vp_y="0 : 1000 : 0"
       inkscape:vp_z="1 : 0.5 : 1"
       inkscape:persp3d-origin="0.5 : 0.33333333 : 1"
       id="perspective4300" />
    <inkscape:perspective
       sodipodi:type="inkscape:persp3d"
       inkscape:vp_x="0 : 0.5 : 1"
       inkscape:vp_y="0 : 1000 : 0"
       inkscape:vp_z="1 : 0.5 : 1"
       inkscape:persp3d-origin="0.5 : 0.33333333 : 1"
       id="perspective4300-8" />
    <inkscape:perspective
       sodipodi:type="inkscape:persp3d"
       inkscape:vp_x="0 : 0.5 : 1"
       inkscape:vp_y="0 : 1000 : 0"
       inkscape:vp_z="1 : 0.5 : 1"
       inkscape:persp3d-origin="0.5 : 0.33333333 : 1"
       id="perspective4300-6" />
    <inkscape:perspective
       sodipodi:type="inkscape:persp3d"
       inkscape:vp_x="0 : 0.5 : 1"
       inkscape:vp_y="0 : 1000 : 0"
       inkscape:vp_z="1 : 0.5 : 1"
       inkscape:persp3d-origin="0.5 : 0.33333333 : 1"
       id="perspective4300-4" />
    <inkscape:perspective
       sodipodi:type="inkscape:persp3d"
       inkscape:vp_x="0 : 0.5 : 1"
       inkscape:vp_y="0 : 1000 : 0"
       inkscape:vp_z="1 : 0.5 : 1"
       inkscape:persp3d-origin="0.5 : 0.33333333 : 1"
       id="perspective4300-1" />
    <inkscape:perspective
       sodipodi:type="inkscape:persp3d"
       inkscape:vp_x="0 : 0.5 : 1"
       inkscape:vp_y="0 : 1000 : 0"
       inkscape:vp_z="1 : 0.5 : 1"
       inkscape:persp3d-origin="0.5 : 0.33333333 : 1"
       id="perspective4300-2" />
    <inkscape:perspective
       sodipodi:type="inkscape:persp3d"
       inkscape:vp_x="0 : 0.5 : 1"
       inkscape:vp_y="0 : 1000 : 0"
       inkscape:vp_z="1 : 0.5 : 1"
       inkscape:persp3d-origin="0.5 : 0.33333333 : 1"
       id="perspective4300-3" />
    <inkscape:perspective
       sodipodi:type="inkscape:persp3d"
       inkscape:vp_x="0 : 0.5 : 1"
       inkscape:vp_y="0 : 1000 : 0"
       inkscape:vp_z="1 : 0.5 : 1"
       inkscape:persp3d-origin="0.5 : 0.33333333 : 1"
       id="perspective4300-9" />
    <inkscape:perspective
       sodipodi:type="inkscape:persp3d"
       inkscape:vp_x="0 : 0.5 : 1"
       inkscape:vp_y="0 : 1000 : 0"
       inkscape:vp_z="1 : 0.5 : 1"
       inkscape:persp3d-origin="0.5 : 0.33333333 : 1"
       id="perspective4300-17" />
    <inkscape:perspective
       sodipodi:type="inkscape:persp3d"
       inkscape:vp_x="0 : 0.5 : 1"
       inkscape:vp_y="0 : 1000 : 0"
       inkscape:vp_z="1 : 0.5 : 1"
       inkscape:persp3d-origin="0.5 : 0.33333333 : 1"
       id="perspective4300-67" />
    <inkscape:perspective
       sodipodi:type="inkscape:persp3d"
       inkscape:vp_x="0 : 0.5 : 1"
       inkscape:vp_y="0 : 1000 : 0"
       inkscape:vp_z="1 : 0.5 : 1"
       inkscape:persp3d-origin="0.5 : 0.33333333 : 1"
       id="perspective4415" />
    <inkscape:perspective
       sodipodi:type="inkscape:persp3d"
       inkscape:vp_x="0 : 0.5 : 1"
       inkscape:vp_y="0 : 1000 : 0"
       inkscape:vp_z="1 : 0.5 : 1"
       inkscape:persp3d-origin="0.5 : 0.33333333 : 1"
       id="perspective4415-0" />
    <inkscape:perspective
       sodipodi:type="inkscape:persp3d"
       inkscape:vp_x="0 : 0.5 : 1"
       inkscape:vp_y="0 : 1000 : 0"
       inkscape:vp_z="1 : 0.5 : 1"
       inkscape:persp3d-origin="0.5 : 0.33333333 : 1"
       id="perspective4415-8" />
    <inkscape:perspective
       sodipodi:type="inkscape:persp3d"
       inkscape:vp_x="0 : 0.5 : 1"
       inkscape:vp_y="0 : 1000 : 0"
       inkscape:vp_z="1 : 0.5 : 1"
       inkscape:persp3d-origin="0.5 : 0.33333333 : 1"
       id="perspective4415-00" />
    <inkscape:perspective
       sodipodi:type="inkscape:persp3d"
       inkscape:vp_x="0 : 0.5 : 1"
       inkscape:vp_y="0 : 1000 : 0"
       inkscape:vp_z="1 : 0.5 : 1"
       inkscape:persp3d-origin="0.5 : 0.33333333 : 1"
       id="perspective4415-3" />
    <inkscape:perspective
       sodipodi:type="inkscape:persp3d"
       inkscape:vp_x="0 : 0.5 : 1"
       inkscape:vp_y="0 : 1000 : 0"
       inkscape:vp_z="1 : 0.5 : 1"
       inkscape:persp3d-origin="0.5 : 0.33333333 : 1"
       id="perspective4415-7" />
    <inkscape:perspective
       sodipodi:type="inkscape:persp3d"
       inkscape:vp_x="0 : 0.5 : 1"
       inkscape:vp_y="0 : 1000 : 0"
       inkscape:vp_z="1 : 0.5 : 1"
       inkscape:persp3d-origin="0.5 : 0.33333333 : 1"
       id="perspective4415-4" />
    <inkscape:perspective
       sodipodi:type="inkscape:persp3d"
       inkscape:vp_x="0 : 0.5 : 1"
       inkscape:vp_y="0 : 1000 : 0"
       inkscape:vp_z="1 : 0.5 : 1"
       inkscape:persp3d-origin="0.5 : 0.33333333 : 1"
       id="perspective4415-38" />
    <inkscape:perspective
       sodipodi:type="inkscape:persp3d"
       inkscape:vp_x="0 : 0.5 : 1"
       inkscape:vp_y="0 : 1000 : 0"
       inkscape:vp_z="1 : 0.5 : 1"
       inkscape:persp3d-origin="0.5 : 0.33333333 : 1"
       id="perspective4500" />
    <inkscape:perspective
       sodipodi:type="inkscape:persp3d"
       inkscape:vp_x="0 : 0.5 : 1"
       inkscape:vp_y="0 : 1000 : 0"
       inkscape:vp_z="1 : 0.5 : 1"
       inkscape:persp3d-origin="0.5 : 0.33333333 : 1"
       id="perspective4528" />
  </defs>
  <metadata
     id="metadata7">
    <rdf:RDF>
      <cc:Work
         rdf:about="">
        <dc:format>image/svg+xml</dc:format>
        <dc:type
           rdf:resource="http://purl.org/dc/dcmitype/StillImage" />
        <dc:title></dc:title>
      </cc:Work>
    </rdf:RDF>
  </metadata>
  <g
     transform="translate(0,-308.2677)"
     id="layer1"
     inkscape:groupmode="layer"
     inkscape:label="Layer 1">
    <path
       id="path4589"
       d="m 690,482.36218 160,0 -160,-120 0,120 z"
       style="fill:#ffccaa;stroke:#000000;stroke-width:2;stroke-linecap:butt;stroke-linejoin:miter;stroke-miterlimit:4;stroke-opacity:1;stroke-dasharray:none" />
    <rect
       y="362.36218"
       x="510"
       height="119.99998"
       width="119.99999"
       id="rect4262"
       style="fill:#ffccaa;stroke:#2b0000;stroke-width:2;stroke-miterlimit:4;stroke-dasharray:none" />
    <path
       transform="matrix(1.6,0,0,1.6,-155,220.81101)"
       d="m 200,129.09448 c 0,13.80712 -11.19288,25 -25,25 -13.80712,0 -25,-11.19288 -25,-25 0,-13.80712 11.19288,-25 25,-25 13.80712,0 25,11.19288 25,25 z"
       sodipodi:ry="25"
       sodipodi:rx="25"
       sodipodi:cy="129.09448"
       sodipodi:cx="175"
       id="path3333"
       style="fill:none;stroke:#000000;stroke-width:1;stroke-linecap:butt;stroke-linejoin:miter;stroke-miterlimit:4;stroke-opacity:1;stroke-dasharray:none"
       sodipodi:type="arc" />
    <path
       transform="translate(-45,308.2677)"
       d="m 260,139.09448 c 0,19.32997 -15.67003,35 -35,35 -19.32997,0 -35,-15.67003 -35,-35 0,-19.32996 15.67003,-35 35,-35 19.32997,0 35,15.67004 35,35 z"
       sodipodi:ry="35"
       sodipodi:rx="35"
       sodipodi:cy="139.09448"
       sodipodi:cx="225"
       id="path3335"
       style="fill:none;stroke:#000000;stroke-width:1.60000002;stroke-linecap:butt;stroke-linejoin:miter;stroke-miterlimit:4;stroke-opacity:1;stroke-dasharray:none"
       sodipodi:type="arc" />
    <path
       id="path4111"
       d="m 147.21377,455.72815 c -1.16031,-4.60497 -1.0341,-12.87153 0.26472,-17.33933 0.6024,-2.07217 2.04317,-5.44979 3.20171,-7.50582 2.20292,-3.90945 9.91095,-12.05771 11.40625,-12.05771 1.84699,0 2.27874,10.46743 0.70675,17.1346 -1.57631,6.68552 -4.83302,12.54684 -10.03654,18.06345 l -4.71337,4.99696 -0.82952,-3.29215 0,0 z"
       style="fill:none;stroke-width:1.60000002;stroke-miterlimit:4;stroke-dasharray:none" />
    <path
       id="path4129"
       d="m 147.5946,458.13651 c -0.68571,-2.11341 -1.1732,-4.27824 -1.49945,-6.65861 -0.24385,-1.77923 -0.24409,-6.37415 -4.3e-4,-8.19952 1.00682,-7.54235 4.05952,-13.99682 9.21945,-19.49313 1.81916,-1.93775 4.82591,-4.34225 7.11997,-5.69386 l 0.52709,-0.31055 0.0619,0.27342 c 0.034,0.15037 0.12338,0.52241 0.19852,0.82675 0.0751,0.30434 0.24819,1.23331 0.38456,2.06439 1.028,6.26488 0.54886,12.57826 -1.41063,18.58702 -2.42216,7.42757 -7.11644,14.0415 -13.42378,18.91325 l -0.8611,0.66511 -0.31611,-0.97427 z"
       style="fill:#ff7f2a;stroke-width:1.60000002;stroke-miterlimit:4;stroke-dasharray:none" />
    <path
       transform="matrix(1.6,0,0,1.6,10,235.81101)"
       d="m 200,129.09448 a 25,25 0 1 1 -50,0 25,25 0 1 1 50,0 z"
       sodipodi:ry="25"
       sodipodi:rx="25"
       sodipodi:cy="129.09448"
       sodipodi:cx="175"
       id="path3333-0"
       style="fill:#ff7f2a;stroke:#000000;stroke-width:1;stroke-linecap:butt;stroke-linejoin:miter;stroke-miterlimit:4;stroke-opacity:1;stroke-dasharray:none"
       sodipodi:type="arc" />
    <path
       transform="matrix(1,0,0,0.97727273,-47.353105,310.95084)"
       d="m 455,151.59448 c 0,6.90356 -5.59644,12.5 -12.5,12.5 -6.90356,0 -12.5,-5.59644 -12.5,-12.5 0,-6.90356 5.59644,-12.5 12.5,-12.5 6.90356,0 12.5,5.59644 12.5,12.5 z"
       sodipodi:ry="12.5"
       sodipodi:rx="12.5"
       sodipodi:cy="151.59448"
       sodipodi:cx="442.5"
       id="path4153"
       style="fill:#ff7f2a;stroke:#2b0000;stroke-width:1.60000002;stroke-miterlimit:4;stroke-dasharray:none"
       sodipodi:type="arc" />
    <path
       d="m 455,151.59448 c 0,6.90356 -5.59644,12.5 -12.5,12.5 -6.90356,0 -12.5,-5.59644 -12.5,-12.5 0,-6.90356 5.59644,-12.5 12.5,-12.5 6.90356,0 12.5,5.59644 12.5,12.5 z"
       sodipodi:ry="12.5"
       sodipodi:rx="12.5"
       sodipodi:cy="151.59448"
       sodipodi:cx="442.5"
       id="path4153-7"
       style="fill:#ff7f2a;stroke:#2b0000;stroke-width:1.60000002;stroke-miterlimit:4;stroke-dasharray:none"
       sodipodi:type="arc"
       transform="matrix(1,0,0,0.97727273,-47.353105,286.51902)" />
    <path
       d="m 455,151.59448 c 0,6.90356 -5.59644,12.5 -12.5,12.5 -6.90356,0 -12.5,-5.59644 -12.5,-12.5 0,-6.90356 5.59644,-12.5 12.5,-12.5 6.90356,0 12.5,5.59644 12.5,12.5 z"
       sodipodi:ry="12.5"
       sodipodi:rx="12.5"
       sodipodi:cy="151.59448"
       sodipodi:cx="442.5"
       id="path4153-5"
       style="fill:#ff7f2a;stroke:#2b0000;stroke-width:1.60000002;stroke-miterlimit:4;stroke-dasharray:none"
       sodipodi:type="arc"
       transform="matrix(1,0,0,0.97727273,-25.323726,298.4841)" />
    <path
       d="m 455,151.59448 c 0,6.90356 -5.59644,12.5 -12.5,12.5 -6.90356,0 -12.5,-5.59644 -12.5,-12.5 0,-6.90356 5.59644,-12.5 12.5,-12.5 6.90356,0 12.5,5.59644 12.5,12.5 z"
       sodipodi:ry="12.5"
       sodipodi:rx="12.5"
       sodipodi:cy="151.59448"
       sodipodi:cx="442.5"
       id="path4153-9"
       style="fill:#ff7f2a;stroke:#2b0000;stroke-width:1.60000002;stroke-miterlimit:4;stroke-dasharray:none"
       sodipodi:type="arc"
       transform="matrix(1,0,0,0.97727273,-3.294347,312.2887)" />
    <path
       d="m 455,151.59448 c 0,6.90356 -5.59644,12.5 -12.5,12.5 -6.90356,0 -12.5,-5.59644 -12.5,-12.5 0,-6.90356 5.59644,-12.5 12.5,-12.5 6.90356,0 12.5,5.59644 12.5,12.5 z"
       sodipodi:ry="12.5"
       sodipodi:rx="12.5"
       sodipodi:cy="151.59448"
       sodipodi:cx="442.5"
       id="path4153-3"
       style="fill:#ff7f2a;stroke:#2b0000;stroke-width:1.60000002;stroke-miterlimit:4;stroke-dasharray:none"
       sodipodi:type="arc"
       transform="matrix(1,0,0,0.97727273,-25,274.21303)" />
    <path
       d="m 455,151.59448 c 0,6.90356 -5.59644,12.5 -12.5,12.5 -6.90356,0 -12.5,-5.59644 -12.5,-12.5 0,-6.90356 5.59644,-12.5 12.5,-12.5 6.90356,0 12.5,5.59644 12.5,12.5 z"
       sodipodi:ry="12.5"
       sodipodi:rx="12.5"
       sodipodi:cy="151.59448"
       sodipodi:cx="442.5"
       id="path4153-0"
       style="fill:#ff7f2a;stroke:#2b0000;stroke-width:1.60000002;stroke-miterlimit:4;stroke-dasharray:none"
       sodipodi:type="arc"
       transform="matrix(1,0,0,0.97727273,-2.029379,286.89957)" />
    <path
       d="m 455,151.59448 c 0,6.90356 -5.59644,12.5 -12.5,12.5 -6.90356,0 -12.5,-5.59644 -12.5,-12.5 0,-6.90356 5.59644,-12.5 12.5,-12.5 6.90356,0 12.5,5.59644 12.5,12.5 z"
       sodipodi:ry="12.5"
       sodipodi:rx="12.5"
       sodipodi:cy="151.59448"
       sodipodi:cx="442.5"
       id="path4153-2"
       style="fill:#ff7f2a;stroke:#2b0000;stroke-width:1.60000002;stroke-miterlimit:4;stroke-dasharray:none"
       sodipodi:type="arc"
       transform="matrix(1,0,0,0.97727273,-12.353105,252.31447)" />
    <path
       d="m 455,151.59448 c 0,6.90356 -5.59644,12.5 -12.5,12.5 -6.90356,0 -12.5,-5.59644 -12.5,-12.5 0,-6.90356 5.59644,-12.5 12.5,-12.5 6.90356,0 12.5,5.59644 12.5,12.5 z"
       sodipodi:ry="12.5"
       sodipodi:rx="12.5"
       sodipodi:cy="151.59448"
       sodipodi:cx="442.5"
       id="path4153-6"
       style="fill:#ff7f2a;stroke:#2b0000;stroke-width:1.60000002;stroke-miterlimit:4;stroke-dasharray:none"
       sodipodi:type="arc"
       transform="matrix(1,0,0,0.97727273,10.146895,264.53038)" />
    <path
       d="m 455,151.59448 c 0,6.90356 -5.59644,12.5 -12.5,12.5 -6.90356,0 -12.5,-5.59644 -12.5,-12.5 0,-6.90356 5.59644,-12.5 12.5,-12.5 6.90356,0 12.5,5.59644 12.5,12.5 z"
       sodipodi:ry="12.5"
       sodipodi:rx="12.5"
       sodipodi:cy="151.59448"
       sodipodi:cx="442.5"
       id="path4153-8"
       style="fill:#ff7f2a;stroke:#2b0000;stroke-width:1.60000002;stroke-miterlimit:4;stroke-dasharray:none"
       sodipodi:type="arc"
       transform="matrix(1,0,0,0.97727273,-29.853105,235.2122)" />
    <path
       d="m 455,151.59448 c 0,6.90356 -5.59644,12.5 -12.5,12.5 -6.90356,0 -12.5,-5.59644 -12.5,-12.5 0,-6.90356 5.59644,-12.5 12.5,-12.5 6.90356,0 12.5,5.59644 12.5,12.5 z"
       sodipodi:ry="12.5"
       sodipodi:rx="12.5"
       sodipodi:cy="151.59448"
       sodipodi:cx="442.5"
       id="path4153-50"
       style="fill:#ff7f2a;stroke:#2b0000;stroke-width:1.60000002;stroke-miterlimit:4;stroke-dasharray:none"
       sodipodi:type="arc"
       transform="matrix(1,0,0,0.97727273,2.646895,232.76902)" />
    <path
       d="m 455,151.59448 c 0,6.90356 -5.59644,12.5 -12.5,12.5 -6.90356,0 -12.5,-5.59644 -12.5,-12.5 0,-6.90356 5.59644,-12.5 12.5,-12.5 6.90356,0 12.5,5.59644 12.5,12.5 z"
       sodipodi:ry="12.5"
       sodipodi:rx="12.5"
       sodipodi:cy="151.59448"
       sodipodi:cx="442.5"
       id="path4153-9-9"
       style="fill:#ff7f2a;stroke:#2b0000;stroke-width:1.60000002;stroke-miterlimit:4;stroke-dasharray:none"
       sodipodi:type="arc"
       transform="matrix(1,0,0,0.97727273,-25.350199,323.24807)" />
    <rect
       transform="matrix(0.69073885,-0.72310431,0.72310431,0.69073885,0,0)"
       y="650.54694"
       x="57.211136"
       height="21.310242"
       width="21.222473"
       id="rect4405"
       style="fill:#ff7f2a;stroke:#2b0000;stroke-width:1.60000002;stroke-miterlimit:4;stroke-dasharray:none" />
    <rect
       transform="matrix(0.69073885,-0.72310431,0.72310431,0.69073885,0,0)"
       y="672.24005"
       x="77.933311"
       height="21.310242"
       width="21.222473"
       id="rect4405-2"
       style="fill:#ff7f2a;stroke:#2b0000;stroke-width:1.60000002;stroke-miterlimit:4;stroke-dasharray:none" />
    <rect
       transform="matrix(0.69073885,-0.72310431,0.72310431,0.69073885,0,0)"
       y="693.93323"
       x="98.655479"
       height="21.310242"
       width="21.222473"
       id="rect4405-3"
       style="fill:#ff7f2a;stroke:#2b0000;stroke-width:1.60000002;stroke-miterlimit:4;stroke-dasharray:none" />
    <rect
       transform="matrix(0.69073885,-0.72310431,0.72310431,0.69073885,0,0)"
       y="671.2691"
       x="35.518021"
       height="21.310242"
       width="21.222473"
       id="rect4405-0"
       style="fill:#ff7f2a;stroke:#2b0000;stroke-width:1.60000002;stroke-miterlimit:4;stroke-dasharray:none" />
    <rect
       transform="matrix(0.69073885,-0.72310431,0.72310431,0.69073885,0,0)"
       y="692.09387"
       x="14.310372"
       height="21.310242"
       width="21.222473"
       id="rect4405-7"
       style="fill:#ff7f2a;stroke:#2b0000;stroke-width:1.60000002;stroke-miterlimit:4;stroke-dasharray:none" />
    <rect
       transform="matrix(0.69073885,-0.72310431,0.72310431,0.69073885,0,0)"
       y="692.96222"
       x="56.240181"
       height="21.310242"
       width="21.222473"
       id="rect4405-9"
       style="fill:#ff7f2a;stroke:#2b0000;stroke-width:1.60000002;stroke-miterlimit:4;stroke-dasharray:none" />
    <rect
       transform="matrix(0.69073885,-0.72310431,0.72310431,0.69073885,0,0)"
       y="713.68439"
       x="34.54705"
       height="21.310242"
       width="21.222473"
       id="rect4405-6"
       style="fill:#ff7f2a;stroke:#2b0000;stroke-width:1.60000002;stroke-miterlimit:4;stroke-dasharray:none" />
    <rect
       transform="matrix(0.69073885,-0.72310431,0.72310431,0.69073885,0,0)"
       y="714.65533"
       x="76.962349"
       height="21.310242"
       width="21.222473"
       id="rect4405-93"
       style="fill:#ff7f2a;stroke:#2b0000;stroke-width:1.60000002;stroke-miterlimit:4;stroke-dasharray:none" />
    <rect
       transform="matrix(0.69073885,-0.72310431,0.72310431,0.69073885,0,0)"
       y="735.48016"
       x="55.754707"
       height="21.310242"
       width="21.222473"
       id="rect4405-03"
       style="fill:#ff7f2a;stroke:#2b0000;stroke-width:1.60000002;stroke-miterlimit:4;stroke-dasharray:none" />
    <rect
       transform="matrix(0.69073885,-0.72310431,0.72310431,0.69073885,0,0)"
       y="715.14087"
       x="119.39248"
       height="21.310242"
       width="21.222473"
       id="rect4405-3-3"
       style="fill:#ff7f2a;stroke:#2b0000;stroke-width:1.60000002;stroke-miterlimit:4;stroke-dasharray:none" />
    <rect
       transform="matrix(0.69073885,-0.72310431,0.72310431,0.69073885,0,0)"
       y="735.86298"
       x="97.699348"
       height="21.310242"
       width="21.222473"
       id="rect4405-93-1"
       style="fill:#ff7f2a;stroke:#2b0000;stroke-width:1.60000002;stroke-miterlimit:4;stroke-dasharray:none" />
    <rect
       transform="matrix(0.69073885,-0.72310431,0.72310431,0.69073885,0,0)"
       y="756.68781"
       x="76.491707"
       height="21.310242"
       width="21.222473"
       id="rect4405-03-3"
       style="fill:#ff7f2a;stroke:#2b0000;stroke-width:1.60000002;stroke-miterlimit:4;stroke-dasharray:none" />
    <rect
       transform="matrix(0.69073885,-0.72310431,0.72310431,0.69073885,0,0)"
       y="629.82483"
       x="78.904259"
       height="21.310242"
       width="21.222473"
       id="rect4405-07"
       style="fill:#ff7f2a;stroke:#2b0000;stroke-width:1.60000002;stroke-miterlimit:4;stroke-dasharray:none" />
    <rect
       transform="matrix(0.69073885,-0.72310431,0.72310431,0.69073885,0,0)"
       y="651.51794"
       x="99.626442"
       height="21.310242"
       width="21.222473"
       id="rect4405-2-0"
       style="fill:#ff7f2a;stroke:#2b0000;stroke-width:1.60000002;stroke-miterlimit:4;stroke-dasharray:none" />
    <rect
       transform="matrix(0.69073885,-0.72310431,0.72310431,0.69073885,0,0)"
       y="673.21112"
       x="120.34861"
       height="21.310242"
       width="21.222473"
       id="rect4405-3-0"
       style="fill:#ff7f2a;stroke:#2b0000;stroke-width:1.60000002;stroke-miterlimit:4;stroke-dasharray:none" />
    <rect
       transform="matrix(0.69073885,-0.72310431,0.72310431,0.69073885,0,0)"
       y="694.41876"
       x="141.08562"
       height="21.310242"
       width="21.222473"
       id="rect4405-3-3-6"
       style="fill:#ff7f2a;stroke:#2b0000;stroke-width:1.60000002;stroke-miterlimit:4;stroke-dasharray:none" />
    <path
       id="path4555"
       d="m 750,407.36218 c -60,0 -60,0 -60,0"
       style="fill:none;stroke:#000000;stroke-width:1.5;stroke-linecap:butt;stroke-linejoin:miter;stroke-miterlimit:4;stroke-opacity:1;stroke-dasharray:none" />
    <path
       id="path4559"
       d="m 690,422.36218 80,0"
       style="fill:none;stroke:#000000;stroke-width:1.5;stroke-linecap:butt;stroke-linejoin:miter;stroke-miterlimit:4;stroke-opacity:1;stroke-dasharray:none" />
    <path
       id="path4561"
       d="m 690,437.36218 100,0"
       style="fill:none;stroke:#000000;stroke-width:1.5;stroke-linecap:butt;stroke-linejoin:miter;stroke-miterlimit:4;stroke-opacity:1;stroke-dasharray:none" />
    <path
       id="path4563"
       d="m 810,452.36218 -120,0"
       style="fill:none;stroke:#000000;stroke-width:1.5;stroke-linecap:butt;stroke-linejoin:miter;stroke-miterlimit:4;stroke-opacity:1;stroke-dasharray:none" />
    <path
       id="path4565"
       d="m 690,467.36218 140,0"
       style="fill:none;stroke:#000000;stroke-width:1.5;stroke-linecap:butt;stroke-linejoin:miter;stroke-miterlimit:4;stroke-opacity:1;stroke-dasharray:none" />
    <path
       id="path4567"
       d="m 710,377.36218 0,105"
       style="fill:none;stroke:#000000;stroke-width:1.5;stroke-linecap:butt;stroke-linejoin:miter;stroke-miterlimit:4;stroke-opacity:1;stroke-dasharray:none" />
    <path
       id="path4569"
       d="m 730,392.36218 0,90"
       style="fill:none;stroke:#000000;stroke-width:1.5;stroke-linecap:butt;stroke-linejoin:miter;stroke-miterlimit:4;stroke-opacity:1;stroke-dasharray:none" />
    <path
       id="path4571"
       d="m 750,482.36218 0,-75"
       style="fill:none;stroke:#000000;stroke-width:1.5;stroke-linecap:butt;stroke-linejoin:miter;stroke-miterlimit:4;stroke-opacity:1;stroke-dasharray:none" />
    <path
       id="path4575"
       d="m 770,422.36218 0,60"
       style="fill:none;stroke:#000000;stroke-width:1.5;stroke-linecap:butt;stroke-linejoin:miter;stroke-miterlimit:4;stroke-opacity:1;stroke-dasharray:none" />
    <path
       id="path4577"
       d="m 790,437.36218 0,45"
       style="fill:none;stroke:#000000;stroke-width:1.5;stroke-linecap:butt;stroke-linejoin:miter;stroke-miterlimit:4;stroke-opacity:1;stroke-dasharray:none" />
    <path
       id="path4579"
       d="m 810,452.36218 0,30"
       style="fill:none;stroke:#000000;stroke-width:1.5;stroke-linecap:butt;stroke-linejoin:miter;stroke-miterlimit:4;stroke-opacity:1;stroke-dasharray:none" />
    <path
       id="path4581"
       d="m 830,467.36218 0,15"
       style="fill:none;stroke:#000000;stroke-width:1.5;stroke-linecap:butt;stroke-linejoin:miter;stroke-miterlimit:4;stroke-opacity:1;stroke-dasharray:none" />
    <path
       id="path4585"
       d="m 730,392.36218 c -40,0 -40,0 -40,0"
       style="fill:none;stroke:#000000;stroke-width:1.5;stroke-linecap:butt;stroke-linejoin:miter;stroke-miterlimit:4;stroke-opacity:1;stroke-dasharray:none" />
    <path
       id="path4587"
       d="m 690,377.36218 c 20,0 20,0 20,0"
       style="fill:none;stroke:#000000;stroke-width:1.5;stroke-linecap:butt;stroke-linejoin:miter;stroke-miterlimit:4;stroke-opacity:1;stroke-dasharray:none" />
    <g
       transform="matrix(0.43402306,0,0,0.41052303,12.353865,385.56546)"
       id="g4538">
      <g
         style="font-style:normal;font-variant:normal;font-weight:normal;font-stretch:normal;letter-spacing:normal;word-spacing:normal;text-anchor:start;fill:none;stroke:#000000;stroke-linecap:butt;stroke-linejoin:miter;stroke-miterlimit:10.43299961;stroke-opacity:1;stroke-dasharray:none;stroke-dashoffset:0"
         id="g4540"
         transform="matrix(1.0629921,0,0,-1.0629921,-186.02362,789.27165)"
         xml:space="preserve"
         stroke-miterlimit="10.433"
         font-style="normal"
         font-variant="normal"
         font-weight="normal"
         font-stretch="normal"
         font-size-adjust="none"
         letter-spacing="normal"
         word-spacing="normal"><path
           style="fill:#000000;stroke-width:0"
           inkscape:connector-curvature="0"
           d="m 468.68,427.96 -0.58,-0.15 -0.58,-0.18 -0.56,-0.21 -0.55,-0.24 -0.54,-0.26 -0.53,-0.28 -0.52,-0.31 -0.5,-0.33 -0.49,-0.35 -0.48,-0.38 -0.47,-0.39 -0.44,-0.41 -0.44,-0.42 -0.41,-0.45 -0.4,-0.46 -0.38,-0.47 -0.37,-0.49 -0.34,-0.5 -0.33,-0.51 -0.3,-0.52 -0.28,-0.53 -0.27,-0.53 -0.24,-0.55 -0.22,-0.55 -0.19,-0.56 -0.17,-0.56 -0.15,-0.57 -0.12,-0.56 -0.09,-0.57 -0.07,-0.57 -0.04,-0.57 -0.02,-0.57 c 0,-4.78 3.19,-8.35 7.88,-8.35 v 1.09 c -2.75,0 -4.78,2.09 -4.78,5.87 0,3.14 1.84,12.5 8.56,14.3 h 0 c 1.25,-2.28 2.73,-4.98 2.73,-8.56 0,-3.3 -1.89,-11.61 -6.51,-11.61 v -1.09 c 5.83,0 9.95,7.81 9.95,14.68 0,4.55 -1.98,7.03 -3.69,9.27 -1.78,2.25 -4.71,5.98 -4.71,8.17 0,1.11 0.98,2.3 2.73,2.3 1.5,0 2.48,-0.64 3.53,-1.35 1,-0.59 2,-1.25 2.75,-1.25 1.24,0 1.99,1.21 1.99,2 0,1.1 -0.8,1.24 -2.6,1.64 -2.58,0.55 -3.28,0.55 -4.08,0.55 -3.89,0 -5.68,-2.14 -5.68,-5.12 0,-2.71 1.45,-5.49 3,-8.54 z"
           id="path4542" /></g>    </g>
    <g
       transform="matrix(0.43402306,0,0,0.41052303,153.08047,386.42967)"
       id="g4824">
      <g
         style="font-style:normal;font-variant:normal;font-weight:normal;font-stretch:normal;letter-spacing:normal;word-spacing:normal;text-anchor:start;fill:none;stroke:#000000;stroke-linecap:butt;stroke-linejoin:miter;stroke-miterlimit:10.43299961;stroke-opacity:1;stroke-dasharray:none;stroke-dashoffset:0"
         word-spacing="normal"
         letter-spacing="normal"
         font-size-adjust="none"
         font-stretch="normal"
         font-weight="normal"
         font-variant="normal"
         font-style="normal"
         stroke-miterlimit="10.433"
         xml:space="preserve"
         transform="matrix(1.0629921,0,0,-1.0629921,-186.02362,789.27165)"
         id="g4826"><path
           style="fill:#000000;stroke-width:0"
           inkscape:connector-curvature="0"
           id="path4828"
           d="m 483.27,439.53 0,0.01 0.01,0.02 0,0.02 0.01,0.02 0.01,0.02 0,0.02 0.01,0.02 0,0.02 0.01,0.02 0.01,0.03 0.01,0.04 0.01,0.05 0.02,0.05 0.01,0.05 0,0.03 0.01,0.02 0,0.02 0.01,0.02 0,0.03 0.01,0.02 0,0.02 0.01,0.02 0,0.01 0,0.02 0,0.02 0,0.01 0.01,0.01 0,0.01 c 0,0.44 -0.32,0.6 -0.71,0.6 -0.15,0 -0.64,-0.05 -0.79,-0.11 l -4.94,-0.39 c -0.6,-0.05 -1.14,-0.1 -1.14,-1.05 0,-0.55 0.5,-0.55 1.19,-0.55 2.4,0 2.5,-0.34 2.5,-0.84 0,-0.16 -0.16,-0.8 -0.16,-0.84 l -2.89,-11.68 c -0.74,1.55 -2.1,2.89 -4.17,2.89 v -1.09 c 0.39,0 1.53,-0.05 2.43,-1.44 0.5,-0.79 1,-2.25 1,-3.18 0,-0.16 -0.06,-0.36 -0.15,-0.66 l -2.39,-9.56 c -0.41,-1.55 -3.44,-5.53 -6.17,-5.53 -2.35,0 -2.75,2.93 -2.75,4.43 0,2.49 1.54,8.32 2.43,10.41 1.25,3.05 3.55,5.53 5.6,5.53 v 1.09 c -5.53,0 -11.43,-7.56 -11.43,-14.84 0,-4.23 2.3,-7.72 6.04,-7.72 1.79,0 3.98,1.05 5.98,3.49 0.55,-2.44 2.39,-3.49 4.13,-3.49 1.84,0 2.89,1.25 3.64,2.78 0.9,1.91 1.5,4.8 1.5,4.89 0,0.5 -0.41,0.5 -0.75,0.5 -0.6,0 -0.64,-0.04 -0.96,-1.14 -0.68,-2.79 -1.64,-5.93 -3.33,-5.93 -1.29,0 -1.29,1.34 -1.29,2.04 0,0.35 0,1.1 0.29,2.28 z" /></g>    </g>
    <g
       transform="matrix(0.43402306,0,0,0.41052303,275.987,385.76411)"
       id="g5116">
      <g
         style="font-style:normal;font-variant:normal;font-weight:normal;font-stretch:normal;letter-spacing:normal;word-spacing:normal;text-anchor:start;fill:none;stroke:#000000;stroke-linecap:butt;stroke-linejoin:miter;stroke-miterlimit:10.43299961;stroke-opacity:1;stroke-dasharray:none;stroke-dashoffset:0"
         id="g5118"
         transform="matrix(1.0629921,0,0,-1.0629921,-186.02362,789.27165)"
         xml:space="preserve"
         stroke-miterlimit="10.433"
         font-style="normal"
         font-variant="normal"
         font-weight="normal"
         font-stretch="normal"
         font-size-adjust="none"
         letter-spacing="normal"
         word-spacing="normal"><path
           style="fill:#000000;stroke-width:0"
           inkscape:connector-curvature="0"
           d="m 472.36,408.84 -1.04,-4.19 c -0.6,-2.48 -0.91,-3.53 -2.3,-5.23 -1.98,-2.35 -3.98,-2.35 -4.73,-2.35 -0.65,0 -2.19,0 -3.54,0.57 1,0.39 1.6,1.43 1.6,2.28 0,0.65 -0.46,1.59 -1.75,1.59 -0.89,0 -2.44,-0.69 -2.44,-2.64 0,-1.98 1.84,-2.89 6.03,-2.89 5.24,0 9.02,3.3 9.97,7.08 l 5.42,21.83 c 0.21,0.75 0.21,0.84 0.21,1.04 0,1.05 -0.85,1.3 -1.35,1.3 -0.61,0 -1.75,-0.41 -1.95,-1.84 -0.69,1.43 -2.03,2.82 -4.17,2.82 v -1.09 c 2.98,0 3.43,-4.19 3.43,-4.58 l -0.15,-0.7 -2.24,-9.06 c -0.4,-1.6 -3.45,-5.49 -6.18,-5.49 -2.69,0 -2.79,3.78 -2.79,4.35 0,2.39 1.49,8.22 2.54,10.56 1.25,2.69 3.43,4.92 5.39,4.92 v 1.09 c -5.6,0 -11.32,-7.37 -11.32,-14.39 0,-4.23 2.35,-7.62 6.08,-7.62 2.53,0 4.67,2.05 5.28,2.64 z"
           id="path5120" /><path
           style="fill:#000000;stroke-width:0"
           inkscape:connector-curvature="0"
           d="m 494.92,394.25 0,0.02 0,0.03 0,0.01 0,0.02 -0.01,0.01 0,0.02 -0.01,0.01 0,0.02 -0.01,0.02 -0.01,0.02 -0.01,0.02 -0.02,0.03 -0.01,0.02 -0.02,0.03 -0.02,0.03 -0.03,0.03 -0.02,0.03 -0.03,0.04 -0.02,0.02 -0.02,0.02 -0.01,0.02 -0.02,0.02 -0.02,0.02 -0.02,0.03 -0.02,0.02 -0.02,0.02 -0.03,0.03 -0.02,0.02 -0.03,0.03 -0.02,0.03 -0.03,0.03 -0.02,0.03 -0.03,0.03 -0.03,0.03 -0.03,0.03 -0.04,0.03 -0.03,0.04 -0.03,0.03 -0.04,0.04 -0.04,0.03 -0.03,0.04 -0.04,0.04 c -6.22,6.28 -7.81,15.69 -7.81,23.31 0,8.67 1.89,17.35 8.01,23.56 0.64,0.61 0.64,0.71 0.64,0.86 0,0.35 -0.19,0.49 -0.48,0.49 -0.5,0 -4.99,-3.38 -7.92,-9.7 -2.55,-5.49 -3.14,-11.02 -3.14,-15.21 0,-3.89 0.54,-9.9 3.28,-15.54 2.98,-6.13 7.28,-9.36 7.78,-9.36 0.29,0 0.48,0.14 0.48,0.5 z"
           id="path5122" /><path
           style="fill:#000000;stroke-width:0"
           inkscape:connector-curvature="0"
           d="m 510.61,420.54 0.01,0.01 0,0.03 0.01,0.02 0.02,0.04 0.01,0.05 0.02,0.05 0.03,0.06 0.02,0.07 0.03,0.08 0.03,0.08 0.04,0.08 0.04,0.1 0.09,0.2 0.1,0.23 0.11,0.24 0.12,0.26 0.14,0.27 0.15,0.28 0.17,0.29 0.17,0.3 0.19,0.31 0.2,0.3 0.21,0.3 0.23,0.31 0.23,0.29 0.25,0.29 0.27,0.28 0.27,0.27 0.29,0.25 0.3,0.24 0.31,0.21 0.32,0.2 0.17,0.09 0.17,0.08 0.17,0.08 0.18,0.06 0.18,0.07 0.18,0.05 0.18,0.05 0.19,0.04 0.19,0.03 0.19,0.02 0.2,0.02 0.2,0 c 0.24,0 1.64,0 2.64,-0.69 -1.75,-0.56 -1.9,-2.15 -1.9,-2.39 0,-0.65 0.45,-1.61 1.75,-1.61 0.89,0 2.43,0.71 2.43,2.64 0,2.6 -3.23,3.14 -4.87,3.14 -3.44,0 -5.24,-2.48 -6.03,-3.57 -0.55,2.64 -2.5,3.57 -4.14,3.57 -1.8,0 -2.78,-1.14 -3.58,-2.64 -0.95,-1.98 -1.6,-4.92 -1.6,-5.03 0,-0.5 0.5,-0.5 0.74,-0.5 0.66,0 0.7,0.07 0.95,1.16 0.89,3.48 1.85,5.92 3.39,5.92 1.3,0 1.3,-1.44 1.3,-1.98 0,-0.8 -0.16,-1.75 -0.36,-2.55 l -3.73,-14.95 c -0.1,-0.3 -0.14,-0.55 -0.14,-0.69 0,-0.55 0.39,-1.3 1.39,-1.3 1.5,0 1.84,1.44 1.93,1.85 z"
           id="path5124" /><path
           style="fill:#000000;stroke-width:0"
           inkscape:connector-curvature="0"
           d="m 533.26,418.65 0,0.37 0,0.39 -0.01,0.39 -0.02,0.41 -0.04,0.84 -0.06,0.88 -0.08,0.92 -0.11,0.95 -0.13,0.97 -0.16,1.01 -0.2,1.02 -0.23,1.03 -0.27,1.05 -0.3,1.06 -0.35,1.07 -0.39,1.07 -0.22,0.53 -0.22,0.53 -0.24,0.53 -0.25,0.53 c -2.98,6.12 -7.26,9.36 -7.76,9.36 -0.3,0 -0.5,-0.19 -0.5,-0.49 0,-0.15 0,-0.25 0.93,-1.15 4.89,-4.92 7.74,-12.85 7.74,-23.27 0,-8.51 -1.85,-17.28 -8.04,-23.56 -0.63,-0.59 -0.63,-0.7 -0.63,-0.84 0,-0.3 0.2,-0.5 0.5,-0.5 0.5,0 4.96,3.39 7.92,9.71 2.53,5.47 3.12,11 3.12,15.19 z"
           id="path5126" /></g>    </g>
    <path
       transform="translate(0,308.2677)"
       inkscape:connector-curvature="0"
       id="path12412"
       d="m 490,234.09448 c -420,0 -420,0 -420,0"
       style="fill:none;stroke:#000000;stroke-width:2;stroke-linecap:butt;stroke-linejoin:miter;stroke-opacity:1;stroke-miterlimit:4;stroke-dasharray:none" />
    <path
       transform="translate(0,308.2677)"
       inkscape:connector-curvature="0"
       id="path12414"
       d="m 500,234.09448 360,0"
       style="fill:none;stroke:#000000;stroke-width:2;stroke-linecap:butt;stroke-linejoin:miter;stroke-opacity:1;stroke-miterlimit:4;stroke-dasharray:none" />
    <path
       transform="translate(0,308.2677)"
       inkscape:connector-curvature="0"
       id="path12416"
       d="m 70,304.09448 570,0"
       style="fill:none;stroke:#000000;stroke-width:2;stroke-linecap:butt;stroke-linejoin:miter;stroke-opacity:1;stroke-miterlimit:4;stroke-dasharray:none" />
    <path
       transform="translate(0,308.2677)"
       inkscape:connector-curvature="0"
       id="path12418"
       d="m 650,304.09448 c 210,0 210,0 210,0"
       style="fill:none;stroke:#000000;stroke-width:2;stroke-linecap:butt;stroke-linejoin:miter;stroke-opacity:1;stroke-miterlimit:4;stroke-dasharray:16,16;stroke-dashoffset:0" />
    <path
       transform="translate(0,308.2677)"
       inkscape:connector-curvature="0"
       id="path13188"
       d="m 500,314.09448 360,0"
       style="fill:none;stroke:#000000;stroke-width:2;stroke-linecap:butt;stroke-linejoin:miter;stroke-opacity:1;stroke-miterlimit:4;stroke-dasharray:none" />
    <path
       transform="translate(0,308.2677)"
       inkscape:connector-curvature="0"
       id="path13190"
       d="m 70,44.094482 790,0"
       style="fill:none;stroke:#000000;stroke-width:2;stroke-linecap:butt;stroke-linejoin:miter;stroke-opacity:1;marker-end:url(#Arrow1Lend);stroke-miterlimit:4;stroke-dasharray:none" />
    <path
       inkscape:connector-curvature="0"
       id="path13636"
       d="m 360,352.36218 c 0,259.70071 0,259.70071 0,259.70071"
       style="fill:none;stroke:#000000;stroke-width:1.16912186;stroke-linecap:butt;stroke-linejoin:miter;stroke-miterlimit:4;stroke-opacity:1;stroke-dasharray:14.02946184, 14.02946184;stroke-dashoffset:0;marker-start:none" />
    <path
       inkscape:connector-curvature="0"
       id="path13638"
       d="m 494.51001,352.19458 0.66556,259.44719"
       style="fill:none;stroke:#000000;stroke-width:1.16544127;stroke-linecap:butt;stroke-linejoin:miter;stroke-miterlimit:4;stroke-opacity:1;stroke-dasharray:13.98529539, 13.98529539;stroke-dashoffset:0" />
    <text
       xml:space="preserve"
       style="font-size:12px;font-style:normal;font-variant:normal;font-weight:normal;font-stretch:normal;text-align:center;line-height:125%;letter-spacing:0px;word-spacing:0px;text-anchor:middle;fill:#000000;fill-opacity:1;stroke:none;font-family:Times New Roman;-inkscape-font-specification:Times New Roman"
       x="465.22543"
       y="33.943504"
       id="text3408"
       sodipodi:linespacing="125%"
       transform="translate(0,308.2677)"><tspan
         sodipodi:role="line"
         id="tspan3410"
         x="465.22543"
         y="33.943504"
         style="font-size:28px">Multi-scale modelling</tspan></text>
    <text
       xml:space="preserve"
       style="font-size:28px;font-style:normal;font-variant:normal;font-weight:normal;font-stretch:normal;text-align:start;line-height:125%;letter-spacing:0px;word-spacing:0px;text-anchor:start;fill:#000000;fill-opacity:1;stroke:none;font-family:Times New Roman;-inkscape-font-specification:Times New Roman"
       x="-599.57965"
       y="42.49247"
       id="text3412"
       sodipodi:linespacing="125%"
       transform="matrix(-0.00776589,-0.99996985,0.99996985,-0.00776589,0,0)"><tspan
         sodipodi:role="line"
         id="tspan3414"
         x="-599.57965"
         y="42.49247">Scales of description</tspan></text>
    <text
       xml:space="preserve"
       style="font-size:28px;font-style:normal;font-variant:normal;font-weight:normal;font-stretch:normal;text-align:start;line-height:125%;letter-spacing:0px;word-spacing:0px;text-anchor:start;fill:#000000;fill-opacity:1;stroke:none;font-family:Times New Roman;-inkscape-font-specification:Times New Roman"
       x="540.43353"
       y="680.315"
       id="text3416"
       sodipodi:linespacing="125%"><tspan
         sodipodi:role="line"
         id="tspan3418"
         x="540.43353"
         y="680.315"
         style="font-size:20px">RVE: Representative Volume Element</tspan></text>
    <text
       xml:space="preserve"
       style="font-size:20px;font-style:normal;font-variant:normal;font-weight:normal;font-stretch:normal;text-align:start;line-height:125%;letter-spacing:0px;word-spacing:0px;text-anchor:start;fill:#000000;fill-opacity:1;stroke:none;font-family:Times New Roman;-inkscape-font-specification:Times New Roman"
       x="566.39038"
       y="706.27173"
       id="text3420"
       sodipodi:linespacing="125%"><tspan
         sodipodi:role="line"
         id="tspan3422"
         x="566.39038"
         y="706.27173">BVP: Boundary Value Problem</tspan></text>
    <text
       xml:space="preserve"
       style="font-size:28px;font-style:normal;font-variant:normal;font-weight:normal;font-stretch:normal;text-align:start;line-height:125%;letter-spacing:0px;word-spacing:0px;text-anchor:start;fill:#000000;fill-opacity:1;stroke:none;font-family:Times New Roman;-inkscape-font-specification:Times New Roman"
       x="108.48605"
       y="637.05365"
       id="text3426"
       sodipodi:linespacing="125%"><tspan
         sodipodi:role="line"
         id="tspan3428"
         x="108.48605"
         y="637.05365">Particle scale simulation, DEM</tspan></text>
    <text
       xml:space="preserve"
       style="font-size:28px;font-style:normal;font-variant:normal;font-weight:normal;font-stretch:normal;text-align:start;line-height:125%;letter-spacing:0px;word-spacing:0px;text-anchor:start;fill:#000000;fill-opacity:1;stroke:none;font-family:Times New Roman;-inkscape-font-specification:Times New Roman"
       x="564.39368"
       y="645.04034"
       id="text3430"
       sodipodi:linespacing="125%"><tspan
         sodipodi:role="line"
         id="tspan3432"
         x="564.39368"
         y="645.04034">Continuum simulation</tspan></text>
    <text
       xml:space="preserve"
       style="font-size:20px;font-style:normal;font-variant:normal;font-weight:normal;font-stretch:normal;text-align:start;line-height:125%;letter-spacing:0px;word-spacing:0px;text-anchor:start;fill:#000000;fill-opacity:1;stroke:none;font-family:Times New Roman;-inkscape-font-specification:Times New Roman"
       x="117.1516"
       y="505.25974"
       id="text3434"
       sodipodi:linespacing="125%"><tspan
         sodipodi:role="line"
         id="tspan3436"
         x="117.1516"
         y="505.25974">Contact</tspan></text>
    <text
       xml:space="preserve"
       style="font-size:20px;font-style:normal;font-variant:normal;font-weight:normal;font-stretch:normal;text-align:start;line-height:125%;letter-spacing:0px;word-spacing:0px;text-anchor:start;fill:#000000;fill-opacity:1;stroke:none;font-family:Times New Roman;-inkscape-font-specification:Times New Roman"
       x="262.24005"
       y="505.92862"
       id="text3438"
       sodipodi:linespacing="125%"><tspan
         sodipodi:role="line"
         id="tspan3440"
         x="262.24005"
         y="505.92862">Particle</tspan></text>
    <text
       xml:space="preserve"
       style="font-size:20px;font-style:normal;font-variant:normal;font-weight:normal;font-stretch:normal;text-align:start;line-height:125%;letter-spacing:0px;word-spacing:0px;text-anchor:start;fill:#000000;fill-opacity:1;stroke:none;font-family:Times New Roman;-inkscape-font-specification:Times New Roman"
       x="392.68951"
       y="506.5975"
       id="text3442"
       sodipodi:linespacing="125%"><tspan
         sodipodi:role="line"
         id="tspan3444"
         x="392.68951"
         y="506.5975">Packing</tspan></text>
    <text
       xml:space="preserve"
       style="font-size:20px;font-style:normal;font-variant:normal;font-weight:normal;font-stretch:normal;text-align:start;line-height:125%;letter-spacing:0px;word-spacing:0px;text-anchor:start;fill:#000000;fill-opacity:1;stroke:none;font-family:Times New Roman;-inkscape-font-specification:Times New Roman"
       x="569.24939"
       y="506.60416"
       id="text3446"
       sodipodi:linespacing="125%"><tspan
         sodipodi:role="line"
         id="tspan3448"
         x="569.24939"
         y="506.60416"
         style="text-align:center;text-anchor:middle">Material</tspan><tspan
         sodipodi:role="line"
         x="569.24939"
         y="531.60419"
         id="tspan3450"
         style="text-align:center;text-anchor:middle">RVE</tspan></text>
    <text
       xml:space="preserve"
       style="font-size:20px;font-style:normal;font-variant:normal;font-weight:normal;font-stretch:normal;text-align:start;line-height:125%;letter-spacing:0px;word-spacing:0px;text-anchor:start;fill:#000000;fill-opacity:1;stroke:none;font-family:Times New Roman;-inkscape-font-specification:Times New Roman"
       x="768.99249"
       y="506.5975"
       id="text3452"
       sodipodi:linespacing="125%"><tspan
         sodipodi:role="line"
         id="tspan3454"
         x="768.99249"
         y="506.5975"
         style="text-align:center;text-anchor:middle">Structure</tspan><tspan
         sodipodi:role="line"
         x="768.99249"
         y="531.59753"
         id="tspan3456"
         style="text-align:center;text-anchor:middle">BVP</tspan></text>
    <text
       xml:space="preserve"
       style="font-size:24px;font-style:normal;font-variant:normal;font-weight:normal;font-stretch:normal;text-align:start;line-height:125%;letter-spacing:0px;word-spacing:0px;text-anchor:start;fill:#000000;fill-opacity:1;stroke:none;font-family:Times New Roman;-inkscape-font-specification:Times New Roman"
       x="84.525932"
       y="572.49445"
       id="text3458"
       sodipodi:linespacing="125%"><tspan
         sodipodi:role="line"
         id="tspan3460"
         x="84.525932"
         y="572.49445">Composition &amp; Interactions</tspan></text>
    <text
       xml:space="preserve"
       style="font-size:24px;font-style:normal;font-variant:normal;font-weight:normal;font-stretch:normal;text-align:start;line-height:125%;letter-spacing:0px;word-spacing:0px;text-anchor:start;fill:#000000;fill-opacity:1;stroke:none;font-family:Times New Roman;-inkscape-font-specification:Times New Roman"
       x="377.3717"
       y="265.55789"
       id="text3462"
       sodipodi:linespacing="125%"
       transform="translate(0,308.2677)"><tspan
         sodipodi:role="line"
         id="tspan3464"
         x="377.3717"
         y="265.55789" /></text>
    <text
       xml:space="preserve"
       style="font-size:24px;font-style:normal;font-variant:normal;font-weight:normal;font-stretch:normal;text-align:start;line-height:125%;letter-spacing:0px;word-spacing:0px;text-anchor:start;fill:#000000;fill-opacity:1;stroke:none;font-family:Times New Roman;-inkscape-font-specification:Times New Roman"
       x="426.10757"
       y="572.49445"
       id="text3466"
       sodipodi:linespacing="125%"><tspan
         sodipodi:role="line"
         id="tspan3468"
         x="426.10757"
         y="572.49445"
         style="text-align:center;text-anchor:middle">Statistical</tspan><tspan
         sodipodi:role="line"
         x="426.10757"
         y="602.49445"
         id="tspan3470"
         style="text-align:center;text-anchor:middle">behaviour</tspan></text>
    <text
       xml:space="preserve"
       style="font-size:24px;font-style:normal;font-variant:normal;font-weight:normal;font-stretch:normal;text-align:start;line-height:125%;letter-spacing:0px;word-spacing:0px;text-anchor:start;fill:#000000;fill-opacity:1;stroke:none;font-family:Times New Roman;-inkscape-font-specification:Times New Roman"
       x="678.96613"
       y="572.49115"
       id="text3472"
       sodipodi:linespacing="125%"><tspan
         sodipodi:role="line"
         id="tspan3474"
         x="678.96613"
         y="572.49115"
         style="text-align:center;text-anchor:middle">Constitutive behaviour</tspan><tspan
         sodipodi:role="line"
         x="678.96613"
         y="602.49115"
         id="tspan3476"
         style="font-style:italic;text-align:center;text-anchor:middle;-inkscape-font-specification:'Times New Roman, Italic'">(rheology)</tspan></text>
  </g>
</svg>
