<?xml version="1.0" encoding="UTF-8" standalone="no"?>
<!-- Created with Inkscape (http://www.inkscape.org/) -->

<svg
   xmlns:dc="http://purl.org/dc/elements/1.1/"
   xmlns:cc="http://creativecommons.org/ns#"
   xmlns:rdf="http://www.w3.org/1999/02/22-rdf-syntax-ns#"
   xmlns:svg="http://www.w3.org/2000/svg"
   xmlns="http://www.w3.org/2000/svg"
   xmlns:sodipodi="http://sodipodi.sourceforge.net/DTD/sodipodi-0.dtd"
   xmlns:inkscape="http://www.inkscape.org/namespaces/inkscape"
   id="svg2"
   version="1.1"
   inkscape:version="0.48.2 r9819"
   width="1003.979"
   height="757.5"
   xml:space="preserve"
   sodipodi:docname="Sxy_vs_Syy.pdf"><metadata
     id="metadata8"><rdf:RDF><cc:Work
         rdf:about=""><dc:format>image/svg+xml</dc:format><dc:type
           rdf:resource="http://purl.org/dc/dcmitype/StillImage" /><dc:title></dc:title></cc:Work></rdf:RDF></metadata><defs
     id="defs6" /><sodipodi:namedview
     pagecolor="#ffffff"
     bordercolor="#666666"
     borderopacity="1"
     objecttolerance="10"
     gridtolerance="10"
     guidetolerance="10"
     inkscape:pageopacity="0"
     inkscape:pageshadow="2"
     inkscape:window-width="2560"
     inkscape:window-height="1297"
     id="namedview4"
     showgrid="false"
     inkscape:zoom="1.2462046"
     inkscape:cx="539.64329"
     inkscape:cy="391.1638"
     inkscape:window-x="0"
     inkscape:window-y="0"
     inkscape:window-maximized="1"
     inkscape:current-layer="g10" /><g
     id="g10"
     inkscape:groupmode="layer"
     inkscape:label="Sxy_vs_Syy"
     transform="matrix(1.25,0,0,-1.25,0,757.5)"><g
       id="g12"><path
         d="m 11.195,606 791.988,0 0,-606 -791.988,0 0,606 z"
         style="fill:#ffffff;fill-opacity:1;fill-rule:nonzero;stroke:none"
         id="path14" /><path
         d="m 633.723,495.41 c 0,3.379 -2.743,6.121 -6.121,6.121 -3.379,0 -6.122,-2.742 -6.122,-6.121 0,-3.379 2.743,-6.117 6.122,-6.117 3.378,0 6.121,2.738 6.121,6.117"
         style="fill:none;stroke:#000000;stroke-opacity:1;stroke-width:2.2644;stroke-linecap:butt;stroke-linejoin:miter;stroke-miterlimit:10;stroke-dasharray:none"
         id="path16" /><path
         d="m 191.367,156.793 c 0,3.379 -2.738,6.117 -6.117,6.117 -3.383,0 -6.121,-2.738 -6.121,-6.117 0,-3.379 2.738,-6.121 6.121,-6.121 3.379,0 6.117,2.742 6.117,6.121"
         style="fill:none;stroke:#000000;stroke-opacity:1;stroke-width:2.2644;stroke-linecap:butt;stroke-linejoin:miter;stroke-miterlimit:10;stroke-dasharray:none"
         id="path18" /><path
         d="m 128.824,103.059 c 0,3.379 -2.742,6.121 -6.121,6.121 -3.379,0 -6.121,-2.742 -6.121,-6.121 0,-3.379 2.742,-6.121 6.121,-6.121 3.379,0 6.121,2.742 6.121,6.121"
         style="fill:none;stroke:#000000;stroke-opacity:1;stroke-width:2.2644;stroke-linecap:butt;stroke-linejoin:miter;stroke-miterlimit:10;stroke-dasharray:none"
         id="path20" /><path
         d="m 116.828,92.531 c 0,3.379 -2.742,6.121 -6.121,6.121 -3.379,0 -6.121,-2.742 -6.121,-6.121 0,-3.379 2.742,-6.121 6.121,-6.121 3.379,0 6.121,2.742 6.121,6.121"
         style="fill:none;stroke:#000000;stroke-opacity:1;stroke-width:2.2644;stroke-linecap:butt;stroke-linejoin:miter;stroke-miterlimit:10;stroke-dasharray:none"
         id="path22" /><path
         d="m 114.258,90.453 c 0,3.379 -2.742,6.117 -6.121,6.117 -3.379,0 -6.121,-2.738 -6.121,-6.117 0,-3.383 2.742,-6.121 6.121,-6.121 3.379,0 6.121,2.738 6.121,6.121"
         style="fill:none;stroke:#000000;stroke-opacity:1;stroke-width:2.2644;stroke-linecap:butt;stroke-linejoin:miter;stroke-miterlimit:10;stroke-dasharray:none"
         id="path24" /><path
         d="m 110.461,87.086 c 0,3.379 -2.738,6.121 -6.121,6.121 -3.379,0 -6.117,-2.742 -6.117,-6.121 0,-3.379 2.738,-6.121 6.117,-6.121 3.383,0 6.121,2.742 6.121,6.121"
         style="fill:none;stroke:#000000;stroke-opacity:1;stroke-width:2.2644;stroke-linecap:butt;stroke-linejoin:miter;stroke-miterlimit:10;stroke-dasharray:none"
         id="path26" /><path
         d="m 109.727,86.473 c 0,3.379 -2.739,6.121 -6.122,6.121 -3.378,0 -6.117,-2.742 -6.117,-6.121 0,-3.379 2.739,-6.121 6.117,-6.121 3.383,0 6.122,2.742 6.122,6.121"
         style="fill:none;stroke:#000000;stroke-opacity:1;stroke-width:2.2644;stroke-linecap:butt;stroke-linejoin:miter;stroke-miterlimit:10;stroke-dasharray:none"
         id="path28" /><path
         d="m 109.359,86.105 c 0,3.379 -2.738,6.122 -6.117,6.122 -3.383,0 -6.121,-2.743 -6.121,-6.122 0,-3.378 2.738,-6.121 6.121,-6.121 3.379,0 6.117,2.743 6.117,6.121"
         style="fill:none;stroke:#000000;stroke-opacity:1;stroke-width:2.2644;stroke-linecap:butt;stroke-linejoin:miter;stroke-miterlimit:10;stroke-dasharray:none"
         id="path30" /><path
         d="m 109.301,85.984 c 0,3.379 -2.742,6.118 -6.121,6.118 -3.379,0 -6.121,-2.739 -6.121,-6.118 0,-3.379 2.742,-6.121 6.121,-6.121 3.379,0 6.121,2.742 6.121,6.121"
         style="fill:none;stroke:#000000;stroke-opacity:1;stroke-width:2.2644;stroke-linecap:butt;stroke-linejoin:miter;stroke-miterlimit:10;stroke-dasharray:none"
         id="path32" /><path
         d="m 109.238,85.984 c 0,3.379 -2.742,6.118 -6.121,6.118 -3.379,0 -6.121,-2.739 -6.121,-6.118 0,-3.379 2.742,-6.121 6.121,-6.121 3.379,0 6.121,2.742 6.121,6.121"
         style="fill:none;stroke:#000000;stroke-opacity:1;stroke-width:2.2644;stroke-linecap:butt;stroke-linejoin:miter;stroke-miterlimit:10;stroke-dasharray:none"
         id="path34" /><path
         d="m 109.176,85.922 c 0,3.379 -2.738,6.121 -6.121,6.121 -3.379,0 -6.117,-2.742 -6.117,-6.121 0,-3.379 2.738,-6.121 6.117,-6.121 3.383,0 6.121,2.742 6.121,6.121"
         style="fill:none;stroke:#000000;stroke-opacity:1;stroke-width:2.2644;stroke-linecap:butt;stroke-linejoin:miter;stroke-miterlimit:10;stroke-dasharray:none"
         id="path36" /><path
         d="m 109.176,85.859 c 0,3.383 -2.738,6.121 -6.121,6.121 -3.379,0 -6.117,-2.738 -6.117,-6.121 0,-3.379 2.738,-6.117 6.117,-6.117 3.383,0 6.121,2.738 6.121,6.117"
         style="fill:none;stroke:#000000;stroke-opacity:1;stroke-width:2.2644;stroke-linecap:butt;stroke-linejoin:miter;stroke-miterlimit:10;stroke-dasharray:none"
         id="path38" /><path
         d="m 102.996,85.801 612,0"
         style="fill:none;stroke:#000000;stroke-opacity:1;stroke-width:0.918;stroke-linecap:butt;stroke-linejoin:miter;stroke-miterlimit:10;stroke-dasharray:none"
         id="path40" /><path
         d="m 102.996,514.199 612,0"
         style="fill:none;stroke:#000000;stroke-opacity:1;stroke-width:0.918;stroke-linecap:butt;stroke-linejoin:miter;stroke-miterlimit:10;stroke-dasharray:none"
         id="path42" /><path
         d="m 205.016,85.801 0,6.117"
         style="fill:none;stroke:#000000;stroke-opacity:1;stroke-width:0.918;stroke-linecap:butt;stroke-linejoin:miter;stroke-miterlimit:10;stroke-dasharray:none"
         id="path44" /><path
         d="m 205.016,514.199 0,-6.121"
         style="fill:none;stroke:#000000;stroke-opacity:1;stroke-width:0.918;stroke-linecap:butt;stroke-linejoin:miter;stroke-miterlimit:10;stroke-dasharray:none"
         id="path46" /><path
         d="m 408.996,85.801 0,6.117"
         style="fill:none;stroke:#000000;stroke-opacity:1;stroke-width:0.918;stroke-linecap:butt;stroke-linejoin:miter;stroke-miterlimit:10;stroke-dasharray:none"
         id="path48" /><path
         d="m 408.996,514.199 0,-6.121"
         style="fill:none;stroke:#000000;stroke-opacity:1;stroke-width:0.918;stroke-linecap:butt;stroke-linejoin:miter;stroke-miterlimit:10;stroke-dasharray:none"
         id="path50" /><path
         d="m 612.977,85.801 0,6.117"
         style="fill:none;stroke:#000000;stroke-opacity:1;stroke-width:0.918;stroke-linecap:butt;stroke-linejoin:miter;stroke-miterlimit:10;stroke-dasharray:none"
         id="path52" /><path
         d="m 612.977,514.199 0,-6.121"
         style="fill:none;stroke:#000000;stroke-opacity:1;stroke-width:0.918;stroke-linecap:butt;stroke-linejoin:miter;stroke-miterlimit:10;stroke-dasharray:none"
         id="path54" /><path
         d="m 102.996,85.801 0,12.238"
         style="fill:none;stroke:#000000;stroke-opacity:1;stroke-width:0.918;stroke-linecap:butt;stroke-linejoin:miter;stroke-miterlimit:10;stroke-dasharray:none"
         id="path56" /><path
         d="m 102.996,514.199 0,-12.238"
         style="fill:none;stroke:#000000;stroke-opacity:1;stroke-width:0.918;stroke-linecap:butt;stroke-linejoin:miter;stroke-miterlimit:10;stroke-dasharray:none"
         id="path58" /><path
         d="m 306.977,85.801 0,12.238"
         style="fill:none;stroke:#000000;stroke-opacity:1;stroke-width:0.918;stroke-linecap:butt;stroke-linejoin:miter;stroke-miterlimit:10;stroke-dasharray:none"
         id="path60" /><path
         d="m 306.977,514.199 0,-12.238"
         style="fill:none;stroke:#000000;stroke-opacity:1;stroke-width:0.918;stroke-linecap:butt;stroke-linejoin:miter;stroke-miterlimit:10;stroke-dasharray:none"
         id="path62" /><path
         d="m 511.016,85.801 0,12.238"
         style="fill:none;stroke:#000000;stroke-opacity:1;stroke-width:0.918;stroke-linecap:butt;stroke-linejoin:miter;stroke-miterlimit:10;stroke-dasharray:none"
         id="path64" /><path
         d="m 511.016,514.199 0,-12.238"
         style="fill:none;stroke:#000000;stroke-opacity:1;stroke-width:0.918;stroke-linecap:butt;stroke-linejoin:miter;stroke-miterlimit:10;stroke-dasharray:none"
         id="path66" /><path
         d="m 714.996,85.801 0,12.238"
         style="fill:none;stroke:#000000;stroke-opacity:1;stroke-width:0.918;stroke-linecap:butt;stroke-linejoin:miter;stroke-miterlimit:10;stroke-dasharray:none"
         id="path68" /><path
         d="m 714.996,514.199 0,-12.238"
         style="fill:none;stroke:#000000;stroke-opacity:1;stroke-width:0.918;stroke-linecap:butt;stroke-linejoin:miter;stroke-miterlimit:10;stroke-dasharray:none"
         id="path70" /><text
         transform="matrix(1,0,0,-1,100.9757,50.3039)"
         id="text72"><tspan
           style="fill:#000000;fill-opacity:1;fill-rule:nonzero;stroke:none;font-family:DejaVu Sans;font-variant:normal;font-weight:normal;font-size:34.271999;writing-mode:lr;-inkscape-font-specification:DejaVuSans"
           x="0"
           y="0"
           id="tspan74">0</tspan><tspan
           style="fill:#000000;fill-opacity:1;fill-rule:nonzero;stroke:none;font-family:DejaVu Sans;font-variant:normal;font-weight:normal;font-size:34.271999;writing-mode:lr;-inkscape-font-specification:DejaVuSans"
           x="195.47301951 212.60901901"
           y="0.24453106"
           sodipodi:role="line"
           id="tspan76">50</tspan><tspan
           style="fill:#000000;fill-opacity:1;fill-rule:nonzero;stroke:none;font-family:DejaVu Sans;font-variant:normal;font-weight:normal;font-size:34.271999;writing-mode:lr;-inkscape-font-specification:DejaVuSans"
           x="390.82300255 407.95900205 425.09500155"
           y="0"
           sodipodi:role="line"
           id="tspan78">100</tspan><tspan
           style="fill:#000000;fill-opacity:1;fill-rule:nonzero;stroke:none;font-family:DejaVu Sans;font-variant:normal;font-weight:normal;font-size:34.271999;writing-mode:lr;-inkscape-font-specification:DejaVuSans"
           x="594.80298338 611.93898288 629.07498238"
           y="0.24453106"
           sodipodi:role="line"
           id="tspan80">150</tspan></text>
<text
         transform="scale(1,-1)"
         id="text82"
         x="375.70166"
         y="-20.254656"><tspan
           style="font-size:34.27199936px;font-variant:normal;font-weight:normal;writing-mode:lr-tb;fill:#000000;fill-opacity:1;fill-rule:nonzero;stroke:none;font-family:Standard Symbols L;-inkscape-font-specification:StandardSymL"
           x="375.70166"
           y="-20.254656"
           id="tspan84">σ</tspan></text>
<text
         transform="scale(1,-1)"
         id="text86"
         x="396.32626"
         y="-6.5460691"><tspan
           style="font-size:24.23520088px;font-variant:normal;font-weight:normal;writing-mode:lr-tb;fill:#000000;fill-opacity:1;fill-rule:nonzero;stroke:none;font-family:DejaVu Sans;-inkscape-font-specification:DejaVuSans"
           x="396.32626 408.39539"
           y="-6.5460691"
           sodipodi:role="line"
           id="tspan88">yy</tspan></text>
<path
         d="m 102.996,85.801 0,428.398"
         style="fill:none;stroke:#000000;stroke-opacity:1;stroke-width:0.918;stroke-linecap:butt;stroke-linejoin:miter;stroke-miterlimit:10;stroke-dasharray:none"
         id="path90" /><path
         d="m 714.996,85.801 0,428.398"
         style="fill:none;stroke:#000000;stroke-opacity:1;stroke-width:0.918;stroke-linecap:butt;stroke-linejoin:miter;stroke-miterlimit:10;stroke-dasharray:none"
         id="path92" /><path
         d="m 102.996,157.219 6.121,0"
         style="fill:none;stroke:#000000;stroke-opacity:1;stroke-width:0.918;stroke-linecap:butt;stroke-linejoin:miter;stroke-miterlimit:10;stroke-dasharray:none"
         id="path94" /><path
         d="m 714.996,157.219 -6.121,0"
         style="fill:none;stroke:#000000;stroke-opacity:1;stroke-width:0.918;stroke-linecap:butt;stroke-linejoin:miter;stroke-miterlimit:10;stroke-dasharray:none"
         id="path96" /><path
         d="m 102.996,300 6.121,0"
         style="fill:none;stroke:#000000;stroke-opacity:1;stroke-width:0.918;stroke-linecap:butt;stroke-linejoin:miter;stroke-miterlimit:10;stroke-dasharray:none"
         id="path98" /><path
         d="m 714.996,300 -6.121,0"
         style="fill:none;stroke:#000000;stroke-opacity:1;stroke-width:0.918;stroke-linecap:butt;stroke-linejoin:miter;stroke-miterlimit:10;stroke-dasharray:none"
         id="path100" /><path
         d="m 102.996,442.781 6.121,0"
         style="fill:none;stroke:#000000;stroke-opacity:1;stroke-width:0.918;stroke-linecap:butt;stroke-linejoin:miter;stroke-miterlimit:10;stroke-dasharray:none"
         id="path102" /><path
         d="m 714.996,442.781 -6.121,0"
         style="fill:none;stroke:#000000;stroke-opacity:1;stroke-width:0.918;stroke-linecap:butt;stroke-linejoin:miter;stroke-miterlimit:10;stroke-dasharray:none"
         id="path104" /><path
         d="m 102.996,85.801 12.238,0"
         style="fill:none;stroke:#000000;stroke-opacity:1;stroke-width:0.918;stroke-linecap:butt;stroke-linejoin:miter;stroke-miterlimit:10;stroke-dasharray:none"
         id="path106" /><path
         d="m 714.996,85.801 -12.242,0"
         style="fill:none;stroke:#000000;stroke-opacity:1;stroke-width:0.918;stroke-linecap:butt;stroke-linejoin:miter;stroke-miterlimit:10;stroke-dasharray:none"
         id="path108" /><path
         d="m 102.996,228.578 12.238,0"
         style="fill:none;stroke:#000000;stroke-opacity:1;stroke-width:0.918;stroke-linecap:butt;stroke-linejoin:miter;stroke-miterlimit:10;stroke-dasharray:none"
         id="path110" /><path
         d="m 714.996,228.578 -12.242,0"
         style="fill:none;stroke:#000000;stroke-opacity:1;stroke-width:0.918;stroke-linecap:butt;stroke-linejoin:miter;stroke-miterlimit:10;stroke-dasharray:none"
         id="path112" /><path
         d="m 102.996,371.422 12.238,0"
         style="fill:none;stroke:#000000;stroke-opacity:1;stroke-width:0.918;stroke-linecap:butt;stroke-linejoin:miter;stroke-miterlimit:10;stroke-dasharray:none"
         id="path114" /><path
         d="m 714.996,371.422 -12.242,0"
         style="fill:none;stroke:#000000;stroke-opacity:1;stroke-width:0.918;stroke-linecap:butt;stroke-linejoin:miter;stroke-miterlimit:10;stroke-dasharray:none"
         id="path116" /><path
         d="m 102.996,514.199 12.238,0"
         style="fill:none;stroke:#000000;stroke-opacity:1;stroke-width:0.918;stroke-linecap:butt;stroke-linejoin:miter;stroke-miterlimit:10;stroke-dasharray:none"
         id="path118" /><path
         d="m 714.996,514.199 -12.242,0"
         style="fill:none;stroke:#000000;stroke-opacity:1;stroke-width:0.918;stroke-linecap:butt;stroke-linejoin:miter;stroke-miterlimit:10;stroke-dasharray:none"
         id="path120" /><text
         transform="matrix(1,0,0,-1,74.414696,80.5367)"
         id="text122"><tspan
           style="fill:#000000;fill-opacity:1;fill-rule:nonzero;stroke:none;font-family:DejaVu Sans;font-variant:normal;font-weight:normal;font-size:34.271999;writing-mode:lr;-inkscape-font-specification:DejaVuSans"
           x="0"
           y="0"
           id="tspan124">0</tspan><tspan
           style="fill:#000000;fill-opacity:1;fill-rule:nonzero;stroke:none;font-family:DejaVu Sans;font-variant:normal;font-weight:normal;font-size:34.271999;writing-mode:lr;-inkscape-font-specification:DejaVuSans"
           x="-17.01371701 0.12228249"
           y="-142.77999"
           sodipodi:role="line"
           id="tspan126">10</tspan><tspan
           style="fill:#000000;fill-opacity:1;fill-rule:nonzero;stroke:none;font-family:DejaVu Sans;font-variant:normal;font-weight:normal;font-size:34.271999;writing-mode:lr;-inkscape-font-specification:DejaVuSans"
           x="-17.01371701 0.12228249"
           y="-285.55998"
           sodipodi:role="line"
           id="tspan128">20</tspan><tspan
           style="fill:#000000;fill-opacity:1;fill-rule:nonzero;stroke:none;font-family:DejaVu Sans;font-variant:normal;font-weight:normal;font-size:34.271999;writing-mode:lr;-inkscape-font-specification:DejaVuSans"
           x="-17.01371701 0.12228249"
           y="-428.40098"
           sodipodi:role="line"
           id="tspan130">30</tspan></text>
<text
         transform="matrix(0,1,1,0,0,0)"
         id="text132"
         x="236.0799"
         y="26.189297"><tspan
           style="font-size:34.27199936px;font-variant:normal;font-weight:normal;writing-mode:lr-tb;fill:#000000;fill-opacity:1;fill-rule:nonzero;stroke:none;font-family:DejaVu Sans;-inkscape-font-specification:DejaVuSans"
           x="236.0799"
           y="26.189297"
           id="tspan134">|</tspan></text>
<text
         transform="matrix(0,1,1,0,0,0)"
         id="text136"
         x="251.3652"
         y="26.189297"><tspan
           style="font-size:34.27199936px;font-variant:normal;font-weight:normal;writing-mode:lr-tb;fill:#000000;fill-opacity:1;fill-rule:nonzero;stroke:none;font-family:Standard Symbols L;-inkscape-font-specification:StandardSymL"
           x="251.3652"
           y="26.189297"
           id="tspan138">σ</tspan></text>
<text
         transform="matrix(0,1,1,0,0,0)"
         id="text140"
         x="272.0654"
         y="39.897896"><tspan
           style="font-size:24.23520088px;font-variant:normal;font-weight:normal;writing-mode:lr-tb;fill:#000000;fill-opacity:1;fill-rule:nonzero;stroke:none;font-family:DejaVu Sans;-inkscape-font-specification:DejaVuSans"
           x="272.0654 284.13452"
           y="39.897896"
           sodipodi:role="line"
           id="tspan142">xy</tspan></text>
<text
         transform="matrix(0,1,1,0,0,0)"
         id="text144"
         x="304.86859"
         y="26.189297"><tspan
           style="font-size:34.27199936px;font-variant:normal;font-weight:normal;writing-mode:lr-tb;fill:#000000;fill-opacity:1;fill-rule:nonzero;stroke:none;font-family:DejaVu Sans;-inkscape-font-specification:DejaVuSans"
           x="304.86859"
           y="26.189297"
           id="tspan146">|</tspan></text>
<path
         d="m 102.996,514.199 612,0 0,-428.398 -612,0 0,428.398 z"
         style="fill:none;stroke:#000000;stroke-opacity:1;stroke-width:0.918;stroke-linecap:butt;stroke-linejoin:miter;stroke-miterlimit:10;stroke-dasharray:none"
         id="path148" /><path
         d="M 102.32,85.418 C 653.855,515.332 653.855,514.766 653.855,514.766"
         style="fill:none;stroke:#000000;stroke-opacity:1;stroke-width:0.8;stroke-linecap:butt;stroke-linejoin:miter;stroke-miterlimit:4;stroke-dasharray:none"
         id="path150" /><path
         d="m 312.754,243.441 c 0,3.379 -2.738,6.118 -6.117,6.118 -3.383,0 -6.121,-2.739 -6.121,-6.118 0,-3.379 2.738,-6.121 6.121,-6.121 3.379,0 6.117,2.742 6.117,6.121"
         style="fill:none;stroke:#000000;stroke-opacity:1;stroke-width:2.2644;stroke-linecap:butt;stroke-linejoin:miter;stroke-miterlimit:10;stroke-dasharray:none"
         id="path152" /><path
         d="m 432.441,335.961 c 0,3.379 -2.738,6.117 -6.117,6.117 -3.383,0 -6.121,-2.738 -6.121,-6.117 0,-3.379 2.738,-6.121 6.121,-6.121 3.379,0 6.117,2.742 6.117,6.121"
         style="fill:none;stroke:#000000;stroke-opacity:1;stroke-width:2.2644;stroke-linecap:butt;stroke-linejoin:miter;stroke-miterlimit:10;stroke-dasharray:none"
         id="path154" /><path
         d="m 517.266,409.605 c 0,3.379 -2.735,6.118 -6.114,6.118 -3.386,0 -6.121,-2.739 -6.121,-6.118 0,-3.378 2.735,-6.121 6.121,-6.121 3.379,0 6.114,2.743 6.114,6.121"
         style="fill:none;stroke:#000000;stroke-opacity:1;stroke-width:2.2644;stroke-linecap:butt;stroke-linejoin:miter;stroke-miterlimit:10;stroke-dasharray:none"
         id="path156" /></g><text
       xml:space="preserve"
       style="font-size:19.20000076px;font-style:normal;font-variant:normal;font-weight:normal;font-stretch:normal;text-align:start;line-height:125%;letter-spacing:0px;word-spacing:0px;text-anchor:start;fill:#000000;fill-opacity:1;stroke:none;font-family:Times New Roman;-inkscape-font-specification:Times New Roman"
       x="427.57709"
       y="-21.184307"
       id="text3133"
       sodipodi:linespacing="125%"
       transform="scale(1,-1)"><tspan
         sodipodi:role="line"
         id="tspan3135"
         x="427.57709"
         y="-21.184307"
         style="font-size:28.79999924px">[Pa]</tspan></text>
<text
       xml:space="preserve"
       style="font-size:19.20000076px;font-style:normal;font-variant:normal;font-weight:normal;font-stretch:normal;text-align:start;line-height:125%;letter-spacing:0px;word-spacing:0px;text-anchor:start;fill:#000000;fill-opacity:1;stroke:none;font-family:Times New Roman;-inkscape-font-specification:Times New Roman"
       x="330.15927"
       y="27.481382"
       id="text3137"
       sodipodi:linespacing="125%"
       transform="matrix(6.7573675e-4,0.99999977,0.99999977,-6.7573675e-4,0,0)"><tspan
         sodipodi:role="line"
         id="tspan3139"
         x="330.15927"
         y="27.481382"
         style="font-size:28.79999924px">[Pa]</tspan></text>
</g></svg>