<?xml version="1.0" encoding="UTF-8" standalone="no"?>
<!-- Created with Inkscape (http://www.inkscape.org/) -->

<svg
   xmlns:dc="http://purl.org/dc/elements/1.1/"
   xmlns:cc="http://creativecommons.org/ns#"
   xmlns:rdf="http://www.w3.org/1999/02/22-rdf-syntax-ns#"
   xmlns:svg="http://www.w3.org/2000/svg"
   xmlns="http://www.w3.org/2000/svg"
   xmlns:sodipodi="http://sodipodi.sourceforge.net/DTD/sodipodi-0.dtd"
   xmlns:inkscape="http://www.inkscape.org/namespaces/inkscape"
   id="svg2"
   version="1.1"
   inkscape:version="0.48.5 r10040"
   width="929.19232"
   height="658.2323"
   xml:space="preserve"
   sodipodi:docname="Sxy_vs_Syy.svg"><metadata
     id="metadata8"><rdf:RDF><cc:Work
         rdf:about=""><dc:format>image/svg+xml</dc:format><dc:type
           rdf:resource="http://purl.org/dc/dcmitype/StillImage" /><dc:title /></cc:Work></rdf:RDF></metadata><defs
     id="defs6" /><sodipodi:namedview
     pagecolor="#ffffff"
     bordercolor="#666666"
     borderopacity="1"
     objecttolerance="10"
     gridtolerance="10"
     guidetolerance="10"
     inkscape:pageopacity="0"
     inkscape:pageshadow="2"
     inkscape:window-width="1600"
     inkscape:window-height="834"
     id="namedview4"
     showgrid="false"
     inkscape:zoom="0.88119972"
     inkscape:cx="487.74508"
     inkscape:cy="283.37039"
     inkscape:window-x="0"
     inkscape:window-y="27"
     inkscape:window-maximized="1"
     inkscape:current-layer="g10"
     fit-margin-top="0"
     fit-margin-left="0"
     fit-margin-right="0"
     fit-margin-bottom="0" /><g
     id="g10"
     inkscape:groupmode="layer"
     inkscape:label="Sxy_vs_Syy"
     transform="matrix(1.25,0,0,-1.25,-4.2142347e-7,660.11349)"><g
       id="g12"><path
         d="m 633.723,495.41 c 0,3.379 -2.743,6.121 -6.121,6.121 -3.379,0 -6.122,-2.742 -6.122,-6.121 0,-3.379 2.743,-6.117 6.122,-6.117 3.378,0 6.121,2.738 6.121,6.117"
         style="fill:none;stroke:#000000;stroke-width:2.26440001;stroke-linecap:butt;stroke-linejoin:miter;stroke-miterlimit:10;stroke-opacity:1;stroke-dasharray:none"
         id="path16"
         inkscape:connector-curvature="0" /><path
         d="m 191.367,156.793 c 0,3.379 -2.738,6.117 -6.117,6.117 -3.383,0 -6.121,-2.738 -6.121,-6.117 0,-3.379 2.738,-6.121 6.121,-6.121 3.379,0 6.117,2.742 6.117,6.121"
         style="fill:none;stroke:#000000;stroke-width:2.26440001;stroke-linecap:butt;stroke-linejoin:miter;stroke-miterlimit:10;stroke-opacity:1;stroke-dasharray:none"
         id="path18"
         inkscape:connector-curvature="0" /><path
         d="m 128.824,103.059 c 0,3.379 -2.742,6.121 -6.121,6.121 -3.379,0 -6.121,-2.742 -6.121,-6.121 0,-3.379 2.742,-6.121 6.121,-6.121 3.379,0 6.121,2.742 6.121,6.121"
         style="fill:none;stroke:#000000;stroke-width:2.26440001;stroke-linecap:butt;stroke-linejoin:miter;stroke-miterlimit:10;stroke-opacity:1;stroke-dasharray:none"
         id="path20"
         inkscape:connector-curvature="0" /><path
         d="m 116.828,92.531 c 0,3.379 -2.742,6.121 -6.121,6.121 -3.379,0 -6.121,-2.742 -6.121,-6.121 0,-3.379 2.742,-6.121 6.121,-6.121 3.379,0 6.121,2.742 6.121,6.121"
         style="fill:none;stroke:#000000;stroke-width:2.26440001;stroke-linecap:butt;stroke-linejoin:miter;stroke-miterlimit:10;stroke-opacity:1;stroke-dasharray:none"
         id="path22"
         inkscape:connector-curvature="0" /><path
         d="m 114.258,90.453 c 0,3.379 -2.742,6.117 -6.121,6.117 -3.379,0 -6.121,-2.738 -6.121,-6.117 0,-3.383 2.742,-6.121 6.121,-6.121 3.379,0 6.121,2.738 6.121,6.121"
         style="fill:none;stroke:#000000;stroke-width:2.26440001;stroke-linecap:butt;stroke-linejoin:miter;stroke-miterlimit:10;stroke-opacity:1;stroke-dasharray:none"
         id="path24"
         inkscape:connector-curvature="0" /><path
         d="m 110.461,87.086 c 0,3.379 -2.738,6.121 -6.121,6.121 -3.379,0 -6.117,-2.742 -6.117,-6.121 0,-3.379 2.738,-6.121 6.117,-6.121 3.383,0 6.121,2.742 6.121,6.121"
         style="fill:none;stroke:#000000;stroke-width:2.26440001;stroke-linecap:butt;stroke-linejoin:miter;stroke-miterlimit:10;stroke-opacity:1;stroke-dasharray:none"
         id="path26"
         inkscape:connector-curvature="0" /><path
         d="m 109.727,86.473 c 0,3.379 -2.739,6.121 -6.122,6.121 -3.378,0 -6.117,-2.742 -6.117,-6.121 0,-3.379 2.739,-6.121 6.117,-6.121 3.383,0 6.122,2.742 6.122,6.121"
         style="fill:none;stroke:#000000;stroke-width:2.26440001;stroke-linecap:butt;stroke-linejoin:miter;stroke-miterlimit:10;stroke-opacity:1;stroke-dasharray:none"
         id="path28"
         inkscape:connector-curvature="0" /><path
         d="m 109.359,86.105 c 0,3.379 -2.738,6.122 -6.117,6.122 -3.383,0 -6.121,-2.743 -6.121,-6.122 0,-3.378 2.738,-6.121 6.121,-6.121 3.379,0 6.117,2.743 6.117,6.121"
         style="fill:none;stroke:#000000;stroke-width:2.26440001;stroke-linecap:butt;stroke-linejoin:miter;stroke-miterlimit:10;stroke-opacity:1;stroke-dasharray:none"
         id="path30"
         inkscape:connector-curvature="0" /><path
         d="m 109.301,85.984 c 0,3.379 -2.742,6.118 -6.121,6.118 -3.379,0 -6.121,-2.739 -6.121,-6.118 0,-3.379 2.742,-6.121 6.121,-6.121 3.379,0 6.121,2.742 6.121,6.121"
         style="fill:none;stroke:#000000;stroke-width:2.26440001;stroke-linecap:butt;stroke-linejoin:miter;stroke-miterlimit:10;stroke-opacity:1;stroke-dasharray:none"
         id="path32"
         inkscape:connector-curvature="0" /><path
         d="m 109.238,85.984 c 0,3.379 -2.742,6.118 -6.121,6.118 -3.379,0 -6.121,-2.739 -6.121,-6.118 0,-3.379 2.742,-6.121 6.121,-6.121 3.379,0 6.121,2.742 6.121,6.121"
         style="fill:none;stroke:#000000;stroke-width:2.26440001;stroke-linecap:butt;stroke-linejoin:miter;stroke-miterlimit:10;stroke-opacity:1;stroke-dasharray:none"
         id="path34"
         inkscape:connector-curvature="0" /><path
         d="m 109.176,85.922 c 0,3.379 -2.738,6.121 -6.121,6.121 -3.379,0 -6.117,-2.742 -6.117,-6.121 0,-3.379 2.738,-6.121 6.117,-6.121 3.383,0 6.121,2.742 6.121,6.121"
         style="fill:none;stroke:#000000;stroke-width:2.26440001;stroke-linecap:butt;stroke-linejoin:miter;stroke-miterlimit:10;stroke-opacity:1;stroke-dasharray:none"
         id="path36"
         inkscape:connector-curvature="0" /><path
         d="m 109.176,85.859 c 0,3.383 -2.738,6.121 -6.121,6.121 -3.379,0 -6.117,-2.738 -6.117,-6.121 0,-3.379 2.738,-6.117 6.117,-6.117 3.383,0 6.121,2.738 6.121,6.117"
         style="fill:none;stroke:#000000;stroke-width:2.26440001;stroke-linecap:butt;stroke-linejoin:miter;stroke-miterlimit:10;stroke-opacity:1;stroke-dasharray:none"
         id="path38"
         inkscape:connector-curvature="0" /><path
         d="m 102.996,85.801 612,0"
         style="fill:none;stroke:#000000;stroke-width:0.91799998;stroke-linecap:butt;stroke-linejoin:miter;stroke-miterlimit:10;stroke-opacity:1;stroke-dasharray:none"
         id="path40"
         inkscape:connector-curvature="0" /><path
         d="m 102.996,514.199 612,0"
         style="fill:none;stroke:#000000;stroke-width:0.91799998;stroke-linecap:butt;stroke-linejoin:miter;stroke-miterlimit:10;stroke-opacity:1;stroke-dasharray:none"
         id="path42"
         inkscape:connector-curvature="0" /><path
         d="m 205.016,85.801 0,6.117"
         style="fill:none;stroke:#000000;stroke-width:0.91799998;stroke-linecap:butt;stroke-linejoin:miter;stroke-miterlimit:10;stroke-opacity:1;stroke-dasharray:none"
         id="path44"
         inkscape:connector-curvature="0" /><path
         d="m 205.016,514.199 0,-6.121"
         style="fill:none;stroke:#000000;stroke-width:0.91799998;stroke-linecap:butt;stroke-linejoin:miter;stroke-miterlimit:10;stroke-opacity:1;stroke-dasharray:none"
         id="path46"
         inkscape:connector-curvature="0" /><path
         d="m 408.996,85.801 0,6.117"
         style="fill:none;stroke:#000000;stroke-width:0.91799998;stroke-linecap:butt;stroke-linejoin:miter;stroke-miterlimit:10;stroke-opacity:1;stroke-dasharray:none"
         id="path48"
         inkscape:connector-curvature="0" /><path
         d="m 408.996,514.199 0,-6.121"
         style="fill:none;stroke:#000000;stroke-width:0.91799998;stroke-linecap:butt;stroke-linejoin:miter;stroke-miterlimit:10;stroke-opacity:1;stroke-dasharray:none"
         id="path50"
         inkscape:connector-curvature="0" /><path
         d="m 612.977,85.801 0,6.117"
         style="fill:none;stroke:#000000;stroke-width:0.91799998;stroke-linecap:butt;stroke-linejoin:miter;stroke-miterlimit:10;stroke-opacity:1;stroke-dasharray:none"
         id="path52"
         inkscape:connector-curvature="0" /><path
         d="m 612.977,514.199 0,-6.121"
         style="fill:none;stroke:#000000;stroke-width:0.91799998;stroke-linecap:butt;stroke-linejoin:miter;stroke-miterlimit:10;stroke-opacity:1;stroke-dasharray:none"
         id="path54"
         inkscape:connector-curvature="0" /><path
         d="m 102.996,85.801 0,12.238"
         style="fill:none;stroke:#000000;stroke-width:0.91799998;stroke-linecap:butt;stroke-linejoin:miter;stroke-miterlimit:10;stroke-opacity:1;stroke-dasharray:none"
         id="path56"
         inkscape:connector-curvature="0" /><path
         d="m 102.996,514.199 0,-12.238"
         style="fill:none;stroke:#000000;stroke-width:0.91799998;stroke-linecap:butt;stroke-linejoin:miter;stroke-miterlimit:10;stroke-opacity:1;stroke-dasharray:none"
         id="path58"
         inkscape:connector-curvature="0" /><path
         d="m 306.977,85.801 0,12.238"
         style="fill:none;stroke:#000000;stroke-width:0.91799998;stroke-linecap:butt;stroke-linejoin:miter;stroke-miterlimit:10;stroke-opacity:1;stroke-dasharray:none"
         id="path60"
         inkscape:connector-curvature="0" /><path
         d="m 306.977,514.199 0,-12.238"
         style="fill:none;stroke:#000000;stroke-width:0.91799998;stroke-linecap:butt;stroke-linejoin:miter;stroke-miterlimit:10;stroke-opacity:1;stroke-dasharray:none"
         id="path62"
         inkscape:connector-curvature="0" /><path
         d="m 511.016,85.801 0,12.238"
         style="fill:none;stroke:#000000;stroke-width:0.91799998;stroke-linecap:butt;stroke-linejoin:miter;stroke-miterlimit:10;stroke-opacity:1;stroke-dasharray:none"
         id="path64"
         inkscape:connector-curvature="0" /><path
         d="m 511.016,514.199 0,-12.238"
         style="fill:none;stroke:#000000;stroke-width:0.91799998;stroke-linecap:butt;stroke-linejoin:miter;stroke-miterlimit:10;stroke-opacity:1;stroke-dasharray:none"
         id="path66"
         inkscape:connector-curvature="0" /><path
         d="m 714.996,85.801 0,12.238"
         style="fill:none;stroke:#000000;stroke-width:0.91799998;stroke-linecap:butt;stroke-linejoin:miter;stroke-miterlimit:10;stroke-opacity:1;stroke-dasharray:none"
         id="path68"
         inkscape:connector-curvature="0" /><path
         d="m 714.996,514.199 0,-12.238"
         style="fill:none;stroke:#000000;stroke-width:0.91799998;stroke-linecap:butt;stroke-linejoin:miter;stroke-miterlimit:10;stroke-opacity:1;stroke-dasharray:none"
         id="path70"
         inkscape:connector-curvature="0" /><text
         transform="matrix(1,0,0,-1,100.9757,50.3039)"
         id="text72"><tspan
           style="font-size:28.79999924px;font-variant:normal;font-weight:normal;writing-mode:lr-tb;fill:#000000;fill-opacity:1;fill-rule:nonzero;stroke:none;font-family:Times New Roman;-inkscape-font-specification:Times New Roman"
           x="0"
           y="0"
           id="tspan74">0</tspan><tspan
           style="font-size:28.79999924px;font-variant:normal;font-weight:normal;writing-mode:lr-tb;fill:#000000;fill-opacity:1;fill-rule:nonzero;stroke:none;font-family:Times New Roman;-inkscape-font-specification:Times New Roman"
           x="195.47302 212.60902"
           y="0.24453107"
           sodipodi:role="line"
           id="tspan76">50</tspan><tspan
           style="font-size:28.79999924px;font-variant:normal;font-weight:normal;writing-mode:lr-tb;fill:#000000;fill-opacity:1;fill-rule:nonzero;stroke:none;font-family:Times New Roman;-inkscape-font-specification:Times New Roman"
           x="390.823 407.95901 425.095"
           y="0"
           sodipodi:role="line"
           id="tspan78">100</tspan><tspan
           style="font-size:28.79999924px;font-variant:normal;font-weight:normal;writing-mode:lr-tb;fill:#000000;fill-opacity:1;fill-rule:nonzero;stroke:none;font-family:Times New Roman;-inkscape-font-specification:Times New Roman"
           x="594.80298 611.93896 629.07501"
           y="0.24453107"
           sodipodi:role="line"
           id="tspan80">150</tspan></text>
<text
         transform="scale(1,-1)"
         id="text82"
         x="375.70166"
         y="-20.254656"><tspan
           style="font-size:34.27199936px;font-variant:normal;font-weight:normal;writing-mode:lr-tb;fill:#000000;fill-opacity:1;fill-rule:nonzero;stroke:none;font-family:Standard Symbols L;-inkscape-font-specification:StandardSymL"
           x="375.70166"
           y="-20.254656"
           id="tspan84">σ</tspan></text>
<text
         transform="scale(1,-1)"
         id="text86"
         x="396.32626"
         y="-6.5460691"><tspan
           style="font-size:24.23520088px;font-variant:normal;font-weight:normal;writing-mode:lr-tb;fill:#000000;fill-opacity:1;fill-rule:nonzero;stroke:none;font-family:DejaVu Sans;-inkscape-font-specification:DejaVuSans"
           x="396.32626 408.39539"
           y="-6.5460691"
           sodipodi:role="line"
           id="tspan88">yy</tspan></text>
<path
         d="m 102.996,85.801 0,428.398"
         style="fill:none;stroke:#000000;stroke-width:0.91799998;stroke-linecap:butt;stroke-linejoin:miter;stroke-miterlimit:10;stroke-opacity:1;stroke-dasharray:none"
         id="path90"
         inkscape:connector-curvature="0" /><path
         d="m 714.996,85.801 0,428.398"
         style="fill:none;stroke:#000000;stroke-width:0.91799998;stroke-linecap:butt;stroke-linejoin:miter;stroke-miterlimit:10;stroke-opacity:1;stroke-dasharray:none"
         id="path92"
         inkscape:connector-curvature="0" /><path
         d="m 102.996,157.219 6.121,0"
         style="fill:none;stroke:#000000;stroke-width:0.91799998;stroke-linecap:butt;stroke-linejoin:miter;stroke-miterlimit:10;stroke-opacity:1;stroke-dasharray:none"
         id="path94"
         inkscape:connector-curvature="0" /><path
         d="m 714.996,157.219 -6.121,0"
         style="fill:none;stroke:#000000;stroke-width:0.91799998;stroke-linecap:butt;stroke-linejoin:miter;stroke-miterlimit:10;stroke-opacity:1;stroke-dasharray:none"
         id="path96"
         inkscape:connector-curvature="0" /><path
         d="m 102.996,300 6.121,0"
         style="fill:none;stroke:#000000;stroke-width:0.91799998;stroke-linecap:butt;stroke-linejoin:miter;stroke-miterlimit:10;stroke-opacity:1;stroke-dasharray:none"
         id="path98"
         inkscape:connector-curvature="0" /><path
         d="m 714.996,300 -6.121,0"
         style="fill:none;stroke:#000000;stroke-width:0.91799998;stroke-linecap:butt;stroke-linejoin:miter;stroke-miterlimit:10;stroke-opacity:1;stroke-dasharray:none"
         id="path100"
         inkscape:connector-curvature="0" /><path
         d="m 102.996,442.781 6.121,0"
         style="fill:none;stroke:#000000;stroke-width:0.91799998;stroke-linecap:butt;stroke-linejoin:miter;stroke-miterlimit:10;stroke-opacity:1;stroke-dasharray:none"
         id="path102"
         inkscape:connector-curvature="0" /><path
         d="m 714.996,442.781 -6.121,0"
         style="fill:none;stroke:#000000;stroke-width:0.91799998;stroke-linecap:butt;stroke-linejoin:miter;stroke-miterlimit:10;stroke-opacity:1;stroke-dasharray:none"
         id="path104"
         inkscape:connector-curvature="0" /><path
         d="m 102.996,85.801 12.238,0"
         style="fill:none;stroke:#000000;stroke-width:0.91799998;stroke-linecap:butt;stroke-linejoin:miter;stroke-miterlimit:10;stroke-opacity:1;stroke-dasharray:none"
         id="path106"
         inkscape:connector-curvature="0" /><path
         d="m 714.996,85.801 -12.242,0"
         style="fill:none;stroke:#000000;stroke-width:0.91799998;stroke-linecap:butt;stroke-linejoin:miter;stroke-miterlimit:10;stroke-opacity:1;stroke-dasharray:none"
         id="path108"
         inkscape:connector-curvature="0" /><path
         d="m 102.996,228.578 12.238,0"
         style="fill:none;stroke:#000000;stroke-width:0.91799998;stroke-linecap:butt;stroke-linejoin:miter;stroke-miterlimit:10;stroke-opacity:1;stroke-dasharray:none"
         id="path110"
         inkscape:connector-curvature="0" /><path
         d="m 714.996,228.578 -12.242,0"
         style="fill:none;stroke:#000000;stroke-width:0.91799998;stroke-linecap:butt;stroke-linejoin:miter;stroke-miterlimit:10;stroke-opacity:1;stroke-dasharray:none"
         id="path112"
         inkscape:connector-curvature="0" /><path
         d="m 102.996,371.422 12.238,0"
         style="fill:none;stroke:#000000;stroke-width:0.91799998;stroke-linecap:butt;stroke-linejoin:miter;stroke-miterlimit:10;stroke-opacity:1;stroke-dasharray:none"
         id="path114"
         inkscape:connector-curvature="0" /><path
         d="m 714.996,371.422 -12.242,0"
         style="fill:none;stroke:#000000;stroke-width:0.91799998;stroke-linecap:butt;stroke-linejoin:miter;stroke-miterlimit:10;stroke-opacity:1;stroke-dasharray:none"
         id="path116"
         inkscape:connector-curvature="0" /><path
         d="m 102.996,514.199 12.238,0"
         style="fill:none;stroke:#000000;stroke-width:0.91799998;stroke-linecap:butt;stroke-linejoin:miter;stroke-miterlimit:10;stroke-opacity:1;stroke-dasharray:none"
         id="path118"
         inkscape:connector-curvature="0" /><path
         d="m 714.996,514.199 -12.242,0"
         style="fill:none;stroke:#000000;stroke-width:0.91799998;stroke-linecap:butt;stroke-linejoin:miter;stroke-miterlimit:10;stroke-opacity:1;stroke-dasharray:none"
         id="path120"
         inkscape:connector-curvature="0" /><text
         transform="matrix(1,0,0,-1,74.414696,80.5367)"
         id="text122"><tspan
           style="font-size:28.79999924px;font-variant:normal;font-weight:normal;writing-mode:lr-tb;fill:#000000;fill-opacity:1;fill-rule:nonzero;stroke:none;font-family:Times New Roman;-inkscape-font-specification:Times New Roman"
           x="0"
           y="0"
           id="tspan124">0</tspan><tspan
           style="font-size:28.79999924px;font-variant:normal;font-weight:normal;writing-mode:lr-tb;fill:#000000;fill-opacity:1;fill-rule:nonzero;stroke:none;font-family:Times New Roman;-inkscape-font-specification:Times New Roman"
           x="-17.013718 0.12228249"
           y="-142.77998"
           sodipodi:role="line"
           id="tspan126">10</tspan><tspan
           style="font-size:28.79999924px;font-variant:normal;font-weight:normal;writing-mode:lr-tb;fill:#000000;fill-opacity:1;fill-rule:nonzero;stroke:none;font-family:Times New Roman;-inkscape-font-specification:Times New Roman"
           x="-17.013718 0.12228249"
           y="-285.55997"
           sodipodi:role="line"
           id="tspan128">20</tspan><tspan
           style="font-size:28.79999924px;font-variant:normal;font-weight:normal;writing-mode:lr-tb;fill:#000000;fill-opacity:1;fill-rule:nonzero;stroke:none;font-family:Times New Roman;-inkscape-font-specification:Times New Roman"
           x="-17.013718 0.12228249"
           y="-428.40097"
           sodipodi:role="line"
           id="tspan130">30</tspan></text>
<text
         transform="matrix(0,1,1,0,0,0)"
         id="text132"
         x="236.0799"
         y="26.189297"><tspan
           style="font-size:34.27199936px;font-variant:normal;font-weight:normal;writing-mode:lr-tb;fill:#000000;fill-opacity:1;fill-rule:nonzero;stroke:none;font-family:DejaVu Sans;-inkscape-font-specification:DejaVuSans"
           x="236.0799"
           y="26.189297"
           id="tspan134">|</tspan></text>
<text
         transform="matrix(0,1,1,0,0,0)"
         id="text136"
         x="251.3652"
         y="26.189297"><tspan
           style="font-size:34.27199936px;font-variant:normal;font-weight:normal;writing-mode:lr-tb;fill:#000000;fill-opacity:1;fill-rule:nonzero;stroke:none;font-family:Standard Symbols L;-inkscape-font-specification:StandardSymL"
           x="251.3652"
           y="26.189297"
           id="tspan138">σ</tspan></text>
<text
         transform="matrix(0,1,1,0,0,0)"
         id="text140"
         x="272.0654"
         y="39.897896"><tspan
           style="font-size:24.23520088px;font-variant:normal;font-weight:normal;writing-mode:lr-tb;fill:#000000;fill-opacity:1;fill-rule:nonzero;stroke:none;font-family:DejaVu Sans;-inkscape-font-specification:DejaVuSans"
           x="272.0654 284.13452"
           y="39.897896"
           sodipodi:role="line"
           id="tspan142">xy</tspan></text>
<text
         transform="matrix(0,1,1,0,0,0)"
         id="text144"
         x="304.86859"
         y="26.189297"><tspan
           style="font-size:34.27199936px;font-variant:normal;font-weight:normal;writing-mode:lr-tb;fill:#000000;fill-opacity:1;fill-rule:nonzero;stroke:none;font-family:DejaVu Sans;-inkscape-font-specification:DejaVuSans"
           x="304.86859"
           y="26.189297"
           id="tspan146">|</tspan></text>
<path
         d="m 102.996,514.199 612,0 0,-428.398 -612,0 0,428.398 z"
         style="fill:none;stroke:#000000;stroke-width:0.91799998;stroke-linecap:butt;stroke-linejoin:miter;stroke-miterlimit:10;stroke-opacity:1;stroke-dasharray:none"
         id="path148"
         inkscape:connector-curvature="0" /><path
         d="M 102.32,85.418 C 653.855,515.332 653.855,514.766 653.855,514.766"
         style="fill:none;stroke:#000000;stroke-width:0.80000001;stroke-linecap:butt;stroke-linejoin:miter;stroke-miterlimit:4;stroke-opacity:1;stroke-dasharray:none"
         id="path150"
         inkscape:connector-curvature="0" /><path
         d="m 312.754,243.441 c 0,3.379 -2.738,6.118 -6.117,6.118 -3.383,0 -6.121,-2.739 -6.121,-6.118 0,-3.379 2.738,-6.121 6.121,-6.121 3.379,0 6.117,2.742 6.117,6.121"
         style="fill:none;stroke:#000000;stroke-width:2.26440001;stroke-linecap:butt;stroke-linejoin:miter;stroke-miterlimit:10;stroke-opacity:1;stroke-dasharray:none"
         id="path152"
         inkscape:connector-curvature="0" /><path
         d="m 432.441,335.961 c 0,3.379 -2.738,6.117 -6.117,6.117 -3.383,0 -6.121,-2.738 -6.121,-6.117 0,-3.379 2.738,-6.121 6.121,-6.121 3.379,0 6.117,2.742 6.117,6.121"
         style="fill:none;stroke:#000000;stroke-width:2.26440001;stroke-linecap:butt;stroke-linejoin:miter;stroke-miterlimit:10;stroke-opacity:1;stroke-dasharray:none"
         id="path154"
         inkscape:connector-curvature="0" /><path
         d="m 517.266,409.605 c 0,3.379 -2.735,6.118 -6.114,6.118 -3.386,0 -6.121,-2.739 -6.121,-6.118 0,-3.378 2.735,-6.121 6.121,-6.121 3.379,0 6.114,2.743 6.114,6.121"
         style="fill:none;stroke:#000000;stroke-width:2.26440001;stroke-linecap:butt;stroke-linejoin:miter;stroke-miterlimit:10;stroke-opacity:1;stroke-dasharray:none"
         id="path156"
         inkscape:connector-curvature="0" /></g><text
       xml:space="preserve"
       style="font-size:19.20000076px;font-style:normal;font-variant:normal;font-weight:normal;font-stretch:normal;text-align:start;line-height:125%;letter-spacing:0px;word-spacing:0px;text-anchor:start;fill:#000000;fill-opacity:1;stroke:none;font-family:Times New Roman;-inkscape-font-specification:Times New Roman"
       x="427.57709"
       y="-21.184307"
       id="text3133"
       sodipodi:linespacing="125%"
       transform="scale(1,-1)"><tspan
         sodipodi:role="line"
         id="tspan3135"
         x="427.57709"
         y="-21.184307"
         style="font-size:28.79999924px">[kPa]</tspan></text>
<text
       xml:space="preserve"
       style="font-size:19.20000076px;font-style:normal;font-variant:normal;font-weight:normal;font-stretch:normal;text-align:start;line-height:125%;letter-spacing:0px;word-spacing:0px;text-anchor:start;fill:#000000;fill-opacity:1;stroke:none;font-family:Times New Roman;-inkscape-font-specification:Times New Roman"
       x="330.15927"
       y="27.481382"
       id="text3137"
       sodipodi:linespacing="125%"
       transform="matrix(6.7573675e-4,0.99999977,0.99999977,-6.7573675e-4,0,0)"><tspan
         sodipodi:role="line"
         id="tspan3139"
         x="330.15927"
         y="27.481382"
         style="font-size:28.79999924px">[kPa]</tspan></text>
</g></svg>